<svg id="Ebene_1" xmlns="http://www.w3.org/2000/svg" viewBox="0 0 340 73.2"><style>.st0{fill:#BA9B3B;}</style><path d="M18.5 38.5c.3.4.4.9.3 1.4-.1 1.9-2.1 3.1-5.1 3.1-2.7-.1-4.9-1.7-4.6-3.9.4-3.2 4.2-4.7 8.5-4.4 2.6.1 5.3.7 7.9 1.2 2.7.5 4.9.9 6.5 1.1-2.6.8-5 2.5-7.4 5.1-2.7 2.9-3.9 4.9-6.7 7.3-2 1.7-5 2.9-6.6 3.2-1.8-.2-5.2-.6-7.3-.6-1.9 0-3.9.2-4 1.2-.1.9 3 .9 4.7.8 1.4 0 3.9-.2 5.2-.5 1.8.2 5.8.7 9.5.7 4.5 0 7.6-.9 10.3-2.8.8-.6 1.9-1.5 2.4-2s1.3-1.2 1.8-1.7c-.6.7-1.1 1.4-1.5 1.9-.8 1.2-1.5 2.3-2 3.3-.3.7 0 .8.6.8.5 0 .8-.1 1.3-.4 2.1-1.7 3.3-2.8 5.5-4.4 1.6-1.2 2.9-2 3.8-2.5.5-.2 1-.4 1.3-.3.2.1.1.4 0 .7-.6.7-1.3 1.5-2 2.4-.9 1.1-2 2.3-2 3.4 0 .8.5 1.3 1.5 1.3 1.5 0 3.4-1.2 4.4-2 1-.8 2.5-2.1 2.9-2.5.3-.3.5-.5.4-.6-.1-.1-.2 0-.6.3-.5.5-1.5 1.4-2.3 2-1.1.9-1.8 1.2-2.3 1.5-.4.2-.9.4-1.2.2-.2-.1-.1-.5.2-1.1.3-.5.8-1.2 1.6-2.1.8-1 1.8-2.1 2-3 .1-.8-.5-1.3-1.5-1.3-1.5 0-3.6 1.4-5.3 2.6-1.7 1.3-3.3 2.7-4.5 3.7h-.1c1.1-1.7 3.3-4.7 5.4-7.6 1.5-2 3-3.9 4.3-5.5 1.2-1.4 2.6-3 3.9-4.2 2.6-2.3 5.3-4 10-4 3.7 0 5.9 1.8 5.8 3.9 0 .6-.2 1-.1 1s.4-.4.5-1c.3-2.7-2-5.2-6-5.2-3.9 0-7.9 2.7-10.7 4.8-1.1.9-2 1.6-2.3 1.9-2.9 1.7-11.7.2-18.3-.9-2.6-.4-5.6-1-8.1-1-5-.1-9.3 1.9-9.7 5.5-.3 2.6 2.1 4.4 5.2 4.4 3.2 0 6.1-1.3 6.1-3.4 0-.9-.6-1.5-1-1.7-.2-.1-.4-.2-.5-.1h-.1zm-6.1 14.1c3.2-.6 7.7-2.4 11.2-5.7 2.5-2.4 3.5-4.4 5.5-6.8 1.4-1.6 2.7-2.6 3.6-3 .3-.1 1.4.1 2.3.1 2.5.1 6.1 0 8.7-1-1.8 1.5-3.9 3.9-5 5.2-1.2 1.4-3 3.8-3.8 4.8-1.1 1-2.4 2.1-3.1 2.7-.5.4-1.4 1.2-2.2 1.8-2.8 1.8-5.4 2.3-9.5 2.4-3.3 0-6.6-.3-7.7-.5zm37.8.5c-.7 0-1.1-.4-1.1-1.1 0-.3.1-.7.3-1.1 1.1-.3 2.8-.9 4.2-1.6 1.5-.7 3-1.7 3.1-3 0-.6-.3-1.3-1.4-1.3-1.3 0-2.8.6-4.2 1.4-.9.5-1.9 1.1-2.4 1.5-.7.5-1.2.9-1.8 1.5-.2.2-.4.4-.3.5.1.1.2 0 .5-.1.3-.2.8-.7 1-.9-1 1.2-1.4 2-1.5 3 0 1.3.8 1.9 2.6 1.9 1.7 0 3.5-.6 5.5-2 .9-.6 2.4-1.9 3.1-2.4.3-.2.5-.5.4-.6-.1-.1-.2 0-.5.2-.9.8-2 1.7-3 2.3-2.2 1.5-3.8 1.8-4.5 1.8zm-.5-2.7c.6-1 1.8-2.5 2.6-3.3 1-.9 1.7-1.4 2.1-1.4.4 0 .6.2.6.7 0 .7-.8 1.7-2 2.5-1 .7-2.3 1.2-3.3 1.5zm27.8-14c0 2.5 2.8 4.2 6 4.9-2.8 3.7-4 6.8-6.7 9.3-.6-.1-1.6-.2-2.3-.2-2.8-.1-7.2.9-7.3 2.5 0 .8 1 1.2 2.9 1.1 3 0 5.4-1.6 6.6-2.5.6.1 2.4 1 4 1.6 1.4.5 3.4 1 5.3 1 3.2 0 4.9-1.4 8.4-4.7.3-.3.6-.6.4-.7-.1-.1-.4.1-.6.3-3 2.6-5.1 3.5-7.9 3.5-1 0-3.3-.4-5-.9-1.5-.4-3-.8-3.7-.9 3.1-2.1 5.4-4.3 8.6-9 1.5.2 3.7.2 5.4 0 2.9-.3 8.9-1.9 9.5-5.1.4-2.2-1.8-3.5-4.4-3.4-1.4 0-3.2.4-4.4.9-1.8-1.5-4.1-2.5-7.8-2.5-4.4 0-7 2.3-7 4.8zm9.1 4.9c1.8-2.6 3.8-5.1 5.7-6.1.3.2.8.8 1.1 1.4.7 1.2.6 1.7.7 1.7.1 0 .2-.5-.2-1.8-.2-.6-.6-1.2-.9-1.7.9-.6 2.7-1.2 3.9-1.2 2 0 3.3 1 3 2.6-.7 2.9-5.2 4.6-8 5-1.9.2-3.9.3-5.3.1zm-8.7-5.1c0-2 2.3-3.9 6.5-3.9 3.4 0 5.8 1.2 7.2 2.1-2.3.9-5.5 3.6-7.8 6.4-3.1-.6-5.9-2.3-5.9-4.6zm-1.8 15.1c-1.3 1.2-3.6 2.2-5.1 2.2-.8 0-1.6-.1-1.6-.8 0-.9 1.9-1.7 3.9-1.8 1.1 0 2.1.2 2.8.4zm21.2 1.8c-.7 0-1.1-.4-1.1-1.1 0-.3.1-.7.3-1.1 1.1-.3 2.8-.9 4.2-1.6 1.5-.7 3-1.7 3.1-3 0-.6-.3-1.3-1.4-1.3-1.3 0-2.8.6-4.2 1.4-.9.5-1.9 1.1-2.4 1.5-.7.5-1.2.9-1.8 1.5-.2.2-.4.4-.3.5.1.1.2 0 .5-.1.3-.2.8-.7 1-.9-1 1.2-1.4 2-1.5 3 0 1.3.8 1.9 2.6 1.9 1.7 0 3.5-.6 5.5-2 .9-.6 2.4-1.9 3.1-2.4.3-.2.5-.5.4-.6-.1-.1-.2 0-.5.2-.9.8-2 1.7-3 2.3-2.2 1.5-3.9 1.8-4.5 1.8zm-.5-2.7c.6-1 1.8-2.5 2.6-3.3 1-.9 1.7-1.4 2.1-1.4.4 0 .6.2.6.7 0 .7-.8 1.7-2 2.5-1.1.7-2.4 1.2-3.3 1.5zm17.5-3.4c.3-.8-.1-1.7-1-1.9-1.3-.2-3 .4-4.9 1.4-.9.5-1.8 1-2.2 1.4-.5.3-1.3 1-1.5 1.2-.5.5-.8.8-.7.9.1.1.2 0 .4-.1.3-.2.5-.4.6-.6-.9 1-1.3 1.8-1.4 2.5-.2 1.6.9 2 2 2 1.9-.1 4.1-1.7 5.4-2.8-.4.5-.7 1.2-.7 1.8 0 .6.5 1 1.4 1 1.6 0 3.2-1.2 4.2-2 .9-.7 2.1-1.8 2.7-2.3.5-.5.8-.7.6-.9-.1-.1-.4.1-.7.3-.5.5-1.3 1.2-2.3 2-.8.6-1.7 1.3-2.2 1.5-.4.2-.9.4-1.1.2-.2-.1-.2-.5.1-1.1.4-.8 1.1-1.6 1.7-2.4 1-1.3 2.1-2.5 2.7-3.2.5-.6.4-.8-.6-.8-.5 0-1.3.6-2.5 1.9zm-1.2-1.4c.5 0 .9.2.9.9 0 .8-1.8 2.9-3.4 4.2-1.3 1.2-3.2 2.3-4.1 2.3-.3 0-.6-.1-.6-.5-.1-.6.7-1.9 2.7-3.9 1.8-1.7 3.5-3 4.5-3zm14 0c.5 0 .9.2.9.9 0 .8-1.8 2.9-3.4 4.2-1.3 1.2-3.2 2.3-4.1 2.3-.3 0-.6-.1-.6-.5-.1-.6.7-1.9 2.7-3.9 1.8-1.7 3.5-3 4.5-3zm-4.7.9c-1 .5-1.8 1-2.2 1.4-.5.3-1.2.9-1.4 1.1-.5.5-.9.9-.8 1 .1.1.2 0 .4-.1.3-.2.5-.4.6-.6-.9 1-1.3 1.8-1.4 2.5-.2 1.6.9 2 2 2 1.9-.1 4.1-1.7 5.4-2.8-.4.5-.7 1.2-.7 1.8 0 .6.5 1 1.4 1 1.6 0 3.2-1.2 4.2-2 .9-.7 2.1-1.8 2.7-2.3.5-.5.8-.7.6-.9-.1-.1-.4.1-.7.3-.5.5-1.3 1.2-2.3 2-.8.6-1.7 1.3-2.2 1.5-.4.2-.9.4-1.1.2-.2-.1-.2-.5.1-1.1.4-.8 2.5-3.7 4-5.6 2.8-3.6 4.5-5.6 6.1-7.5 1.8-2.1 4.2-4.8 5.6-6 0-.2-.2-.3-.7-.3-.7 0-1.3.3-1.8.8-2.1 1.9-4.1 4-5.8 6-2.5 2.9-4.7 5.7-6.2 7.9.2-.7-.1-1.5-1.1-1.7-1.2-.2-3 .5-4.7 1.4zm21.1-7.9c-.9 0-1.7.2-2 .9-.2.6-.2 1.4 0 1.7.5 0 1.7-.5 2.3-1.3.7-.7.4-1.3-.3-1.3zm-6.8 7.9c-.8.7-2.7 2.7-3.7 4.2-.4.6-.7 1.2-.7 1.9 0 .8.4 1.3 1.5 1.3 1.6 0 3.3-1.2 4.2-2 1-.8 2.2-1.9 2.8-2.4.1-.1.7-.6.5-.8-.1-.1-.3 0-.8.4-.8.7-1.2 1.1-2.2 1.9-.8.7-1.7 1.2-2.1 1.5-.5.2-.9.3-1.2.1-.2-.2-.1-.5.1-1.1.3-.5.9-1.4 1.7-2.4 1-1.2 1.8-2.1 2.6-3.1.6-.6.5-.8-.5-.8-.9 0-1.6.2-2.8 1.1-1.2.8-2.9 2.2-3.5 2.7-.5.5-.6.7-.5.8.1.1.3 0 .7-.4.5-.4 1-.9 1.8-1.5s1.8-1.3 2.1-1.4zm14.1 7.2c1.5 0 3.4-1.2 4.4-2 1-.8 2.5-2.1 2.9-2.5.3-.3.5-.5.4-.6-.1-.1-.2 0-.6.3-.5.5-1.5 1.4-2.3 2-1.1.8-1.8 1.2-2.3 1.5-.4.2-.9.4-1.2.2-.2-.1-.2-.4.2-1.1.2-.4.8-1.2 1.6-2.1.8-1 1.8-2.1 2-3 .1-.8-.5-1.3-1.5-1.3-1.5 0-3.6 1.4-5.3 2.6-1.7 1.3-3.3 2.7-4.5 3.7.5-.8 1.6-2.1 2.3-3.1.6-.9 1-1.5 1-2.1 0-.5-.3-1.1-1.2-1.1-1 0-2 .6-3.3 1.6-.9.7-2 1.7-2.5 2.2-.6.5-.8.8-.7.9.1.1.3 0 .8-.4.7-.6 1.5-1.3 2.1-1.9.6-.5 1.3-1 1.9-1.3.3-.1.6-.2.7 0 .1.1 0 .4-.3.8-.5.7-1.4 1.8-2 2.5-.8 1-1.8 2.6-2.1 3.3-.4.7 0 .8.6.8.5 0 .8-.1 1.3-.4 2.1-1.7 3.3-2.8 5.5-4.4 1.6-1.2 2.9-2 3.8-2.5.5-.2 1-.4 1.3-.3.2.1.1.4 0 .7-.6.7-1.3 1.5-2 2.4-.9 1.1-2 2.3-2 3.4-.5.8.1 1.2 1 1.2zm9.6 2.8c-1 1.4-3 4-4.9 6.5-3.9 4.9-6.7 7.5-8.9 8.8-.9.5-2.3 1-3.1.8-.5-.1-.8-.6-.7-1.3.2-2.5 3.8-5.9 7.9-8.6 4.5-3.2 6.9-4.3 9.7-6.2zm5.7-10.9c.5 0 .9.2.9.9 0 .8-1.8 2.9-3.4 4.2-1.3 1.2-3.2 2.3-4.1 2.3-.3 0-.6-.1-.6-.5-.1-.6.7-1.9 2.7-3.9 1.8-1.7 3.6-3 4.5-3zm-4.6.9c-1 .5-1.8 1-2.2 1.4-.5.3-1.2.9-1.4 1.1-.5.5-.9.9-.8 1 .1.1.2 0 .4-.1.3-.2.5-.4.6-.6-.9 1-1.3 1.8-1.4 2.5-.1 1.6.9 2 2 2 1.8-.1 4-1.6 5.3-2.7-.8 1.2-2.4 3.4-3.3 4.6-3.4 2.1-5.4 3.2-9.9 6-3.8 2.5-9.5 6.6-9.9 9.5-.2 1.7 1.1 2 2.3 2 .9 0 2.1-.3 3.4-1 2.9-1.5 6.8-4.6 10-8.2 1.4-1.6 4.6-5.7 6.7-8.7 1.6-.9 3.6-2.1 5.4-3.5 1.1-.9 2.1-1.7 2.9-2.4.2-.2.6-.6.5-.7-.1-.1-.3 0-.6.2-1 .9-2 1.7-3 2.5-1.5 1.1-3.6 2.4-4.7 3.1 1.5-2 3.2-4.3 4-5.4 1-1.3 1.7-2.2 2.5-3.2.5-.6.3-.8-.6-.8-.7 0-1.3.4-2.3 1.7.1-.8-.1-1.5-1.1-1.7-1.2-.2-3.1.4-4.8 1.4zm46.6-11c0-2.2-2.1-2.8-3.9-2.8-1.7 0-4.3.6-7.2 1.9-1.6-1.7-3.9-2.4-6-2.4-4 0-7.6 2.2-7.6 6.1 0 2 1.1 3.6 2.7 4.6-2.1 2.6-3.2 5.4-3.1 7.5.2 2.7 2.3 3.8 5.1 3.5 2.1-.1 4.5-1.6 6.5-3.6 0 0-3.1 4.3-4 5.6-3.9 2.4-5 2.8-9.4 5.5-2.6 1.7-7.3 4.9-7.6 7.7-.1 1.6 1 2 2 2 2.7 0 7.7-3.4 11.5-7.9 3.1-3.7 3.7-4.5 6-7.9 1.6-.9 3.7-2.1 5.7-3.6 1.1-.8 2.3-1.8 2.9-2.3.6-.5.7-.8.6-.9-.1-.1-.4.1-.7.3-1.1 1-2.1 1.8-3.4 2.7-1.8 1.3-3.5 2.3-4.6 3 1.5-1.9 2-2.7 2.9-3.8.9-1.3 1.6-2.1 2.4-3.2.5-.6.3-.8-.6-.8-.7 0-1.6.7-2.3 1.5-2.8 2.9-5.4 5-8 4.9-1.5 0-2.4-1.2-2.2-2.9.2-2 1.2-4.1 2.6-6.2 1.1.4 2.8.7 4.4.7 2.8 0 6.3-.6 9.2-2.1 3.4-1.6 6.1-4.4 6.1-7.1zm-.6-.1c0 2-3 5-6 6.6-3 1.6-5.9 2.3-8.7 2.3-1.4 0-2.8-.2-4-.6.9-1.3 2-2.6 3.1-3.8 1.8-1.8 3.5-3.1 5.1-4.2.6.6 1.1 1.5 1.4 2.4.3.8.2 1.3.4 1.2.1 0 .2-.4 0-1.4-.1-.7-.6-1.9-1.1-2.6 2.6-1.5 4.9-2.1 6.6-2.1 1.4.1 3.2.4 3.2 2.2zm-16.9-2.6c2 0 3.9.7 5.6 2.2-1.8.9-3.7 2-5.5 3.5-1.6 1.2-3.4 3-4.3 4.1-1.4-1-2.5-2.5-2.5-4.3 0-3.5 3.3-5.5 6.7-5.5zm-.6 24c-1.4 2-2.9 4.1-4.7 6.5-2.1 2.9-4.6 5.3-6.2 6.3-1.2.7-2.2 1.1-3 1-.7-.1-1.1-.4-1.1-1.3 0-2.2 3.7-5.5 6.2-7.2 4.4-3 6-3.5 8.8-5.3zm12.9-8.2c-.9 1-1.5 2.2-1.5 3.2 0 1.4.9 2.1 2.4 2.1 2 0 4.3-1.4 5.6-2.4.3.2.9.2 1.3.1.5-.1 1.1-.3 1.9-.9.6-.4 1.1-.9 1.6-1.3s.8-.7.6-.9c-.1-.1-.4.1-.8.5-.5.5-.9.8-1.6 1.3-.7.5-1.2.7-1.7.8-.2 0-.7.1-.9 0 1.5-1.4 2.6-2.8 2.8-3.9.1-.7-.2-1.3-.6-1.7-.2-.2-.5-.4-.7-.3-.1.1 0 .2 0 .8 0 .2 0 .8-.1 1.1-.3.1-1 .5-1.6 1.3-.6.8-.8 1.6-.9 2-1.5 1.7-3.5 3-4.5 3-.5 0-.7-.3-.7-.8.1-1 1.4-2.9 2.8-4.3 1.4-1.3 2.3-2.1 3.5-2.7.4-.2.5-.2.5-.3 0-.2-.4-.2-.7-.2-1.1 0-2.6.6-4 1.3-1 .5-1.7 1-2.3 1.4-.5.3-1.2.9-1.5 1.2-.2.2-.4.4-.3.6.1.1.3 0 .6-.3.2-.2.4-.4.8-.7zm13.4-1.1c-1.5 1.9-2.7 3.8-2.7 4.9 0 .9.5 1.3 1.5 1.3 1.6 0 3.4-1.2 4.4-2 1.2-.9 2.4-2 3-2.5.3-.3.4-.5.3-.6-.1-.1-.5.2-.7.4-.6.6-1.3 1.1-2.1 1.8-.7.5-1.4 1-2 1.4-.4.2-1.2.5-1.5.3-.3-.3 0-1 .1-1.3 1-2.2 4.5-6.8 7.8-10.7 2-2.4 6.3-7.2 7.3-8.1 0-.1-.2-.3-.7-.3-.6 0-1.2.3-1.8.8-2.1 1.9-4.1 4.1-5.8 6-2.1 2.4-4.5 5.4-5.8 7-1.5 1.3-3.4 2.9-3.6 3.1-.1.1-.3.3-.2.4.1.1.2.1.5-.1.5-.5 1.2-1.2 2-1.8zm4.4 7.1c.5-1.6.3-2.9.7-3.9.7-1.8 2.5-2.2 3.8-2.3l-4.5 6.2zm9.2-9.7c2.1-2.7 4.2-5.2 6.3-7.4 2.7-2.9 5.2-5.6 7.1-7 1.6-1.2 2.9-1.6 3.9-1.5.4 0 .9.3.9 1 0 1.5-.8 3.7-5.1 7.2-4.3 3.6-9.3 6.1-13.1 7.7zm-19 25.3c.5 0 1.3-.7 1.6-1.1 1-1.2 2.9-3.9 4.7-6.5 2.5-3.4 7.5-10.3 10.4-14.4 1.4-.1 4.9-.2 6.8-.1 1.5 0 2.8.1 3 .9 0 .2 0 .6-.1.7.5-.1 1.2-.4 1.2-1.1 0-1.4-1.9-1.5-4.6-1.4-2 .1-5.1.3-5.8.4.4-.6 1.2-1.7 1.7-2.3 4.3-1.7 8.7-3.9 12.2-6.4 5.3-3.8 7.9-6.7 7.9-8.9 0-1.1-.8-1.9-2.1-1.9-1.5 0-3.6.9-5.3 2.1-4.4 2.9-8.7 7.6-11.8 11.3-1 1.1-2 2.4-3 3.6-.8.2-1.8.3-2.9.2-2.1-.2-3.5-1.5-3.5-2.9 0-1.1 2.6-1.8 2.9-2.1.1-.2.2-.2.2-.3 0 0-.2 0-.3.1-.3.3-3.2 1.1-3.2 2.4 0 1.6 1.1 3.1 3.9 3.3 1 0 2 0 2.6-.2-.3.3-1 1.3-1.6 2-2.5.2-4 1.1-4.6 2.7-.6 1.6-.2 2.8-.9 4.9-1.1 1.4-3 4-4 5.5-5.3 7.2-5 7.7-5.4 8.6-.4.7-.4.9 0 .9zm50.4-39.5c-2.6 0-5 1.8-5 4.5 0 1.1.5 2.2 1.2 3.1-4 2.9-8.1 7.6-8 11.8.1 3.6 3 5.1 7 4.9 2.9-.1 5.4-1.4 7.4-2.8 1.1-.7 2.3-1.9 3.5-2.9.2-.2.5-.5.4-.6-.1-.1-.4 0-1.1.7-.6.5-1.8 1.6-3 2.4-1.9 1.3-4.2 2.5-7.1 2.5-2.4 0-4.2-1.1-4.2-3.9 0-3.2 2.6-7.6 6.3-10.9 1.8 1.3 4.6 2 7.4 2 3.7 0 8.8-1.5 9.4-4.5.5-3-2.6-3.9-5.7-3.7-.9 0-1.9.2-2.6.4-1.3-1.8-3.6-3-5.9-3zm4.9 10.3c-2.6 0-5.4-.5-7.1-1.8 2.1-1.9 5-3.8 7.6-4.8.4.6 1 1.7 1.2 2.7.1.7.1.9.2 1 .1 0 .2-.4.1-1.2-.1-.9-.4-2-.8-2.7.6-.2 1.9-.5 2.6-.5 2.6 0 4.1 1 3.7 3.2-.6 2.4-3.9 4.1-7.5 4.1zm-5.3-9.7c2 0 4.1 1 5.6 2.6-2.7.8-5.9 2.3-8.6 4-.6-.8-1-1.8-1-2.7 0-2.3 1.9-3.9 4-3.9zm7.4 17.3c-.9 1-1.5 2.2-1.5 3.2 0 1.4.9 2.1 2.4 2.1 2 0 4.3-1.4 5.6-2.4.3.2.9.2 1.3.1.5-.1 1.1-.3 1.9-.9.6-.4 1.1-.9 1.6-1.3s.8-.7.6-.9c-.1-.1-.4.1-.8.5-.5.5-.9.8-1.6 1.3-.7.5-1.2.7-1.7.8-.2 0-.7.1-.9 0 1.5-1.4 2.6-2.8 2.8-3.9.1-.7-.2-1.3-.6-1.7-.2-.2-.5-.4-.7-.3-.1.1 0 .2 0 .8 0 .2 0 .8-.1 1.1-.3.1-1 .5-1.6 1.3-.6.8-.8 1.6-.9 2-1.5 1.7-3.5 3-4.5 3-.5 0-.7-.3-.7-.8.1-1 1.4-2.9 2.8-4.3 1.4-1.3 2.3-2.1 3.5-2.7.4-.2.5-.2.5-.3 0-.2-.4-.2-.7-.2-1.1 0-2.6.6-4 1.3-1 .5-1.7 1-2.3 1.4-.5.3-1.2.9-1.5 1.2-.2.2-.4.4-.3.6.1.1.3 0 .6-.3.3-.2.5-.4.8-.7zm15.1-2.1c-1.5 1.4-2.5 2.6-3.5 3.9-.4.6-.9 1.3-.9 2 0 .9.6 1.4 1.6 1.4 1.5 0 3.2-1.2 5.2-2.7 1.3-1 2.9-2.3 3.9-3.1-.8.8-1.8 1.8-2.3 2.5-.4.6-.8 1.3-.8 2s.5 1.2 1.5 1.2c1.6 0 3.3-1.3 4.2-2 1.2-.9 2.4-2 3-2.5.1-.1.5-.5.4-.6-.1-.1-.4 0-.7.3-.5.5-1.4 1.2-2.3 2-.8.6-1.7 1.2-2.2 1.5-.5.2-.9.3-1.1.1-.2-.1-.1-.6.1-1.1.3-.6 1-1.5 1.8-2.5 1-1.3 1.7-2 2.6-3.1.6-.7.1-.8-.7-.8-.7 0-1 .2-1.4.5-1.6 1.2-2.9 2.4-5.3 4.2-1.5 1.2-2.6 2-3.7 2.5-.5.2-.9.3-1.1.1-.1-.1-.1-.5 0-.9.2-.5 1-1.6 1.8-2.6 1-1.2 1.9-2.3 2.5-3 .6-.6.5-.8-.5-.8-.9 0-1.6.2-2.8 1.1-1.2.8-2.9 2.2-3.5 2.7-.5.5-.6.7-.5.8.1.1.3 0 .7-.4.5-.4 1-.9 1.8-1.5.8-.4 1.8-1.1 2.2-1.2zm26.2 6.9c-.9 0-1.5-.4-1.4-1.2 0-.7.7-1.2 1.1-1.5.6-.4.9-.7 1.1-1.1v-.5c.5-.2 1.8-1 2.4-1.5.9-.6 1.9-1.4 2.3-1.9-.5.6-1.4 3.6-2.3 5-1 1.9-2.2 2.7-3.2 2.7zm4.4-.4c.9-.4 2-.9 3.1-1.7 1.1-.7 2-1.5 2.5-2 .4-.4.6-.7.5-.8-.1-.1-.4.1-.6.3-.8.7-1.9 1.6-3.2 2.4-.8.5-1.6.9-2.1 1.1.6-.4 1.3-1.3 1.6-2 .6-1.4.5-2.6.4-4 0-.5 0-.9.3-1.3.2-.2.7-.4 1.2-.7.6-.4 1.4-1 .2-1-.3 0-.9.1-1.4.5-.3.2-.7.6-.8.8-1.1 1-2 1.7-2.9 2.3-.8.6-1.9 1.2-2.6 1.7-.1-.1-.4-.2-.7-.2-.7 0-1.4.4-1.7.7-.5 0-1 0-1.5-.1-.7-.3-.8-.9-.8-1.4 0-.5.4-1 1.9-1.8.5-.3.3-.7.2-.8-.2-.1-.6-.1-1.1 0-.2 0-.7.2-1.5.7-.8.5-1.6 1.2-2.4 1.8-1.1.9-2.4 2.2-3 2.7l-.1-.1c.4-.5 1.1-1.4 1.5-1.9.5-.7 1-1.4 1-2.1 0-.5-.3-1.1-1.2-1.1-1 0-2 .6-3.3 1.6-.9.7-2 1.7-2.5 2.2-.6.5-.8.8-.7.9.1.1.3 0 .8-.4.7-.6 1.5-1.3 2.1-1.9.6-.5 1.3-1 1.9-1.3.3-.1.6-.2.7 0 .1.1 0 .4-.3.8-.5.7-1.4 1.8-2 2.5-.8 1-1.7 2.3-2.1 3.3-.4.7 0 .8.6.8.5 0 .9-.1 1.3-.4 1.9-1.9 3.5-3.4 4.9-4.6.6-.5 1.9-1.5 2.4-1.8-.3 1.2 0 2.2 1.1 2.6.5.2 1.3.2 1.7.2-.3.4-.4.8-.5 1.3-.2 1.4.3 2.9 2.9 2.9 1.6.2 3.3-.3 4.2-.7zm8.3.1c-.7 0-1.1-.4-1.1-1.1 0-.3.1-.7.3-1.1 1.1-.3 2.8-.9 4.2-1.6 1.5-.7 3-1.7 3.1-3 0-.6-.3-1.3-1.4-1.3-1.3 0-2.8.6-4.2 1.4-.9.5-1.9 1.1-2.4 1.5-.7.5-1.2.9-1.8 1.5-.2.2-.4.4-.3.5.1.1.2 0 .5-.1.3-.2.8-.7 1-.9-1 1.2-1.4 2-1.5 3 0 1.3.8 1.9 2.6 1.9 1.7 0 3.6-.6 5.8-1.8 1.9-1 2.6-1.6 3.2-2.2.3-.2.5-.5.4-.6-.1-.1-.2 0-.5.2-.9.8-1.2 1-3.1 2.1-2.3 1.3-4.1 1.6-4.8 1.6zm-.5-2.7c.6-1 1.8-2.5 2.6-3.3 1-.9 1.7-1.4 2.1-1.4.4 0 .6.2.6.7 0 .7-.8 1.7-2 2.5-1 .7-2.3 1.2-3.3 1.5zm15.4 0c.6-1.4.5-2.6.4-4 0-.5-.1-.9.3-1.3.2-.2.7-.4 1.2-.7.6-.4 1.4-1 .2-1-.3 0-.9.1-1.4.5-.3.2-.7.6-.8.8-1.1 1-2 1.7-2.9 2.3-.8.6-3.6 2.3-4.1 2.6-.2.1-.3.2-.2.4.1.1.3 0 .5 0 .4-.2 3.2-1.9 3.9-2.4.8-.6 1.9-1.4 2.3-1.9-.5.6-1.4 3.6-2.3 5-1.1 1.9-2.3 2.6-3.3 2.6-.9 0-1.5-.4-1.4-1.2 0-.7.7-1.2 1.1-1.5.6-.3 1-.7 1.1-1.2.1-.5-.2-1-.9-1.1-1.2 0-2.3 1.1-2.5 2.5-.2 1.4.3 2.9 2.9 2.9 4.6.2 5.6-2.6 5.9-3.3z"/><path class="st0" d="M192.7 2.8l-1.5 4.3h-4.5l3.7 2.7-1.4 4.3 3.7-2.6 3.6 2.6-1.4-4.3 3.7-2.7h-4.5zM212 5.1l-1.1 3.4h-3.6l2.9 2.1-1.1 3.5L212 12l3 2.1-1.1-3.5 2.9-2.1h-3.6zM230 6.9l-.9 2.7h-2.9l2.3 1.7-.9 2.8 2.4-1.7 2.3 1.7-.9-2.8 2.4-1.7h-2.9zM147.3 2.8l1.5 4.3h4.5l-3.7 2.7 1.4 4.3-3.7-2.6-3.6 2.6 1.4-4.3-3.7-2.7h4.5zM128 5.1l1.1 3.4h3.6l-2.9 2.1 1.1 3.5L128 12l-3 2.1 1.1-3.5-2.9-2.1h3.6zM110 6.9l.9 2.7h2.9l-2.3 1.7.9 2.8-2.4-1.7-2.3 1.7.9-2.8-2.3-1.7h2.8zM170.5 0l-1.8 5.3-5.6.1 4.5 3.3-1.7 5.4 4.6-3.3 4.5 3.3-1.7-5.4 4.6-3.3-5.7-.1z"/></svg>