<?xml version="1.0" standalone="no"?>
<!DOCTYPE svg PUBLIC "-//W3C//DTD SVG 1.1//EN" "http://www.w3.org/Graphics/SVG/1.1/DTD/svg11.dtd" >
<svg xmlns="http://www.w3.org/2000/svg" xmlns:xlink="http://www.w3.org/1999/xlink" version="1.1">
<metadata></metadata>
<defs>
<font id="texta_narrowmedium_italic" horiz-adv-x="976" >
<font-face units-per-em="2048" ascent="1536" descent="-512" />
<missing-glyph horiz-adv-x="405" />
<glyph horiz-adv-x="0" />
<glyph horiz-adv-x="682" />
<glyph horiz-adv-x="0" />
<glyph horiz-adv-x="0" />
<glyph unicode="&#xd;" horiz-adv-x="221" />
<glyph unicode=" "  horiz-adv-x="405" />
<glyph unicode="&#x09;" horiz-adv-x="405" />
<glyph unicode="&#xa0;" horiz-adv-x="405" />
<glyph unicode="!" horiz-adv-x="407" d="M477 1229l-164 -871h-116l75 871h205zM109 84q0 51 37 89t87 38q42 0 69.5 -29t27.5 -71q0 -51 -38 -89t-89 -38q-41 0 -67.5 29t-26.5 71z" />
<glyph unicode="&#x22;" horiz-adv-x="614" d="M475 1401l-145 -428h-103l95 428h153zM754 1401l-146 -428h-102l94 428h154z" />
<glyph unicode="#" horiz-adv-x="1169" d="M1124 1194l-110 -326h221l-41 -104h-217l-113 -336h213l-35 -106h-213l-108 -322h-109l107 322h-289l-106 -322h-111l109 322h-220l37 106h217l113 336h-211l37 104h211l110 326h109l-111 -326h289l109 326h112zM578 764l-113 -336h289l112 336h-288z" />
<glyph unicode="$" horiz-adv-x="956" d="M86 121l111 127q3 -4 10 -10.5t30 -24.5t49.5 -32.5t68.5 -29t87 -20.5l60 428q-159 57 -230 127.5t-71 183.5q0 161 106 264.5t293 118.5l31 213h119l-31 -213q62 -4 116 -18t86.5 -31t56 -33t32.5 -27l10 -11l-109 -140l-8.5 8.5t-25.5 21t-43 28t-60 25t-78 18.5 l-53 -389q165 -56 235 -131.5t70 -188.5q0 -166 -108 -280.5t-301 -131.5l-27 -192h-119l27 192q-67 5 -126 22t-95.5 38t-63.5 41t-38 34zM764 352q0 54 -32.5 92t-115.5 74l-55 -385q102 14 152.5 72.5t50.5 146.5zM383 897q0 -49 32 -83.5t113 -68.5l50 349 q-90 -14 -142.5 -65.5t-52.5 -131.5z" />
<glyph unicode="%" horiz-adv-x="1228" d="M498 1255q98 0 152.5 -74t54.5 -184q0 -141 -83 -249.5t-210 -108.5q-100 0 -154.5 74.5t-54.5 185.5q0 143 82.5 249.5t212.5 106.5zM481 1133q-66 0 -104.5 -65.5t-38.5 -162.5q0 -63 23.5 -102t66.5 -39q64 0 101.5 66.5t37.5 162.5q0 64 -22 102t-64 38zM993 600 q99 0 154 -74t55 -186q0 -91 -36.5 -172t-105 -132.5t-153.5 -51.5q-98 0 -153.5 75.5t-55.5 184.5q0 143 83.5 249.5t211.5 106.5zM977 477q-64 0 -102.5 -65.5t-38.5 -161.5q0 -64 22.5 -102.5t65.5 -38.5q63 0 102 66t39 161q0 65 -22.5 103t-65.5 38zM1139 1229h170 l-1063 -1229h-168z" />
<glyph unicode="&#x26;" horiz-adv-x="1122" d="M944 588l154 -39q-59 -175 -154 -307l189 -242h-242l-78 102q-147 -122 -326 -122q-175 0 -267.5 82.5t-92.5 213.5q0 71 21.5 129.5t63 103.5t86 77t105.5 65l-26 35q-68 87 -68 215q0 149 102.5 251.5t258.5 102.5q128 0 202 -70.5t74 -183.5q0 -59 -17 -111t-43 -89.5 t-68 -73t-80 -59.5t-91 -52l201 -254q54 92 96 226zM504 125q120 0 223 92l-233 315q-88 -51 -134.5 -104.5t-46.5 -130.5q0 -78 54 -125t137 -47zM481 918q0 -78 62 -164l16 -23q53 28 85.5 49t65.5 50.5t48.5 66t15.5 80.5q0 63 -33.5 100t-91.5 37q-72 0 -120 -53.5 t-48 -142.5z" />
<glyph unicode="'" horiz-adv-x="335" d="M475 1401l-145 -428h-103l95 428h153z" />
<glyph unicode="(" horiz-adv-x="497" d="M324 588q-18 -151 -17.5 -266t22.5 -213.5t49 -164t62 -116.5l-121 -109q-34 45 -63.5 99t-59 135t-44 172t-19 211t16.5 252q22 162 69.5 306t108.5 250t117.5 180t117.5 132l90 -106q-50 -52 -96 -119.5t-92.5 -160.5t-83.5 -217.5t-57 -264.5z" />
<glyph unicode=")" horiz-adv-x="497" d="M354 784q0 190 -38 337t-95 229l121 106q34 -46 62.5 -99.5t58.5 -134.5t44.5 -171.5t19 -210.5t-16.5 -252q-22 -162 -69.5 -306t-108.5 -250.5t-117.5 -180t-116.5 -132.5l-90 109q63 66 118.5 148.5t109.5 200t86 274.5t32 333z" />
<glyph unicode="*" horiz-adv-x="718" d="M272 909l199 195l-231 43l63 135l191 -133l2 270h131l-84 -272l233 135l27 -135l-250 -43l149 -195l-122 -80l-72 242l-141 -242z" />
<glyph unicode="+" horiz-adv-x="966" d="M702 1055l-53 -383h344l-20 -140h-344l-51 -366h-142l51 366h-342l21 140h342l53 383h141z" />
<glyph unicode="," horiz-adv-x="389" d="M309 86l-2 -16q-15 -125 -92 -212t-192 -110l-17 94q64 15 107 52t55 88q-31 6 -50.5 31t-19.5 59q0 51 35.5 86t85.5 35q43 0 69.5 -31.5t20.5 -75.5z" />
<glyph unicode="-" horiz-adv-x="733" d="M160 399l20 140h525l-21 -140h-524z" />
<glyph unicode="." horiz-adv-x="387" d="M188 -20q-38 0 -64 27t-26 67q0 49 36.5 84t84.5 35q39 0 64.5 -27.5t25.5 -67.5q0 -49 -35.5 -83.5t-85.5 -34.5z" />
<glyph unicode="/" horiz-adv-x="1091" d="M182 -227l-176 -2l1100 1833h172z" />
<glyph unicode="0" horiz-adv-x="1134" d="M563 -29q-131 0 -224 72t-137 189t-44 266q0 201 70 372.5t205.5 278t309.5 106.5q99 0 177 -41t127.5 -112.5t75.5 -166.5t26 -206q0 -149 -42 -286t-116.5 -242t-186 -167.5t-241.5 -62.5zM586 133q116 0 206 82.5t135.5 214t45.5 285.5q0 169 -64.5 275t-187.5 106 q-115 0 -205.5 -83t-137 -215t-46.5 -286q0 -167 65.5 -273t188.5 -106z" />
<glyph unicode="1" horiz-adv-x="575" d="M180 1075l23 154h418l-175 -1229h-167l151 1075h-250z" />
<glyph unicode="2" horiz-adv-x="933" d="M84 0l16 117l527 516q81 79 112 132t31 134q0 85 -50.5 140t-139.5 55q-41 0 -82.5 -12.5t-76 -33.5t-60 -39t-48 -37.5t-24.5 -21.5l-72 135q6 7 18.5 18.5t52.5 40.5t83 51.5t109 41t132 18.5q168 0 257 -89t89 -232q0 -100 -33.5 -182.5t-133.5 -180.5l-424 -417h510 l-23 -154h-770z" />
<glyph unicode="3" horiz-adv-x="929" d="M379 590l18 131l351 354h-502l20 154h725l-18 -135l-365 -365q143 -7 218 -88t75 -219q0 -124 -54 -224.5t-162.5 -162.5t-254.5 -62q-72 0 -133.5 17.5t-98.5 42.5t-64 50t-38 43l-10 17l113 125q3 -6 9 -15t28.5 -32.5t48.5 -41.5t69.5 -33t91.5 -15q125 0 202 76 t77 192q0 92 -55 141.5t-162 49.5h-129z" />
<glyph unicode="4" horiz-adv-x="1046" d="M84 285l18 125l734 819h137l-111 -791h197l-23 -153h-196l-41 -285h-170l41 285h-586zM326 444v-6h366l70 502l-402 -465z" />
<glyph unicode="5" horiz-adv-x="911" d="M934 1075h-485l-56 -334q67 13 133 13q188 0 280.5 -86t92.5 -234q0 -131 -53 -234t-161.5 -165t-256.5 -62q-72 0 -133.5 17.5t-98.5 42.5t-64 50t-38 43l-10 17l113 123q3 -5 9.5 -14.5t29 -32.5t48.5 -41t70 -32.5t92 -14.5q125 0 200 75.5t75 201.5q0 90 -59.5 142 t-176.5 52q-70 0 -133 -13t-89 -23.5t-30 -14.5l-22 22l106 656h637z" />
<glyph unicode="6" horiz-adv-x="987" d="M698 1094q-279 0 -344 -455q119 129 291 129q149 0 239.5 -94.5t90.5 -237.5q0 -122 -60.5 -227t-166 -167t-230.5 -62q-79 0 -142.5 26.5t-113 81.5t-77 149t-27.5 220q0 371 157 583.5t406 212.5q67 0 123.5 -17.5t89 -42t55 -49t31.5 -42.5l8 -17l-115 -127 q-2 2 -13 18.5t-27.5 35t-39.5 38t-58.5 32t-76.5 12.5zM614 616q-102 0 -178.5 -65t-107.5 -174q7 -124 64 -183t147 -59q108 0 185 84.5t77 200.5q0 88 -50.5 142t-136.5 54z" />
<glyph unicode="7" horiz-adv-x="833" d="M203 1075l20 154h758l-16 -117l-641 -1112h-201l629 1075h-549z" />
<glyph unicode="8" d="M487 -29q-171 0 -264.5 93t-93.5 235q0 114 55 202.5t156 143.5q-50 36 -76 95t-26 128q0 164 117.5 275.5t312.5 111.5q159 0 244 -83t85 -216q0 -97 -46 -177.5t-130 -135.5q60 -38 92.5 -103t32.5 -147q0 -83 -32 -159t-90 -134.5t-145.5 -93.5t-191.5 -35zM770 377 q0 86 -52.5 139t-146.5 53q-118 0 -192 -72.5t-74 -177.5q0 -84 55 -138t150 -54q114 0 187 72.5t73 177.5zM592 709q108 0 168.5 64.5t60.5 158.5q0 73 -44.5 120.5t-129.5 47.5q-109 0 -173 -65t-64 -156q0 -74 47 -122t135 -48z" />
<glyph unicode="9" horiz-adv-x="980" d="M473 131q130 0 217 112t111 349q-116 -129 -289 -129q-149 0 -239.5 95t-90.5 239q0 185 134.5 320.5t322.5 135.5q162 0 261 -116.5t99 -362.5q0 -368 -150 -585.5t-396 -217.5q-68 0 -125 17.5t-90 42t-55.5 49t-30.5 42.5l-9 17l117 127q39 -65 89 -100t124 -35z M545 614q99 0 173 64t107 172q-10 125 -64 185.5t-140 60.5q-110 0 -187.5 -84.5t-77.5 -200.5q0 -87 51 -142t138 -55z" />
<glyph unicode=":" horiz-adv-x="413" d="M315 662q-43 0 -69.5 30t-20.5 74t42 76t79 32q44 0 69 -31.5t19 -76.5q-6 -44 -40.5 -74t-78.5 -30zM223 0q-43 0 -69.5 30t-20.5 74t41 76.5t78 32.5q44 0 70 -32t20 -77q-6 -44 -40.5 -74t-78.5 -30z" />
<glyph unicode=";" horiz-adv-x="442" d="M39 -158q63 15 105.5 52t52.5 88q-34 8 -53 37t-15 67q6 44 42 75.5t79 31.5q44 0 69 -31t19 -76l-2 -16q-17 -126 -93 -212.5t-192 -109.5zM315 662q-43 0 -69.5 30t-20.5 74t42 76t79 32q44 0 69 -31.5t19 -76.5q-6 -44 -40.5 -74t-78.5 -30z" />
<glyph unicode="&#x3c;" horiz-adv-x="696" d="M145 567l13 90l565 390l-25 -177l-374 -258l301 -258l-25 -176z" />
<glyph unicode="=" horiz-adv-x="870" d="M213 725l18 139h650l-19 -139h-649zM158 334l20 139h649l-20 -139h-649z" />
<glyph unicode="&#x3e;" horiz-adv-x="696" d="M723 657l-12 -90l-566 -389l25 176l375 258l-301 258l24 177z" />
<glyph unicode="?" horiz-adv-x="794" d="M270 1006l-55 139q5 4 15 11.5t42 26.5t67.5 33.5t89 26.5t108.5 12q152 0 239.5 -75t87.5 -205q0 -68 -18.5 -125.5t-49 -97.5t-68 -74.5t-76.5 -64t-73 -59t-59.5 -67t-34.5 -79.5l-10 -52h-125l10 76q9 65 45.5 122t81.5 98.5t89.5 82t74 91t29.5 108.5 q0 73 -46.5 116.5t-127.5 43.5q-59 0 -118 -22t-88 -44zM270 82q0 52 37.5 88.5t87.5 36.5q41 0 67.5 -28t26.5 -68q0 -52 -38 -89.5t-89 -37.5q-40 0 -66 28t-26 70z" />
<glyph unicode="@" horiz-adv-x="1880" d="M1423 104q-62 0 -107.5 18.5t-70 49.5t-36.5 63t-15 68h-18q-15 -22 -39 -47t-66 -59.5t-102 -57t-125 -22.5q-131 0 -208 86t-77 233q0 123 44 233.5t115.5 185.5t163 119t185.5 44q64 0 111.5 -17.5t73 -46.5t38.5 -55.5t17 -54.5l57 153h129l-125 -510 q-20 -67 -20 -116q0 -64 30 -102t88 -38q55 0 108 36t95.5 100t69 161.5t26.5 210.5q0 100 -22.5 195t-71.5 181.5t-119 151.5t-172.5 103.5t-224.5 38.5q-181 0 -348 -79t-286.5 -208.5t-191 -303t-71.5 -355.5q0 -204 84 -373t234 -267.5t335 -98.5q65 0 130.5 12 t113.5 29t86.5 34t58.5 29l19 12l35 -104q-7 -5 -20.5 -13.5t-59.5 -30.5t-95.5 -39t-127 -30.5t-156.5 -13.5q-138 0 -259 44t-211.5 122t-156 182.5t-98.5 228.5t-33 258q0 210 80.5 408t217 346t329.5 238t407 90q161 0 299 -60.5t232.5 -164.5t147.5 -245t53 -300 q0 -179 -64.5 -329.5t-175 -236.5t-240.5 -86zM907 264q130 0 231 122.5t101 279.5q0 95 -49 149.5t-129 54.5q-121 0 -220.5 -115.5t-99.5 -283.5q0 -98 44.5 -152.5t121.5 -54.5z" />
<glyph unicode="A" horiz-adv-x="1116" d="M811 1229l299 -1229h-176l-62 264h-557l-133 -264h-176l643 1229h162zM702 1024l-311 -610h449z" />
<glyph unicode="B" horiz-adv-x="1128" d="M1102 387q0 -186 -123.5 -286.5t-329.5 -100.5h-506l172 1229h488q166 0 256 -73t90 -210q0 -115 -55.5 -196t-149.5 -119v-6q75 -25 116.5 -86.5t41.5 -151.5zM745 547h-356l-55 -393h340q109 0 180.5 58.5t71.5 166.5q0 74 -51 118.5t-130 49.5zM969 918 q0 157 -191 157h-315l-53 -379h315q107 0 175.5 61t68.5 161z" />
<glyph unicode="C" horiz-adv-x="1046" d="M948 258l78 -131q-6 -6 -17 -16.5t-49 -37.5t-80.5 -47.5t-110.5 -37.5t-140 -17q-148 0 -258.5 73t-167 196t-56.5 278q0 199 85.5 367.5t238.5 269t338 100.5q72 0 134.5 -16t100.5 -38.5t66 -45.5t40 -39l11 -16l-114 -131q-4 5 -10.5 13.5t-31 30.5t-52 39 t-72.5 30.5t-93 13.5q-125 0 -232.5 -76t-169.5 -204t-62 -275q0 -176 90 -293t239 -117q48 0 96 13t82.5 32t62 37.5t40.5 31.5z" />
<glyph unicode="D" horiz-adv-x="1179" d="M1200 711q0 -156 -49.5 -288.5t-137 -225.5t-211 -145t-267.5 -52h-392l172 1229h392q230 0 361.5 -140t131.5 -378zM676 1075h-213l-129 -921h213q98 0 185 37.5t152 104.5t103.5 169t38.5 223q0 181 -96.5 284t-253.5 103z" />
<glyph unicode="E" horiz-adv-x="1013" d="M944 696l-20 -149h-535l-55 -393h629l-23 -154h-797l172 1229h797l-20 -154h-629l-53 -379h534z" />
<glyph unicode="F" horiz-adv-x="995" d="M944 696l-20 -149h-535l-78 -547h-168l172 1229h799l-20 -154h-631l-53 -379h534z" />
<glyph unicode="G" horiz-adv-x="1191" d="M678 532l20 150h535l-14 -102q-39 -279 -198.5 -444t-397.5 -165q-148 0 -257 72.5t-162.5 194.5t-53.5 276q0 202 83.5 371t236 269.5t341.5 100.5q77 0 144 -16.5t107.5 -39.5t70 -46.5t41.5 -40.5l12 -16l-115 -129q-4 5 -11 14t-33.5 31t-57 39t-80 31t-103.5 14 q-97 0 -183 -45.5t-146.5 -122t-95.5 -180t-35 -216.5q0 -175 84.5 -288t234.5 -113q151 0 258.5 106.5t130.5 278.5l2 16h-358z" />
<glyph unicode="H" horiz-adv-x="1210" d="M1239 1229l-172 -1229h-168l76 532h-588l-76 -532h-168l172 1229h168l-75 -547h587l76 547h168z" />
<glyph unicode="I" horiz-adv-x="454" d="M483 1229l-172 -1229h-168l172 1229h168z" />
<glyph unicode="J" horiz-adv-x="821" d="M39 76l100 129q8 -8 22.5 -19.5t61 -31t94.5 -19.5q111 0 177.5 72t87.5 227l112 795h166l-117 -830q-28 -204 -139 -316t-299 -112q-60 0 -110.5 13t-83.5 34.5t-46 32t-24 23.5z" />
<glyph unicode="K" horiz-adv-x="1083" d="M483 1229l-88 -635l633 635h197l-2 -25l-492 -487l334 -692l-4 -25h-184q-189 396 -279 584l-238 -238l-49 -346h-168l172 1229h168z" />
<glyph unicode="L" horiz-adv-x="919" d="M872 0h-729l172 1229h168l-149 -1075h561z" />
<glyph unicode="M" horiz-adv-x="1353" d="M1044 0l127 897l-407 -479h-53l-275 473l-125 -891h-168l172 1229h121l332 -590l494 590h120l-172 -1229h-166z" />
<glyph unicode="N" horiz-adv-x="1243" d="M1272 1229l-172 -1229h-121l-539 913l-129 -913h-168l172 1227v2h123l539 -912l127 912h168z" />
<glyph unicode="O" horiz-adv-x="1261" d="M625 -29q-147 0 -256 73t-164 196t-55 278q0 199 84 367.5t235.5 269t335.5 100.5q148 0 258 -72.5t165.5 -195t55.5 -278.5q0 -148 -50 -283.5t-136 -235.5t-209.5 -159.5t-263.5 -59.5zM647 133q129 0 236 76t167 203.5t60 275.5q0 177 -88 292.5t-240 115.5 q-127 0 -232.5 -76.5t-164.5 -205t-59 -277.5q0 -175 86.5 -289.5t234.5 -114.5z" />
<glyph unicode="P" horiz-adv-x="1081" d="M143 0l172 1229h457q177 0 277 -91t100 -255q0 -227 -139 -357.5t-363 -130.5h-280l-56 -395h-168zM975 858q0 106 -62 161.5t-170 55.5h-280l-74 -526h281q142 0 223.5 77t81.5 232z" />
<glyph unicode="Q" horiz-adv-x="1261" d="M625 -29q-147 0 -256 73t-164 196t-55 278q0 199 84 367.5t235.5 269t335.5 100.5q148 0 258 -72.5t165.5 -195t55.5 -278.5q0 -214 -101 -391.5t-272 -272.5l121 -287h-190l-92 228q-77 -15 -125 -15zM647 133q129 0 236 76t167 203.5t60 275.5q0 177 -88 292.5 t-240 115.5q-127 0 -232.5 -76.5t-164.5 -205t-59 -277.5q0 -175 86.5 -289.5t234.5 -114.5z" />
<glyph unicode="R" horiz-adv-x="1120" d="M315 1229h455q179 0 279 -91t100 -255q0 -165 -80.5 -279.5t-218.5 -165.5l-2 -10l213 -395l-4 -33h-180l-220 408h-288l-58 -408h-168zM973 860q0 105 -61.5 160t-168.5 55h-280l-74 -516h293q131 0 211 77.5t80 223.5z" />
<glyph unicode="S" horiz-adv-x="960" d="M86 121l111 127q4 -5 12.5 -13t37 -28.5t60.5 -36t84 -28.5t107 -13q133 0 199.5 61t66.5 162q0 66 -51 110.5t-189 90.5q-172 59 -247.5 130t-75.5 187q0 174 122.5 279.5t335.5 105.5q76 0 141 -12.5t103.5 -30.5t66.5 -36t39 -30l11 -13l-109 -140l-11 11t-32 25.5 t-54 32t-77 25t-100 11.5q-114 0 -184 -53.5t-70 -147.5q0 -59 51.5 -99t188.5 -85q178 -57 251.5 -134t73.5 -194q0 -180 -124.5 -297t-344.5 -117q-79 0 -148.5 15.5t-112.5 37.5t-74.5 44t-44.5 38z" />
<glyph unicode="T" d="M199 1075l22 154h885l-23 -154h-360l-152 -1075h-168l152 1075h-356z" />
<glyph unicode="U" horiz-adv-x="1181" d="M586 -29q-213 0 -316 151t-69 394l100 713h168l-100 -713q-24 -172 36.5 -277.5t202.5 -105.5q144 0 234 105t114 278l101 713h168l-101 -713q-35 -245 -178 -395t-360 -150z" />
<glyph unicode="V" horiz-adv-x="1116" d="M477 0l-299 1229h176l232 -1020l520 1020h176l-643 -1229h-162z" />
<glyph unicode="W" horiz-adv-x="1509" d="M983 0l-96 954l-361 -954h-131l-198 1229h176l121 -950l356 950h151l93 -950l387 950h176l-543 -1229h-131z" />
<glyph unicode="X" horiz-adv-x="1013" d="M1151 1229l-432 -598l274 -631h-205l-178 442l-30 88l-56 -88l-299 -442h-202l446 631l-262 598h203l174 -424l26 -82l49 82l291 424h201z" />
<glyph unicode="Y" horiz-adv-x="993" d="M637 709l332 520h192l-514 -752l-65 -477h-170l65 477l-301 752h195l188 -520l25 -86h4z" />
<glyph unicode="Z" horiz-adv-x="989" d="M918 0h-863l17 117l788 958h-631l23 154h848l-17 -119l-774 -956h629z" />
<glyph unicode="[" horiz-adv-x="616" d="M76 -266l239 1700h473l-20 -140h-311l-199 -1421h311l-20 -139h-473z" />
<glyph unicode="\" horiz-adv-x="690" d="M426 -262l-137 1896h168l137 -1896h-168z" />
<glyph unicode="]" horiz-adv-x="616" d="M-6 -266l20 139h310l198 1421h-309l20 140h474l-240 -1700h-473z" />
<glyph unicode="^" horiz-adv-x="808" d="M725 1018l-141 278l-219 -278h-138l326 401h100l215 -401h-143z" />
<glyph unicode="_" horiz-adv-x="1017" d="M66 -221l20 139h825l-20 -139h-825z" />
<glyph unicode="`" horiz-adv-x="528" d="M408 1018l-129 272l200 31l47 -303h-118z" />
<glyph unicode="a" d="M817 727h8l43 133h113l-121 -860h-112l-7 133h-8q-4 -6 -11.5 -16.5t-34.5 -37t-58.5 -46.5t-84.5 -36.5t-112 -16.5q-139 0 -225 102.5t-86 273.5q0 112 35.5 211t95 167t138 107.5t163.5 39.5q60 0 109.5 -16t77 -38.5t46 -45t24.5 -38.5zM770 485q0 118 -54.5 187 t-142.5 69q-116 0 -198 -104.5t-82 -259.5q0 -115 52.5 -186.5t139.5 -71.5q117 0 201 102t84 264z" />
<glyph unicode="b" horiz-adv-x="974" d="M115 0l174 1239h168l-70 -500h6q3 6 9 15.5t30 34t53 43t78.5 34t106.5 15.5q134 0 218.5 -104.5t84.5 -272.5q0 -114 -35.5 -212.5t-95 -166.5t-138.5 -106.5t-165 -38.5q-60 0 -109 17t-75.5 41t-44.5 47.5t-24 40.5l-5 17h-7l-41 -143h-118zM328 375q0 -118 54 -187 t142 -69q114 0 196.5 105.5t82.5 260.5q0 114 -52.5 185t-138.5 71q-117 0 -200.5 -102t-83.5 -264z" />
<glyph unicode="c" horiz-adv-x="761" d="M461 -20q-158 0 -249 103t-91 273q0 226 133 375.5t334 149.5q49 0 91 -8t66 -19t41.5 -22t23.5 -19l7 -8l-65 -125q-7 7 -20 17t-58 27t-94 17q-121 0 -205 -101.5t-84 -268.5q0 -119 55 -185.5t146 -66.5q49 0 96.5 15t70.5 30l23 16l29 -123q-3 -3 -9 -8.5 t-28.5 -18.5t-49 -23t-70.5 -18.5t-93 -8.5z" />
<glyph unicode="d" d="M791 752h6l69 487h168l-174 -1239h-112l-7 133h-8q-4 -6 -11.5 -16.5t-34.5 -37t-58.5 -46.5t-84.5 -36.5t-112 -16.5q-139 0 -225 102.5t-86 273.5q0 112 35.5 210.5t94.5 167t138 108t164 39.5q55 0 99.5 -13.5t69 -32t41.5 -37.5t23 -32zM770 485q0 118 -54.5 187 t-142.5 69q-116 0 -198 -104.5t-82 -259.5q0 -115 52.5 -186.5t139.5 -71.5q117 0 201 102t84 264z" />
<glyph unicode="e" horiz-adv-x="854" d="M723 195l43 -117q-4 -4 -11.5 -11t-35 -24.5t-59 -30.5t-83.5 -24t-108 -11q-164 0 -256 103t-92 274q0 145 56.5 265.5t159 191t228.5 70.5q167 0 243.5 -119.5t49.5 -308.5l-6 -43h-563q-17 -143 41.5 -218t169.5 -75q60 0 116 19.5t82 39.5zM545 743q-170 0 -234 -211 h391q4 102 -36.5 156.5t-120.5 54.5z" />
<glyph unicode="f" horiz-adv-x="591" d="M725 727h-276l-103 -727h-166l103 727h-195l18 133h195l12 92q19 140 104 221.5t216 81.5q49 0 91.5 -10.5t60.5 -20.5l18 -10l-70 -131q-44 27 -110 27q-56 0 -94 -40t-48 -112l-14 -98h276z" />
<glyph unicode="g" horiz-adv-x="974" d="M864 860h115l-113 -803q-27 -191 -144 -307.5t-302 -116.5q-35 0 -66.5 4t-56.5 11.5t-47 16t-39.5 20t-30.5 21t-24 20.5t-17 18t-12 14.5t-6 8.5l100 108l11 -13q11 -13 28 -26.5t41 -29t59 -25.5t74 -10q112 0 181.5 72t89.5 210l10 92q-14 -19 -32.5 -36.5t-52.5 -40 t-85.5 -36.5t-112.5 -14q-137 0 -223 101.5t-86 263.5q0 108 35.5 202t95.5 158t139.5 101t165.5 37q60 0 109 -16.5t75.5 -39.5t44.5 -46t24 -39l5 -17l-2 -6h4zM492 154q117 0 199.5 95.5t82.5 250.5q0 113 -55.5 177t-145.5 64q-115 0 -196.5 -97t-81.5 -245 q0 -110 54.5 -177.5t142.5 -67.5z" />
<glyph unicode="h" horiz-adv-x="954" d="M117 0l174 1239h168l-66 -461h6q103 103 250 103q149 0 221.5 -107.5t47.5 -284.5l-70 -489h-168l65 469q18 119 -22 194.5t-133 75.5q-91 0 -153.5 -69.5t-78.5 -151.5l-73 -518h-168z" />
<glyph unicode="i" horiz-adv-x="405" d="M348 1036q-40 0 -66 26t-26 66q0 49 36.5 84t86.5 35q38 0 64 -27t26 -67q0 -49 -36.5 -83t-84.5 -34zM119 0l121 860h168l-121 -860h-168z" />
<glyph unicode="j" horiz-adv-x="405" d="M-35 -319l21 139h20q43 0 70 29t33 75l131 936h168l-134 -944q-16 -111 -78 -173t-171 -62h-60zM346 1036q-40 0 -65 26t-25 66q0 48 37 83.5t84 35.5q40 0 66 -27t26 -67q0 -49 -36.5 -83t-86.5 -34z" />
<glyph unicode="k" horiz-adv-x="841" d="M731 860h213l-389 -371l268 -489h-202l-205 375l-92 -86l-41 -289h-166l174 1239h166l-107 -756z" />
<glyph unicode="l" horiz-adv-x="407" d="M121 0l174 1239h166l-174 -1239h-166z" />
<glyph unicode="m" horiz-adv-x="1505" d="M117 0l121 860h112l-2 -125h12q62 75 127.5 110.5t151.5 35.5q97 0 162.5 -42t95.5 -118h6q123 160 297 160q151 0 222 -107t46 -285l-69 -489h-166l65 471q16 120 -23 194t-132 74q-92 0 -152.5 -66.5t-75.5 -152.5l-73 -520h-166l69 500q14 107 -27.5 173t-135.5 66 q-91 0 -151.5 -68.5t-74.5 -150.5l-73 -520h-166z" />
<glyph unicode="n" horiz-adv-x="956" d="M117 0l121 860h112l-2 -125h12q117 146 287 146q151 0 224.5 -108t48.5 -284l-70 -489h-168l66 471q16 118 -25 193t-133 75q-62 0 -114.5 -36t-81 -84t-38.5 -99l-73 -520h-166z" />
<glyph unicode="o" horiz-adv-x="933" d="M934 492q0 -113 -39.5 -210t-105 -162.5t-151 -102.5t-177.5 -37q-151 0 -246.5 103t-95.5 275q0 113 39 211.5t103.5 166t149.5 106.5t177 39q151 0 248.5 -107t97.5 -282zM481 115q117 0 201 102.5t84 265.5q0 119 -55 190.5t-142 71.5q-114 0 -199 -105t-85 -267 q0 -119 54.5 -188.5t141.5 -69.5z" />
<glyph unicode="p" horiz-adv-x="974" d="M305 109h-8l-59 -428h-166l166 1179h112l4 -125h13q4 6 11.5 16t35 35t59.5 44t84 35t109 16q138 0 223.5 -103t85.5 -274q0 -112 -36 -211t-95.5 -167t-137.5 -107t-161 -39q-56 0 -101.5 13.5t-70 32t-41.5 37.5t-22 33zM330 373q0 -117 53.5 -185.5t140.5 -68.5 q116 0 197.5 105t81.5 261q0 114 -52 185t-139 71q-117 0 -199.5 -102t-82.5 -266z" />
<glyph unicode="q" horiz-adv-x="974" d="M981 860l-166 -1179h-168l62 440h-7q-3 -6 -9.5 -15.5t-30 -33.5t-52.5 -43t-78.5 -34t-105.5 -15q-135 0 -220 104t-85 272q0 152 60.5 273.5t160 186.5t217.5 65q60 0 108 -17t74 -41t43.5 -48t23.5 -41l5 -17h8l43 143h117zM770 485q0 118 -55 187t-144 69 q-114 0 -196 -105.5t-82 -260.5q0 -115 52.5 -185.5t139.5 -70.5q117 0 201 102t84 264z" />
<glyph unicode="r" horiz-adv-x="548" d="M645 862l-18 -137h-43q-78 0 -146.5 -64t-85.5 -159l-69 -502h-166l121 860h112l-4 -145h10q42 69 108 108t136 39h45z" />
<glyph unicode="s" horiz-adv-x="776" d="M78 84l84 115q4 -3 11.5 -9t32.5 -20.5t52.5 -25.5t70 -20t85.5 -9q87 0 128.5 35t41.5 90q0 43 -44.5 71.5t-107.5 47.5t-126 43.5t-107.5 74.5t-44.5 125q0 120 87.5 199.5t250.5 79.5q93 0 171.5 -18t110.5 -36l33 -18l-82 -135q-10 8 -29.5 20t-81.5 31.5t-127 19.5 q-168 0 -168 -118q0 -30 24 -51.5t62 -35t83.5 -26.5t91.5 -31t84 -42.5t62 -67.5t24 -101t-20 -109t-61 -93t-111 -66t-163 -24q-64 0 -120.5 10.5t-91 26t-59.5 31t-36 26.5z" />
<glyph unicode="t" horiz-adv-x="618" d="M147 860h144l37 262h168l-37 -262h219l-19 -133h-219l-67 -475q-18 -129 86 -129q24 0 51.5 9.5t43.5 18.5l15 9l37 -119q-92 -61 -192 -61q-125 0 -176 71t-33 199l67 477h-143z" />
<glyph unicode="u" horiz-adv-x="952" d="M956 860l-120 -860h-109l-12 121h-6q-115 -141 -287 -141q-152 0 -221.5 97.5t-44.5 272.5l71 510h168l-71 -500q-31 -239 155 -239q95 0 157 59t77 139l78 541h165z" />
<glyph unicode="v" horiz-adv-x="856" d="M963 860l-478 -860h-116l-236 860h186l125 -604q9 -41 7 -59h8q2 13 22 59l299 604h183z" />
<glyph unicode="w" horiz-adv-x="1228" d="M311 0l-168 860h174l78 -604q6 -27 2 -59h17q0 2 20 61l234 602h141l61 -604q4 -40 2 -59h17q3 26 18 59l254 604h166l-409 -860h-144l-63 592q0 6 -0.5 21t-0.5 26.5t1 17.5h-11q-2 -16 -22 -65l-225 -592h-142z" />
<glyph unicode="x" horiz-adv-x="825" d="M25 0l350 446l-213 414h190l137 -309h7l223 309h190l-334 -414l230 -446h-191l-149 342h-6l-246 -342h-188z" />
<glyph unicode="y" horiz-adv-x="946" d="M786 860h166l-118 -831q-24 -178 -134.5 -287t-289.5 -109q-34 0 -65.5 4t-57 11.5t-47.5 16t-39.5 20t-31 21t-25 21t-17.5 18t-12 14.5l-6 8l102 108l11 -13q11 -13 28 -26.5t41 -29t59 -25.5t74 -10q104 0 165 65.5t79 188.5l14 104q-39 -44 -105.5 -77.5 t-142.5 -33.5q-162 0 -232.5 96t-45.5 273l67 473h168l-65 -457q-32 -243 153 -243q95 0 157.5 57t78.5 137z" />
<glyph unicode="z" horiz-adv-x="792" d="M727 0h-670l11 76l546 647h-446l20 137h660l-12 -80l-523 -643h432z" />
<glyph unicode="{" horiz-adv-x="540" d="M119 657h49q120 0 147 189l50 346q36 252 297 272l4 -141q-61 -9 -90 -39.5t-39 -107.5l-48 -345q-28 -193 -151 -237l-2 -19q54 -20 75 -80.5t9 -150.5l-49 -350q-10 -74 10.5 -105.5t77.5 -40.5l-45 -139q-255 17 -219 271l49 346q27 192 -97 192h-49z" />
<glyph unicode="|" horiz-adv-x="380" d="M467 1407l-236 -1669h-155l235 1669h156z" />
<glyph unicode="}" horiz-adv-x="540" d="M559 657h49l-20 -139h-49q-123 0 -150 -192l-49 -346q-36 -254 -295 -271l-6 139q62 9 90.5 40t38.5 106l49 350q12 89 51.5 150t100.5 81l2 19q-114 45 -86 237l49 345q10 77 -9.5 107.5t-78.5 39.5l47 141q253 -20 217 -272l-49 -346q-27 -189 98 -189z" />
<glyph unicode="~" horiz-adv-x="903" d="M680 649q38 0 78 12.5t61 25.5l21 13l41 -102q-4 -3 -10.5 -8.5t-29 -19.5t-46.5 -24.5t-59.5 -19t-71.5 -8.5q-53 0 -129.5 33t-137.5 33q-37 0 -77 -12t-61 -24l-21 -13l-39 100q10 9 29 22.5t75 35.5t111 22q53 0 129 -33t137 -33z" />
<glyph unicode="&#xa1;" horiz-adv-x="387" d="M324 508l-80 -870h-205l168 870h117zM193 754q0 54 36.5 91.5t87.5 37.5q40 0 67.5 -29t27.5 -72q0 -51 -38.5 -89t-86.5 -38q-40 0 -67 29t-27 70z" />
<glyph unicode="&#xa2;" horiz-adv-x="796" d="M336 0l45 176q-106 34 -166.5 131.5t-60.5 233.5q0 218 131.5 366t326.5 154l45 168h103l-49 -176q44 -9 81.5 -26t52.5 -29l15 -13l-65 -125q-45 41 -119 55l-160 -616h19q48 0 95.5 15.5t71.5 30.5l23 15l25 -124q-4 -3 -11 -8t-31 -18.5t-50.5 -23.5t-69 -18t-86.5 -8 h-23l-41 -160h-102zM326 555q0 -77 25.5 -136t70.5 -89l153 588q-106 -23 -177.5 -121.5t-71.5 -241.5z" />
<glyph unicode="&#xa3;" horiz-adv-x="933" d="M860 154l-22 -154h-719l22 154h2l-2 2q6 2 15.5 7t34 24t43 43.5t34 68t15.5 94.5q0 31 -13 142h-114l18 129h82q-4 54 -4 102q0 130 55.5 237.5t165 173.5t252.5 66q60 0 112.5 -13t84.5 -31.5t55.5 -37.5t32.5 -32l10 -13l-119 -131q-2 4 -7 10.5t-22.5 23t-38 29 t-55.5 23t-73 10.5q-128 0 -197.5 -90.5t-69.5 -236.5q0 -40 4 -90h377l-18 -129h-344q6 -59 6 -119q0 -144 -98 -262h495z" />
<glyph unicode="&#xa5;" horiz-adv-x="1093" d="M688 709l332 520h192l-434 -633h244l-18 -129h-308l-22 -162h307l-18 -127h-306l-24 -178h-170l24 178h-305l19 127h303l22 162h-303l19 129h239l-254 633h195l188 -520l25 -86h4z" />
<glyph unicode="&#xa6;" horiz-adv-x="399" d="M371 676h-154l98 702h154zM231 -313h-153l98 702h154z" />
<glyph unicode="&#xa7;" horiz-adv-x="970" d="M80 92l104 131q5 -4 14 -10.5t40 -23.5t64.5 -30t87 -23.5t108.5 -10.5q123 0 181 35t58 96q0 50 -44 77.5t-175 76.5q-130 43 -202 97t-72 134q0 103 90 158q-98 63 -98 166q0 128 112.5 209t325.5 81q73 0 136.5 -10t102.5 -24t67.5 -28t39.5 -24l12 -10l-104 -133 q-4 3 -11 9t-32.5 20.5t-54.5 25.5t-77 20t-100 9q-223 0 -223 -129q0 -49 42 -79t138 -60q67 -22 119 -45t98.5 -53t71.5 -68t25 -82q0 -59 -28.5 -101.5t-61.5 -64.5q98 -72 98 -168q0 -119 -116 -203t-335 -84q-79 0 -149 12.5t-114 30t-77 34.5t-47 30zM537 715l-78 24 q-47 -21 -47 -75q0 -36 45.5 -66.5t136.5 -60.5q65 -22 117 -43q1 1 5 5.5t6 7t6.5 8t7 10t5.5 10.5t4.5 12t3 13.5t1.5 14.5q0 41 -53.5 74t-159.5 66z" />
<glyph unicode="&#xa8;" horiz-adv-x="864" d="M383 1448q0 45 35 80t76 35q35 0 60.5 -27.5t25.5 -65.5q0 -44 -36.5 -79t-78.5 -35q-34 0 -58 27.5t-24 64.5zM700 1448q0 45 34.5 80t76.5 35q35 0 60.5 -27.5t25.5 -65.5q0 -44 -36.5 -79t-78.5 -35q-35 0 -58.5 27.5t-23.5 64.5z" />
<glyph unicode="&#xa9;" horiz-adv-x="1275" d="M813 1239q151 0 261 -72t164 -191.5t54 -270.5q0 -142 -48 -272.5t-132.5 -229t-208 -157t-266.5 -58.5q-150 0 -260.5 72t-165.5 192t-55 270q0 191 82 354.5t234 263t341 99.5zM801 1153q-161 0 -289.5 -86t-197 -228t-68.5 -309q0 -128 45 -230t138 -164t220 -62 q160 0 288.5 86.5t197.5 227.5t69 306q0 130 -45 232.5t-138 164.5t-220 62zM963 868l-70 -90q-4 6 -13 16t-40.5 26t-67.5 16q-94 0 -155.5 -75t-61.5 -181q0 -80 42 -132.5t114 -52.5q36 0 70.5 14t50.5 28l16 14l45 -89q-3 -3 -8.5 -8t-24.5 -18t-40.5 -23t-56.5 -18 t-73 -8q-121 0 -187.5 77.5t-66.5 200.5q0 158 96.5 268.5t249.5 110.5q38 0 70.5 -8t52 -19t33.5 -22t20 -19z" />
<glyph unicode="&#xaa;" horiz-adv-x="741" d="M170 735q0 108 80.5 174t208.5 66q132 0 172 -60l4 27q16 105 -10.5 154t-118.5 49q-19 0 -40.5 -3t-38.5 -7t-36 -10.5t-29 -10.5t-23.5 -10t-14.5 -6l-23 106q14 6 37 15t86.5 23.5t116.5 14.5q148 0 197 -81t26 -238l-53 -377h-95l-10 76h-8q-66 -92 -223 -92 q-92 0 -148.5 52.5t-56.5 137.5zM301 748q0 -50 33 -78.5t94 -28.5q66 0 118.5 35t61.5 82l2 10q9 53 -30.5 84t-108.5 31q-81 0 -125.5 -36.5t-44.5 -98.5z" />
<glyph unicode="&#xab;" horiz-adv-x="884" d="M129 403l6 48l287 385h141l-4 -21l-278 -381l-2 -12l172 -385l-5 -21h-141zM498 403l6 48l287 385h141l-4 -21l-279 -381l-2 -12l172 -385l-4 -21h-141z" />
<glyph unicode="&#xac;" horiz-adv-x="1019" d="M164 569l20 140h820l-101 -709h-139l80 569h-680z" />
<glyph unicode="&#xad;" horiz-adv-x="733" d="M160 399l20 140h525l-21 -140h-524z" />
<glyph unicode="&#xae;" horiz-adv-x="1013" d="M1044 848q0 -108 -36.5 -207.5t-100.5 -174.5t-158 -120t-202 -45q-168 0 -263.5 116.5t-95.5 291.5q0 145 60.5 269t175 200.5t258.5 76.5q169 0 265.5 -115.5t96.5 -291.5zM954 838q0 144 -76.5 236.5t-207.5 92.5q-168 0 -281 -128t-113 -320q0 -143 77 -236.5 t206 -93.5q168 0 281.5 131t113.5 318zM487 993h175q66 0 103.5 -34t37.5 -93q0 -99 -94 -145v-2l59 -119l-4 -20h-82l-57 120h-101l-18 -120h-78zM647 915h-94l-18 -139h94q38 0 63 22t25 60q0 57 -70 57z" />
<glyph unicode="&#xaf;" horiz-adv-x="991" d="M418 1368l14 109h563l-14 -109h-563z" />
<glyph unicode="&#xb0;" horiz-adv-x="548" d="M467 1376q84 0 134 -54t50 -136q0 -104 -70 -177t-175 -73q-84 0 -133.5 53t-49.5 137q0 103 70.5 176.5t173.5 73.5zM455 1286q-57 0 -95 -44t-38 -105q0 -46 26 -77.5t72 -31.5q56 0 94.5 43.5t38.5 104.5q0 47 -26.5 78.5t-71.5 31.5z" />
<glyph unicode="&#xb1;" horiz-adv-x="968" d="M606 354h-139l49 342h-309l18 138h310l49 352h139l-49 -352h303l-19 -138h-303zM891 213l-21 -139h-751l20 139h752z" />
<glyph unicode="&#xb2;" horiz-adv-x="636" d="M193 700l14 99l289 245q42 36 59.5 68t17.5 76q0 90 -92 90q-35 0 -74 -17t-58 -31.5t-30 -25.5l-49 90q4 4 11 10t31 22t49 28t63 22t76 10q100 0 148 -50.5t48 -131.5q0 -77 -26.5 -126t-83.5 -95l-213 -180h280l-14 -103h-446z" />
<glyph unicode="&#xb3;" horiz-adv-x="616" d="M272 1266l15 102h422l-13 -78l-157 -186q133 -24 133 -164q0 -109 -73.5 -182.5t-205.5 -73.5q-129 0 -211 90l-2 2l76 86q1 -2 7 -9t19.5 -18.5t30.5 -21.5t42 -17.5t51 -7.5q70 0 108.5 40.5t38.5 97.5q0 43 -25 67.5t-75 24.5h-72l8 69l150 179h-267z" />
<glyph unicode="&#xb4;" horiz-adv-x="530" d="M580 1288l-215 -270h-117l137 297z" />
<glyph unicode="&#xb5;" horiz-adv-x="948" d="M238 -262h-166l78 557q0 1 2 22.5t4 32.5l71 510h168l-71 -500q-31 -239 155 -239q95 0 157 59t77 139l78 541h165l-120 -860h-109l-12 121h-6q-115 -141 -287 -141q-84 0 -150 32z" />
<glyph unicode="&#xb6;" horiz-adv-x="997" d="M678 -168l59 418h-104q-214 0 -345.5 111.5t-131.5 316.5q0 132 47 238.5t130 174.5t193.5 104t239.5 36h276l-196 -1399h-168z" />
<glyph unicode="&#xb7;" horiz-adv-x="399" d="M195 723q0 50 38 88.5t84 38.5q42 0 69.5 -29t27.5 -71q0 -51 -37.5 -89t-89.5 -38q-39 0 -65.5 29t-26.5 71z" />
<glyph unicode="&#xb8;" horiz-adv-x="385" d="M121 -135l-25 37l62 104h86l-37 -69q44 -2 72 -30.5t28 -80.5q0 -73 -46 -119.5t-126 -46.5q-44 0 -78 15t-47 29l-12 15l51 64q1 -1 10 -8t18.5 -14t27.5 -13t38 -6q38 0 59 21t21 55q0 51 -63 51z" />
<glyph unicode="&#xb9;" horiz-adv-x="395" d="M223 1266l15 102h237l-94 -668h-115l80 566h-123z" />
<glyph unicode="&#xba;" horiz-adv-x="751" d="M551 1255q119 0 191.5 -81t72.5 -218q0 -178 -105 -291.5t-259 -113.5q-117 0 -190 81t-73 214q0 181 105 295t258 114zM535 1141q-93 0 -154.5 -79.5t-61.5 -203.5q0 -88 39.5 -140t108.5 -52q95 0 156 79t61 203q0 89 -39 141t-110 52z" />
<glyph unicode="&#xbb;" horiz-adv-x="882" d="M510 451l-6 -48l-287 -387h-143l2 21l280 385l2 12l-172 381l2 21h144zM877 451l-7 -48l-286 -387h-144l2 21l283 385l2 12l-174 381l2 21h143z" />
<glyph unicode="&#xbc;" horiz-adv-x="1179" d="M197 0h-140l1043 1229h143zM612 172l11 74l389 422h88l-56 -398h109l-14 -98h-109l-24 -172h-111l25 172h-308zM238 1126l14 103h240l-93 -668h-116l77 565h-122zM823 330l-63 -66l76 6h98l22 172l9 56h-2z" />
<glyph unicode="&#xbd;" horiz-adv-x="1288" d="M197 0h-140l1043 1229h143zM788 98l-14 -98h445l14 102h-281l213 181q59 46 86 95t27 126q0 81 -49.5 131.5t-149.5 50.5q-37 0 -74 -9.5t-63.5 -23t-47.5 -27t-32 -22.5l-10 -10l49 -90q11 11 30 25.5t57.5 31.5t72.5 17q92 0 92 -91q0 -43 -18 -75t-60 -68zM244 1126 l14 103h238l-93 -668h-114l78 565h-123z" />
<glyph unicode="&#xbe;" horiz-adv-x="1316" d="M352 0h-139l1044 1229h142zM246 1126l14 103h422l-12 -78l-158 -186q133 -24 133 -164q0 -109 -73 -182.5t-205 -73.5q-129 0 -211 90l-2 2l75 86q1 -2 7 -9t19.5 -18.5t30.5 -21.5t42 -17.5t51 -7.5q70 0 108.5 40.5t38.5 96.5q0 43 -25.5 68t-74.5 25h-72l8 69l150 178 h-266zM754 172l10 74l389 422h88l-55 -398h108l-14 -98h-109l-24 -172h-111l25 172h-307zM965 330l-64 -66l76 6h98l23 172l8 56h-2z" />
<glyph unicode="&#xbf;" horiz-adv-x="782" d="M643 -135l55 -137q-5 -5 -14.5 -12.5t-42 -27t-67.5 -34.5t-88.5 -27t-108.5 -12q-153 0 -241.5 75.5t-88.5 207.5q0 68 18.5 125t49 97.5t67.5 74.5t76.5 64t73.5 59t60.5 66.5t35.5 78.5l12 53h121l-10 -78q-7 -55 -34.5 -105t-62.5 -84t-74.5 -71.5t-72.5 -70 t-54.5 -77t-21.5 -93.5q0 -72 47.5 -116t129.5 -44q58 0 117 22t89 44zM641 788q0 -52 -36.5 -88t-86.5 -36q-40 0 -67 28.5t-27 69.5q0 51 37.5 89t87.5 38q39 0 65.5 -29.5t26.5 -71.5z" />
<glyph unicode="&#xc0;" horiz-adv-x="1116" d="M811 1229l299 -1229h-176l-62 264h-557l-133 -264h-176l643 1229h162zM702 1024l-311 -610h449zM678 1300l-129 273l201 31l47 -304h-119z" />
<glyph unicode="&#xc1;" horiz-adv-x="1116" d="M811 1229l299 -1229h-176l-62 264h-557l-133 -264h-176l643 1229h162zM702 1024l-311 -610h449zM1018 1571l-215 -271h-117l137 297z" />
<glyph unicode="&#xc2;" horiz-adv-x="1116" d="M811 1229l299 -1229h-176l-62 264h-557l-133 -264h-176l643 1229h162zM702 1024l-311 -610h449zM844 1356l-76 127l-115 -127h-139l201 233h133l137 -233h-141z" />
<glyph unicode="&#xc3;" horiz-adv-x="1116" d="M811 1229l299 -1229h-176l-62 264h-557l-133 -264h-176l643 1229h162zM702 1024l-311 -610h449zM899 1358q-40 0 -78.5 17.5t-64 38.5t-55.5 38.5t-56 17.5q-60 0 -90 -81l-12 -33l-117 12l18 57q58 177 201 177q39 0 76.5 -18t62 -39.5t55 -39.5t56.5 -18q38 0 59 22.5 t35 63.5l10 31l117 -13l-16 -55q-24 -78 -75 -128t-126 -50z" />
<glyph unicode="&#xc4;" horiz-adv-x="1116" d="M811 1229l299 -1229h-176l-62 264h-557l-133 -264h-176l643 1229h162zM702 1024l-311 -610h449zM506 1448q0 45 34.5 80t75.5 35q35 0 60.5 -27.5t25.5 -65.5q0 -44 -36 -79t-78 -35q-34 0 -58 27.5t-24 64.5zM823 1448q0 45 34.5 80t76.5 35q35 0 60.5 -27.5t25.5 -65.5 q0 -44 -36.5 -79t-78.5 -35q-35 0 -58.5 27.5t-23.5 64.5z" />
<glyph unicode="&#xc5;" horiz-adv-x="1116" d="M811 1229l299 -1229h-176l-62 264h-557l-133 -264h-176l643 1229h162zM702 1024l-311 -610h449zM559 1440q11 80 73 130t154 50q89 0 138.5 -50t38.5 -130q-12 -80 -75.5 -130t-152.5 -50q-92 0 -140 50t-36 130zM860 1440q5 40 -17.5 62t-68.5 22t-77 -22.5t-35 -61.5 q-6 -41 17.5 -62.5t70.5 -21.5q46 0 75 21.5t35 62.5z" />
<glyph unicode="&#xc6;" horiz-adv-x="1650" d="M-16 0l938 1229h827l-20 -154h-635l-54 -379h535l-23 -151h-534l-53 -391h634l-22 -154h-803l37 266h-428l-193 -266h-206zM899 973l-403 -555h338l77 555h-12z" />
<glyph unicode="&#xc7;" horiz-adv-x="1046" d="M530 -135l-24 37l43 75q-187 27 -294.5 176.5t-107.5 364.5q0 199 85.5 367.5t238.5 269t338 100.5q72 0 134.5 -16t100.5 -38.5t66 -45.5t40 -39l11 -16l-114 -131q-4 5 -10.5 13.5t-31 30.5t-52 39t-72.5 30.5t-93 13.5q-125 0 -232.5 -76t-169.5 -204t-62 -275 q0 -176 90 -293t239 -117q48 0 96 13t82.5 32t62 37.5t40.5 31.5l14 13l78 -131l-16.5 -16.5t-48.5 -37t-80 -47t-108.5 -37.5t-137.5 -18l-19 -34q44 -2 72.5 -30.5t28.5 -80.5q0 -73 -46 -119.5t-126 -46.5q-44 0 -78 15t-47 29l-12 15l51 64q1 -1 10 -8t18.5 -14 t27.5 -13t38 -6q38 0 59 21t21 55q0 24 -17 37.5t-47 13.5z" />
<glyph unicode="&#xc8;" horiz-adv-x="1013" d="M944 696l-20 -149h-535l-55 -393h629l-23 -154h-797l172 1229h797l-20 -154h-629l-53 -379h534zM686 1300l-129 273l201 31l47 -304h-119z" />
<glyph unicode="&#xc9;" horiz-adv-x="1013" d="M999 1571l-215 -271h-116l137 297zM944 696l-20 -149h-535l-55 -393h629l-23 -154h-797l172 1229h797l-20 -154h-629l-53 -379h534z" />
<glyph unicode="&#xca;" horiz-adv-x="1013" d="M842 1356l-76 127l-115 -127h-139l201 233h133l137 -233h-141zM944 696l-20 -149h-535l-55 -393h629l-23 -154h-797l172 1229h797l-20 -154h-629l-53 -379h534z" />
<glyph unicode="&#xcb;" horiz-adv-x="1013" d="M498 1448q0 45 34.5 80t75.5 35q35 0 60.5 -27.5t25.5 -65.5q0 -44 -36 -79t-78 -35q-34 0 -58 27.5t-24 64.5zM815 1448q0 45 34.5 80t76.5 35q35 0 60.5 -27.5t25.5 -65.5q0 -44 -36.5 -79t-78.5 -35q-35 0 -58.5 27.5t-23.5 64.5zM944 696l-20 -149h-535l-55 -393h629 l-23 -154h-797l172 1229h797l-20 -154h-629l-53 -379h534z" />
<glyph unicode="&#xcc;" horiz-adv-x="454" d="M483 1229l-172 -1229h-168l172 1229h168zM344 1300l-129 273l201 31l47 -304h-119z" />
<glyph unicode="&#xcd;" horiz-adv-x="454" d="M483 1229l-172 -1229h-168l172 1229h168zM686 1571l-215 -271h-117l138 297z" />
<glyph unicode="&#xce;" horiz-adv-x="454" d="M483 1229l-172 -1229h-168l172 1229h168zM514 1356l-76 127l-114 -127h-140l201 233h133l137 -233h-141z" />
<glyph unicode="&#xcf;" horiz-adv-x="454" d="M483 1229l-172 -1229h-168l172 1229h168zM176 1448q0 45 35 80t76 35q35 0 60.5 -27.5t25.5 -65.5q0 -44 -36.5 -79t-78.5 -35q-34 0 -58 27.5t-24 64.5zM494 1448q0 45 34 80t76 35q35 0 60.5 -27.5t25.5 -65.5q0 -44 -36.5 -79t-78.5 -35q-35 0 -58 27t-23 65z" />
<glyph unicode="&#xd0;" horiz-adv-x="1181" d="M115 545l22 153h103l75 531h392q230 0 361.5 -140t131.5 -378q0 -156 -49.5 -288.5t-137 -225.5t-211 -145t-267.5 -52h-392l76 545h-104zM676 1075h-213l-53 -377h305l-23 -153h-305l-53 -391h213q98 0 185 37.5t152 104.5t103.5 169t38.5 223q0 181 -96.5 284 t-253.5 103z" />
<glyph unicode="&#xd1;" horiz-adv-x="1243" d="M1272 1229l-172 -1229h-121l-539 913l-129 -913h-168l172 1227v2h123l539 -912l127 912h168zM963 1358q-40 0 -78.5 17.5t-64 38.5t-55.5 38.5t-56 17.5q-61 0 -91 -81l-12 -33l-117 12l19 57q58 177 201 177q39 0 76 -18t61.5 -39.5t55 -39.5t56.5 -18q66 0 95 86l10 31 l117 -13l-17 -55q-24 -78 -74.5 -128t-125.5 -50z" />
<glyph unicode="&#xd2;" horiz-adv-x="1261" d="M625 -29q-147 0 -256 73t-164 196t-55 278q0 199 84 367.5t235.5 269t335.5 100.5q148 0 258 -72.5t165.5 -195t55.5 -278.5q0 -148 -50 -283.5t-136 -235.5t-209.5 -159.5t-263.5 -59.5zM647 133q129 0 236 76t167 203.5t60 275.5q0 177 -88 292.5t-240 115.5 q-127 0 -232.5 -76.5t-164.5 -205t-59 -277.5q0 -175 86.5 -289.5t234.5 -114.5zM764 1356l-129 272l201 31l47 -303h-119z" />
<glyph unicode="&#xd3;" horiz-adv-x="1261" d="M1087 1626l-215 -270h-116l137 297zM625 -29q-147 0 -256 73t-164 196t-55 278q0 199 84 367.5t235.5 269t335.5 100.5q148 0 258 -72.5t165.5 -195t55.5 -278.5q0 -148 -50 -283.5t-136 -235.5t-209.5 -159.5t-263.5 -59.5zM647 133q129 0 236 76t167 203.5t60 275.5 q0 177 -88 292.5t-240 115.5q-127 0 -232.5 -76.5t-164.5 -205t-59 -277.5q0 -175 86.5 -289.5t234.5 -114.5z" />
<glyph unicode="&#xd4;" horiz-adv-x="1261" d="M918 1356l-76 127l-115 -127h-139l200 233h134l137 -233h-141zM625 -29q-147 0 -256 73t-164 196t-55 278q0 199 84 367.5t235.5 269t335.5 100.5q148 0 258 -72.5t165.5 -195t55.5 -278.5q0 -148 -50 -283.5t-136 -235.5t-209.5 -159.5t-263.5 -59.5zM647 133 q129 0 236 76t167 203.5t60 275.5q0 177 -88 292.5t-240 115.5q-127 0 -232.5 -76.5t-164.5 -205t-59 -277.5q0 -175 86.5 -289.5t234.5 -114.5z" />
<glyph unicode="&#xd5;" horiz-adv-x="1261" d="M625 -29q-147 0 -256 73t-164 196t-55 278q0 199 84 367.5t235.5 269t335.5 100.5q148 0 258 -72.5t165.5 -195t55.5 -278.5q0 -148 -50 -283.5t-136 -235.5t-209.5 -159.5t-263.5 -59.5zM647 133q129 0 236 76t167 203.5t60 275.5q0 177 -88 292.5t-240 115.5 q-127 0 -232.5 -76.5t-164.5 -205t-59 -277.5q0 -175 86.5 -289.5t234.5 -114.5zM965 1358q-40 0 -78.5 17.5t-64 38.5t-55.5 38.5t-56 17.5q-60 0 -90 -81l-13 -33l-116 12l18 57q58 177 201 177q39 0 76.5 -18t62 -39.5t55 -39.5t56.5 -18q38 0 59 22.5t35 63.5l10 31 l117 -13l-17 -55q-24 -78 -74.5 -128t-125.5 -50z" />
<glyph unicode="&#xd6;" horiz-adv-x="1261" d="M580 1448q0 45 34.5 80t75.5 35q35 0 60.5 -27.5t25.5 -65.5q0 -44 -36 -79t-78 -35q-34 0 -58 27.5t-24 64.5zM897 1448q0 45 34.5 80t76.5 35q35 0 60.5 -27.5t25.5 -65.5q0 -44 -36.5 -79t-78.5 -35q-35 0 -58.5 27.5t-23.5 64.5zM625 -29q-147 0 -256 73t-164 196 t-55 278q0 199 84 367.5t235.5 269t335.5 100.5q148 0 258 -72.5t165.5 -195t55.5 -278.5q0 -148 -50 -283.5t-136 -235.5t-209.5 -159.5t-263.5 -59.5zM647 133q129 0 236 76t167 203.5t60 275.5q0 177 -88 292.5t-240 115.5q-127 0 -232.5 -76.5t-164.5 -205t-59 -277.5 q0 -175 86.5 -289.5t234.5 -114.5z" />
<glyph unicode="&#xd7;" horiz-adv-x="929" d="M223 203l-82 96l322 315l-234 316l111 96l227 -309l316 309l82 -96l-322 -316l234 -315l-111 -96l-227 309z" />
<glyph unicode="&#xd8;" horiz-adv-x="1275" d="M633 -29q-206 0 -338 142l-117 -113h-180l225 219q-65 127 -65 299q0 199 84 367.5t235.5 269t335.5 100.5q203 0 336 -139l115 113h178l-221 -215q71 -130 71 -305q0 -148 -50 -283.5t-136 -235.5t-209.5 -159.5t-263.5 -59.5zM655 133q129 0 236 76t167 203.5t60 275.5 q0 99 -33 193l-659 -641q83 -107 229 -107zM334 537q0 -101 28 -183l658 639q-90 103 -229 103q-127 0 -232.5 -76.5t-165 -205t-59.5 -277.5z" />
<glyph unicode="&#xd9;" horiz-adv-x="1181" d="M586 -29q-213 0 -316 151t-69 394l100 713h168l-100 -713q-24 -172 36.5 -277.5t202.5 -105.5q144 0 234 105t114 278l101 713h168l-101 -713q-35 -245 -178 -395t-360 -150zM713 1300l-129 273l200 31l47 -304h-118z" />
<glyph unicode="&#xda;" horiz-adv-x="1181" d="M1040 1571l-215 -271h-116l137 297zM586 -29q-213 0 -316 151t-69 394l100 713h168l-100 -713q-24 -172 36.5 -277.5t202.5 -105.5q144 0 234 105t114 278l101 713h168l-101 -713q-35 -245 -178 -395t-360 -150z" />
<glyph unicode="&#xdb;" horiz-adv-x="1181" d="M870 1298l-75 127l-115 -127h-139l200 234h133l138 -234h-142zM586 -29q-213 0 -316 151t-69 394l100 713h168l-100 -713q-24 -172 36.5 -277.5t202.5 -105.5q144 0 234 105t114 278l101 713h168l-101 -713q-35 -245 -178 -395t-360 -150z" />
<glyph unicode="&#xdc;" horiz-adv-x="1181" d="M541 1448q0 45 34.5 80t75.5 35q35 0 60.5 -27.5t25.5 -65.5q0 -44 -36 -79t-78 -35q-34 0 -58 27.5t-24 64.5zM858 1448q0 45 34.5 80t76.5 35q35 0 60.5 -27.5t25.5 -65.5q0 -44 -36.5 -79t-78.5 -35q-35 0 -58.5 27.5t-23.5 64.5zM586 -29q-213 0 -316 151t-69 394 l100 713h168l-100 -713q-24 -172 36.5 -277.5t202.5 -105.5q144 0 234 105t114 278l101 713h168l-101 -713q-35 -245 -178 -395t-360 -150z" />
<glyph unicode="&#xdd;" horiz-adv-x="993" d="M637 709l332 520h192l-514 -752l-65 -477h-170l65 477l-301 752h195l188 -520l25 -86h4zM961 1638l-216 -270h-116l137 297z" />
<glyph unicode="&#xde;" horiz-adv-x="1081" d="M483 1229l-26 -197h293q179 0 277.5 -90.5t98.5 -257.5q0 -232 -140.5 -363t-367.5 -131h-280l-27 -190h-168l172 1229h168zM950 657q0 108 -61.5 164t-171.5 56h-283l-74 -533h283q146 0 226.5 77.5t80.5 235.5z" />
<glyph unicode="&#xdf;" horiz-adv-x="940" d="M522 559l17 121q103 18 154.5 75.5t64.5 149.5q11 85 -27.5 139t-116.5 54q-83 0 -138.5 -53.5t-67.5 -143.5l-125 -901h-166l123 877q24 175 124.5 270.5t274.5 95.5q159 0 238 -94t57 -246q-12 -87 -55 -154.5t-107 -103.5q88 -29 125 -114t23 -191 q-24 -166 -134.5 -262t-285.5 -96q-39 0 -71 4.5t-44 9.5l-12 4l30 123q38 -10 99 -10q98 0 166 61t82 160q15 107 -35.5 166t-147.5 59h-45z" />
<glyph unicode="&#xe0;" d="M817 727h8l43 133h113l-121 -860h-112l-7 133h-8q-4 -6 -11.5 -16.5t-34.5 -37t-58.5 -46.5t-84.5 -36.5t-112 -16.5q-139 0 -225 102.5t-86 273.5q0 112 35.5 211t95 167t138 107.5t163.5 39.5q60 0 109.5 -16t77 -38.5t46 -45t24.5 -38.5zM770 485q0 118 -54.5 187 t-142.5 69q-116 0 -198 -104.5t-82 -259.5q0 -115 52.5 -186.5t139.5 -71.5q117 0 201 102t84 264zM563 1018l-129 272l201 31l47 -303h-119z" />
<glyph unicode="&#xe1;" d="M817 727h8l43 133h113l-121 -860h-112l-7 133h-8q-4 -6 -11.5 -16.5t-34.5 -37t-58.5 -46.5t-84.5 -36.5t-112 -16.5q-139 0 -225 102.5t-86 273.5q0 112 35.5 211t95 167t138 107.5t163.5 39.5q60 0 109.5 -16t77 -38.5t46 -45t24.5 -38.5zM770 485q0 118 -54.5 187 t-142.5 69q-116 0 -198 -104.5t-82 -259.5q0 -115 52.5 -186.5t139.5 -71.5q117 0 201 102t84 264zM877 1288l-215 -270h-117l137 297z" />
<glyph unicode="&#xe2;" d="M817 727h8l43 133h113l-121 -860h-112l-7 133h-8q-4 -6 -11.5 -16.5t-34.5 -37t-58.5 -46.5t-84.5 -36.5t-112 -16.5q-139 0 -225 102.5t-86 273.5q0 112 35.5 211t95 167t138 107.5t163.5 39.5q60 0 109.5 -16t77 -38.5t46 -45t24.5 -38.5zM770 485q0 118 -54.5 187 t-142.5 69q-116 0 -198 -104.5t-82 -259.5q0 -115 52.5 -186.5t139.5 -71.5q117 0 201 102t84 264zM717 1073l-76 127l-115 -127h-139l201 234h133l137 -234h-141z" />
<glyph unicode="&#xe3;" d="M817 727h8l43 133h113l-121 -860h-112l-7 133h-8q-4 -6 -11.5 -16.5t-34.5 -37t-58.5 -46.5t-84.5 -36.5t-112 -16.5q-139 0 -225 102.5t-86 273.5q0 112 35.5 211t95 167t138 107.5t163.5 39.5q60 0 109.5 -16t77 -38.5t46 -45t24.5 -38.5zM770 485q0 118 -54.5 187 t-142.5 69q-116 0 -198 -104.5t-82 -259.5q0 -115 52.5 -186.5t139.5 -71.5q117 0 201 102t84 264zM756 1020q-40 0 -78.5 17.5t-64 39t-55.5 39t-56 17.5q-35 0 -55.5 -22t-34.5 -60l-13 -33l-116 12l18 57q58 177 201 177q39 0 76.5 -18t62 -39.5t55 -39.5t56.5 -18 q38 0 59 22.5t35 63.5l10 31l117 -13l-17 -55q-24 -78 -74.5 -128t-125.5 -50z" />
<glyph unicode="&#xe4;" d="M817 727h8l43 133h113l-121 -860h-112l-7 133h-8q-4 -6 -11.5 -16.5t-34.5 -37t-58.5 -46.5t-84.5 -36.5t-112 -16.5q-139 0 -225 102.5t-86 273.5q0 112 35.5 211t95 167t138 107.5t163.5 39.5q60 0 109.5 -16t77 -38.5t46 -45t24.5 -38.5zM770 485q0 118 -54.5 187 t-142.5 69q-116 0 -198 -104.5t-82 -259.5q0 -115 52.5 -186.5t139.5 -71.5q117 0 201 102t84 264zM365 1108q0 45 34.5 80t75.5 35q35 0 60.5 -27.5t25.5 -65.5q0 -44 -36.5 -79t-78.5 -35q-33 0 -57 27.5t-24 64.5zM682 1108q0 45 34.5 80t76.5 35q35 0 60.5 -27.5 t25.5 -65.5q0 -44 -36.5 -79t-78.5 -35q-35 0 -58.5 27.5t-23.5 64.5z" />
<glyph unicode="&#xe5;" d="M817 727h8l43 133h113l-121 -860h-112l-7 133h-8q-4 -6 -11.5 -16.5t-34.5 -37t-58.5 -46.5t-84.5 -36.5t-112 -16.5q-139 0 -225 102.5t-86 273.5q0 112 35.5 211t95 167t138 107.5t163.5 39.5q60 0 109.5 -16t77 -38.5t46 -45t24.5 -38.5zM770 485q0 118 -54.5 187 t-142.5 69q-116 0 -198 -104.5t-82 -259.5q0 -115 52.5 -186.5t139.5 -71.5q117 0 201 102t84 264zM434 1194q11 80 73.5 130t154.5 50q89 0 138 -50t38 -130q-12 -80 -75.5 -130t-152.5 -50q-92 0 -140 50t-36 130zM735 1194q5 40 -17.5 62t-68.5 22t-77 -22.5t-35 -61.5 q-6 -41 17.5 -62.5t70.5 -21.5q46 0 75 21.5t35 62.5z" />
<glyph unicode="&#xe6;" horiz-adv-x="1378" d="M1249 197l45 -117q-4 -4 -12 -11t-35.5 -25t-59.5 -31.5t-84 -24.5t-108 -11q-208 0 -295 148q-122 -145 -331 -145q-142 0 -213.5 65.5t-71.5 171.5q0 141 101.5 228t295.5 87q97 0 185 -30l4 28q15 105 -31.5 157t-144.5 52q-54 0 -110.5 -17.5t-85.5 -34.5l-30 -17 l-43 133q15 9 41.5 22t106 34.5t155.5 21.5q202 0 273 -129q123 129 293 129q165 0 240 -119.5t48 -308.5l-6 -43h-561q-15 -144 42.5 -218.5t166.5 -74.5q60 0 116 20t82 40zM395 106q101 0 166.5 63t79.5 157l8 55q-72 37 -170 37q-118 0 -172.5 -50t-54.5 -135 q0 -58 36 -92.5t107 -34.5zM1071 743q-170 0 -231 -211h389q3 103 -37.5 157t-120.5 54z" />
<glyph unicode="&#xe7;" horiz-adv-x="761" d="M377 -147l-25 36l56 95q-134 17 -210.5 117t-76.5 255q0 226 133 375.5t334 149.5q49 0 91 -8t66 -19t41.5 -22t23.5 -19l7 -8l-65 -125q-7 7 -20 17t-58 27t-94 17q-121 0 -205 -101.5t-84 -268.5q0 -119 55 -185.5t146 -66.5q49 0 96.5 15t70.5 30l23 16l29 -123 q-3 -3 -8.5 -7.5t-25 -16.5t-42.5 -21.5t-61.5 -18.5t-81.5 -11l-29 -58q44 -2 72 -30t28 -80q0 -73 -46 -119.5t-126 -46.5q-44 0 -78 15t-47 29l-12 15l51 64q1 -1 10 -8t18.5 -14t27.5 -13t38 -6q38 0 59 20.5t21 54.5q0 25 -17 38.5t-46 13.5z" />
<glyph unicode="&#xe8;" horiz-adv-x="854" d="M723 195l43 -117q-4 -4 -11.5 -11t-35 -24.5t-59 -30.5t-83.5 -24t-108 -11q-164 0 -256 103t-92 274q0 145 56.5 265.5t159 191t228.5 70.5q167 0 243.5 -119.5t49.5 -308.5l-6 -43h-563q-17 -143 41.5 -218t169.5 -75q60 0 116 19.5t82 39.5zM545 743q-170 0 -234 -211 h391q4 102 -36.5 156.5t-120.5 54.5zM520 1018l-129 272l201 31l47 -303h-119z" />
<glyph unicode="&#xe9;" horiz-adv-x="854" d="M860 1288l-215 -270h-117l138 297zM723 195l43 -117q-4 -4 -11.5 -11t-35 -24.5t-59 -30.5t-83.5 -24t-108 -11q-164 0 -256 103t-92 274q0 145 56.5 265.5t159 191t228.5 70.5q167 0 243.5 -119.5t49.5 -308.5l-6 -43h-563q-17 -143 41.5 -218t169.5 -75q60 0 116 19.5 t82 39.5zM545 743q-170 0 -234 -211h391q4 102 -36.5 156.5t-120.5 54.5z" />
<glyph unicode="&#xea;" horiz-adv-x="854" d="M680 1016l-76 127l-115 -127h-139l201 233h133l137 -233h-141zM723 195l43 -117q-4 -4 -11.5 -11t-35 -24.5t-59 -30.5t-83.5 -24t-108 -11q-164 0 -256 103t-92 274q0 145 56.5 265.5t159 191t228.5 70.5q167 0 243.5 -119.5t49.5 -308.5l-6 -43h-563 q-17 -143 41.5 -218t169.5 -75q60 0 116 19.5t82 39.5zM545 743q-170 0 -234 -211h391q4 102 -36.5 156.5t-120.5 54.5z" />
<glyph unicode="&#xeb;" horiz-adv-x="854" d="M344 1098q0 45 35 79.5t76 34.5q35 0 60.5 -27t25.5 -65q0 -44 -36.5 -79t-78.5 -35q-34 0 -58 27.5t-24 64.5zM662 1098q0 45 34 79.5t76 34.5q35 0 60.5 -27t25.5 -65q0 -44 -36.5 -79t-78.5 -35q-35 0 -58 27t-23 65zM723 195l43 -117q-4 -4 -11.5 -11t-35 -24.5 t-59 -30.5t-83.5 -24t-108 -11q-164 0 -256 103t-92 274q0 145 56.5 265.5t159 191t228.5 70.5q167 0 243.5 -119.5t49.5 -308.5l-6 -43h-563q-17 -143 41.5 -218t169.5 -75q60 0 116 19.5t82 39.5zM545 743q-170 0 -234 -211h391q4 102 -36.5 156.5t-120.5 54.5z" />
<glyph unicode="&#xec;" horiz-adv-x="405" d="M119 0l121 860h168l-121 -860h-168zM279 1018l-129 272l200 31l47 -303h-118z" />
<glyph unicode="&#xed;" horiz-adv-x="405" d="M621 1288l-215 -270h-117l137 297zM119 0l121 860h168l-121 -860h-168z" />
<glyph unicode="&#xee;" horiz-adv-x="405" d="M451 1073l-76 127l-115 -127h-139l201 234h133l137 -234h-141zM119 0l121 860h168l-121 -860h-168z" />
<glyph unicode="&#xef;" horiz-adv-x="405" d="M115 1163q0 45 34.5 80t75.5 35q35 0 60.5 -27t25.5 -65q0 -44 -36 -79.5t-78 -35.5q-34 0 -58 27.5t-24 64.5zM432 1163q0 45 34.5 80t76.5 35q35 0 60.5 -27t25.5 -65q0 -44 -36.5 -79.5t-78.5 -35.5q-35 0 -58.5 27.5t-23.5 64.5zM119 0l121 860h168l-121 -860h-168z " />
<glyph unicode="&#xf0;" horiz-adv-x="940" d="M465 -20q-188 0 -277.5 121.5t-60.5 328.5q28 203 153.5 327t311.5 124q30 0 74 -7v5q-21 34 -41 77l-56 131l-231 -139l-41 99l231 139l-114 282l4 23h157l95 -219l245 147l41 -96l-243 -147l166 -381q77 -175 51 -365q-30 -208 -153 -329t-312 -121zM762 430 q21 148 -32.5 229.5t-158.5 81.5q-103 0 -179 -82t-97 -229q-21 -145 33 -228t157 -83q104 0 180 82.5t97 228.5z" />
<glyph unicode="&#xf1;" horiz-adv-x="956" d="M117 0l121 860h112l-2 -125h12q117 146 287 146q151 0 224.5 -108t48.5 -284l-70 -489h-168l66 471q16 118 -25 193t-133 75q-62 0 -114.5 -36t-81 -84t-38.5 -99l-73 -520h-166zM770 1075q-40 0 -78.5 17.5t-64 39t-55.5 39t-56 17.5q-35 0 -55.5 -22t-34.5 -60l-12 -33 l-117 12l18 58q58 176 201 176q39 0 76.5 -18t62 -39.5t55 -39.5t56.5 -18q38 0 59 22.5t35 63.5l10 31l117 -12l-16 -56q-24 -78 -75 -128t-126 -50z" />
<glyph unicode="&#xf2;" horiz-adv-x="933" d="M934 492q0 -113 -39.5 -210t-105 -162.5t-151 -102.5t-177.5 -37q-151 0 -246.5 103t-95.5 275q0 113 39 211.5t103.5 166t149.5 106.5t177 39q151 0 248.5 -107t97.5 -282zM481 115q117 0 201 102.5t84 265.5q0 119 -55 190.5t-142 71.5q-114 0 -199 -105t-85 -267 q0 -119 54.5 -188.5t141.5 -69.5zM547 1018l-129 272l200 31l48 -303h-119z" />
<glyph unicode="&#xf3;" horiz-adv-x="933" d="M879 1288l-215 -270h-117l137 297zM934 492q0 -113 -39.5 -210t-105 -162.5t-151 -102.5t-177.5 -37q-151 0 -246.5 103t-95.5 275q0 113 39 211.5t103.5 166t149.5 106.5t177 39q151 0 248.5 -107t97.5 -282zM481 115q117 0 201 102.5t84 265.5q0 119 -55 190.5 t-142 71.5q-114 0 -199 -105t-85 -267q0 -119 54.5 -188.5t141.5 -69.5z" />
<glyph unicode="&#xf4;" horiz-adv-x="933" d="M713 1073l-76 127l-115 -127h-139l201 234h133l137 -234h-141zM934 492q0 -113 -39.5 -210t-105 -162.5t-151 -102.5t-177.5 -37q-151 0 -246.5 103t-95.5 275q0 113 39 211.5t103.5 166t149.5 106.5t177 39q151 0 248.5 -107t97.5 -282zM481 115q117 0 201 102.5 t84 265.5q0 119 -55 190.5t-142 71.5q-114 0 -199 -105t-85 -267q0 -119 54.5 -188.5t141.5 -69.5z" />
<glyph unicode="&#xf5;" horiz-adv-x="933" d="M934 492q0 -113 -39.5 -210t-105 -162.5t-151 -102.5t-177.5 -37q-151 0 -246.5 103t-95.5 275q0 113 39 211.5t103.5 166t149.5 106.5t177 39q151 0 248.5 -107t97.5 -282zM481 115q117 0 201 102.5t84 265.5q0 119 -55 190.5t-142 71.5q-114 0 -199 -105t-85 -267 q0 -119 54.5 -188.5t141.5 -69.5zM754 1077q-40 0 -78.5 17.5t-64 39t-55.5 39t-56 17.5q-35 0 -55.5 -22t-34.5 -60l-13 -33l-116 12l18 58q58 176 201 176q39 0 76.5 -18t62 -39.5t55 -39.5t56.5 -18q38 0 59 22.5t35 63.5l10 31l117 -12l-17 -56q-24 -78 -74.5 -128 t-125.5 -50z" />
<glyph unicode="&#xf6;" horiz-adv-x="933" d="M375 1165q0 45 34.5 80t75.5 35q35 0 60.5 -27t25.5 -65q0 -44 -36 -79.5t-78 -35.5q-34 0 -58 27.5t-24 64.5zM692 1165q0 45 34.5 80t76.5 35q35 0 60.5 -27t25.5 -65q0 -44 -36.5 -79.5t-78.5 -35.5q-35 0 -58.5 27.5t-23.5 64.5zM934 492q0 -113 -39.5 -210 t-105 -162.5t-151 -102.5t-177.5 -37q-151 0 -246.5 103t-95.5 275q0 113 39 211.5t103.5 166t149.5 106.5t177 39q151 0 248.5 -107t97.5 -282zM481 115q117 0 201 102.5t84 265.5q0 119 -55 190.5t-142 71.5q-114 0 -199 -105t-85 -267q0 -119 54.5 -188.5t141.5 -69.5z " />
<glyph unicode="&#xf7;" horiz-adv-x="911" d="M387 276q0 53 37.5 91.5t89.5 38.5q39 0 66.5 -29.5t27.5 -71.5q0 -53 -39 -90t-88 -37q-42 0 -68 28t-26 70zM477 918q0 53 37.5 91t89.5 38q39 0 66.5 -29.5t27.5 -71.5q0 -53 -39 -90t-88 -37q-42 0 -68 28.5t-26 70.5zM174 537l21 139h714l-20 -139h-715z" />
<glyph unicode="&#xf8;" horiz-adv-x="933" d="M934 492q0 -113 -39.5 -210t-105 -162.5t-151 -102.5t-177.5 -37q-141 0 -232 88l-69 -68h-123l139 133q-57 91 -57 225q0 113 39 211.5t103.5 166t149.5 106.5t177 39q133 0 227 -88l68 67h123l-138 -131q66 -101 66 -237zM481 115q117 0 201 102.5t84 265.5 q0 64 -21 125l-403 -428q53 -65 139 -65zM285 373q0 -66 16 -119l404 428q-54 63 -136 63q-114 0 -199 -105t-85 -267z" />
<glyph unicode="&#xf9;" horiz-adv-x="952" d="M956 860l-120 -860h-109l-12 121h-6q-115 -141 -287 -141q-152 0 -221.5 97.5t-44.5 272.5l71 510h168l-71 -500q-31 -239 155 -239q95 0 157 59t77 139l78 541h165zM553 1018l-129 272l201 31l47 -303h-119z" />
<glyph unicode="&#xfa;" horiz-adv-x="952" d="M885 1288l-215 -270h-117l137 297zM956 860l-120 -860h-109l-12 121h-6q-115 -141 -287 -141q-152 0 -221.5 97.5t-44.5 272.5l71 510h168l-71 -500q-31 -239 155 -239q95 0 157 59t77 139l78 541h165z" />
<glyph unicode="&#xfb;" horiz-adv-x="952" d="M702 1016l-75 127l-115 -127h-139l200 233h134l137 -233h-142zM956 860l-120 -860h-109l-12 121h-6q-115 -141 -287 -141q-152 0 -221.5 97.5t-44.5 272.5l71 510h168l-71 -500q-31 -239 155 -239q95 0 157 59t77 139l78 541h165z" />
<glyph unicode="&#xfc;" horiz-adv-x="952" d="M367 1108q0 45 34.5 80t75.5 35q35 0 60.5 -27.5t25.5 -65.5q0 -44 -36 -79t-78 -35q-34 0 -58 27.5t-24 64.5zM684 1108q0 45 34.5 80t76.5 35q35 0 60.5 -27.5t25.5 -65.5q0 -44 -36.5 -79t-78.5 -35q-35 0 -58.5 27.5t-23.5 64.5zM956 860l-120 -860h-109l-12 121h-6 q-115 -141 -287 -141q-152 0 -221.5 97.5t-44.5 272.5l71 510h168l-71 -500q-31 -239 155 -239q95 0 157 59t77 139l78 541h165z" />
<glyph unicode="&#xfd;" horiz-adv-x="946" d="M786 860h166l-118 -831q-24 -178 -134.5 -287t-289.5 -109q-34 0 -65.5 4t-57 11.5t-47.5 16t-39.5 20t-31 21t-25 21t-17.5 18t-12 14.5l-6 8l102 108l11 -13q11 -13 28 -26.5t41 -29t59 -25.5t74 -10q104 0 165 65.5t79 188.5l14 104q-39 -44 -105.5 -77.5 t-142.5 -33.5q-162 0 -232.5 96t-45.5 273l67 473h168l-65 -457q-32 -243 153 -243q95 0 157.5 57t78.5 137zM883 1288l-215 -270h-117l137 297z" />
<glyph unicode="&#xfe;" d="M313 162h-8l-67 -481h-166l217 1548h166l-74 -527h6q4 7 10.5 19t32 43t55 54.5t79 43t104.5 19.5q139 0 224 -102.5t85 -272.5q0 -226 -129 -376t-305 -150q-56 0 -100 18.5t-67.5 45.5t-38.5 54t-19 46zM330 375q0 -118 54 -187t142 -69q114 0 196.5 105t82.5 259 q0 115 -52.5 186.5t-138.5 71.5q-117 0 -200.5 -102t-83.5 -264z" />
<glyph unicode="&#xff;" horiz-adv-x="946" d="M786 860h166l-118 -831q-24 -178 -134.5 -287t-289.5 -109q-34 0 -65.5 4t-57 11.5t-47.5 16t-39.5 20t-31 21t-25 21t-17.5 18t-12 14.5l-6 8l102 108l11 -13q11 -13 28 -26.5t41 -29t59 -25.5t74 -10q104 0 165 65.5t79 188.5l14 104q-39 -44 -105.5 -77.5 t-142.5 -33.5q-162 0 -232.5 96t-45.5 273l67 473h168l-65 -457q-32 -243 153 -243q95 0 157.5 57t78.5 137zM369 1110q0 45 34.5 80t75.5 35q35 0 60.5 -27t25.5 -65q0 -44 -36 -79.5t-78 -35.5q-34 0 -58 27.5t-24 64.5zM686 1110q0 45 34.5 80t76.5 35q35 0 60.5 -27 t25.5 -65q0 -44 -36.5 -79.5t-78.5 -35.5q-35 0 -58.5 27.5t-23.5 64.5z" />
<glyph unicode="&#x152;" horiz-adv-x="1906" d="M625 -29q-147 0 -256 73t-164 196t-55 278q0 199 84 367.5t235.5 269t335.5 100.5q248 0 381 -196l24 170h797l-20 -154h-629l-53 -379h534l-20 -149h-535l-55 -393h629l-23 -154h-797l21 150q-87 -85 -198 -132t-236 -47zM647 133q129 0 236 76t167 203.5t60 275.5 q0 177 -88 292.5t-240 115.5q-127 0 -232.5 -76.5t-164.5 -205t-59 -277.5q0 -175 86.5 -289.5t234.5 -114.5z" />
<glyph unicode="&#x153;" horiz-adv-x="1505" d="M1378 195l43 -117q-4 -4 -11.5 -11t-35 -24.5t-59 -30.5t-83.5 -24t-108 -11q-109 0 -187 46t-118 131q-67 -83 -161 -128.5t-197 -45.5q-151 0 -246.5 103t-95.5 275q0 113 39 211.5t103.5 166t149.5 106.5t177 39q96 0 173.5 -46t121.5 -130q61 83 148.5 129.5 t189.5 46.5q167 0 243 -119.5t49 -308.5l-6 -43h-563q-17 -143 41.5 -218t169.5 -75q60 0 115.5 19.5t81.5 39.5zM481 115q117 0 201 102.5t84 265.5q0 119 -55 190.5t-142 71.5q-114 0 -199 -105t-85 -267q0 -119 54.5 -188.5t141.5 -69.5zM1200 743q-169 0 -233 -211h391 q4 102 -37 156.5t-121 54.5z" />
<glyph unicode="&#x178;" horiz-adv-x="993" d="M637 709l332 520h192l-514 -752l-65 -477h-170l65 477l-301 752h195l188 -520l25 -86h4zM449 1448q0 45 34.5 80t75.5 35q35 0 60.5 -27.5t25.5 -65.5q0 -44 -36.5 -79t-78.5 -35q-33 0 -57 27.5t-24 64.5zM766 1448q0 45 34.5 80t76.5 35q35 0 60.5 -27.5t25.5 -65.5 q0 -44 -36.5 -79t-78.5 -35q-35 0 -58.5 27.5t-23.5 64.5z" />
<glyph unicode="&#x2c6;" horiz-adv-x="704" d="M649 1356l-76 127l-114 -127h-140l201 233h133l138 -233h-142z" />
<glyph unicode="&#x2dc;" horiz-adv-x="921" d="M788 1358q-40 0 -78.5 17.5t-63.5 38.5t-55 38.5t-56 17.5q-61 0 -91 -81l-12 -33l-117 12l19 57q58 177 201 177q39 0 76 -18t61.5 -39.5t55 -39.5t56.5 -18q66 0 95 86l10 31l117 -13l-17 -55q-24 -78 -75 -128t-126 -50z" />
<glyph unicode="&#x2000;" horiz-adv-x="832" />
<glyph unicode="&#x2001;" horiz-adv-x="1665" />
<glyph unicode="&#x2002;" horiz-adv-x="832" />
<glyph unicode="&#x2003;" horiz-adv-x="1665" />
<glyph unicode="&#x2004;" horiz-adv-x="555" />
<glyph unicode="&#x2005;" horiz-adv-x="416" />
<glyph unicode="&#x2006;" horiz-adv-x="277" />
<glyph unicode="&#x2007;" horiz-adv-x="277" />
<glyph unicode="&#x2008;" horiz-adv-x="208" />
<glyph unicode="&#x2009;" horiz-adv-x="333" />
<glyph unicode="&#x200a;" horiz-adv-x="92" />
<glyph unicode="&#x2010;" horiz-adv-x="733" d="M160 399l20 140h525l-21 -140h-524z" />
<glyph unicode="&#x2011;" horiz-adv-x="733" d="M160 399l20 140h525l-21 -140h-524z" />
<glyph unicode="&#x2012;" horiz-adv-x="733" d="M160 399l20 140h525l-21 -140h-524z" />
<glyph unicode="&#x2013;" horiz-adv-x="862" d="M184 520l21 139h631l-21 -139h-631z" />
<glyph unicode="&#x2014;" horiz-adv-x="1331" d="M184 520l21 139h1100l-21 -139h-1100z" />
<glyph unicode="&#x2018;" horiz-adv-x="407" d="M205 891l2 16q15 125 92.5 212t194.5 110l14 -94q-65 -15 -107.5 -52t-54.5 -88q31 -6 50.5 -32t19.5 -60q0 -49 -35.5 -84t-85.5 -35q-43 0 -69.5 31.5t-20.5 75.5z" />
<glyph unicode="&#x2019;" horiz-adv-x="413" d="M504 1120l-2 -14q-19 -127 -94 -213t-191 -109l-16 93q65 15 108.5 52.5t55.5 88.5q-31 6 -51.5 30.5t-20.5 59.5q0 49 37 85t84 36q43 0 69.5 -32.5t20.5 -76.5z" />
<glyph unicode="&#x201a;" horiz-adv-x="389" d="M309 86l-2 -16q-15 -125 -92 -212t-192 -110l-17 94q64 15 107 52t55 88q-31 6 -50.5 31t-19.5 59q0 51 35.5 86t85.5 35q43 0 69.5 -31.5t20.5 -75.5z" />
<glyph unicode="&#x201c;" horiz-adv-x="700" d="M205 891l2 16q15 125 92.5 212t194.5 110l14 -94q-64 -15 -106 -52t-56 -88q31 -6 50.5 -32t19.5 -60q0 -49 -35.5 -84t-85.5 -35q-43 0 -69.5 31.5t-20.5 75.5zM498 891l2 16q15 125 92 212t194 110l15 -94q-65 -15 -107.5 -51.5t-56.5 -88.5q32 -6 52 -32t20 -60 q0 -49 -35.5 -84t-85.5 -35q-43 0 -69.5 31.5t-20.5 75.5z" />
<glyph unicode="&#x201d;" horiz-adv-x="700" d="M791 1120l-3 -14q-19 -127 -94.5 -213t-191.5 -109l-15 93q63 15 106.5 52.5t55.5 88.5q-32 6 -50.5 31t-18.5 59q0 47 36.5 84t83.5 37q43 0 70 -32.5t21 -76.5zM502 1120l-2 -14q-19 -127 -94 -213t-191 -109l-14 93q63 15 106 52.5t55 88.5q-31 6 -51 30.5t-20 59.5 q0 49 37 85t84 36q44 0 70 -32t20 -77z" />
<glyph unicode="&#x201e;" horiz-adv-x="702" d="M643 84l-2 -14q-17 -126 -93.5 -212.5t-193.5 -109.5l-12 92q63 15 106.5 53t53.5 89q-35 7 -54 35.5t-14 66.5q6 45 41.5 77t79.5 32q43 0 68.5 -32t19.5 -77zM354 84l-2 -14q-17 -127 -92.5 -213t-191.5 -109l-13 92q63 15 106.5 53t53.5 89q-34 6 -54 34.5t-16 67.5 q6 44 42 76.5t79 32.5q44 0 69 -32t19 -77z" />
<glyph unicode="&#x2022;" horiz-adv-x="593" d="M385 616q57 0 95 -40.5t38 -100.5q0 -71 -54 -123.5t-124 -52.5q-57 0 -95 40t-38 99q0 71 54 124.5t124 53.5z" />
<glyph unicode="&#x2026;" horiz-adv-x="1382" d="M111 90q0 58 42 100.5t99 42.5q47 0 77.5 -32t30.5 -80q0 -58 -42.5 -99.5t-100.5 -41.5q-47 0 -76.5 31t-29.5 79zM582 90q0 58 42 100.5t99 42.5q47 0 77.5 -32t30.5 -80q0 -58 -42.5 -99.5t-100.5 -41.5q-47 0 -76.5 31t-29.5 79zM1053 90q0 58 42 100.5t99 42.5 q47 0 78 -32t31 -80q0 -58 -43 -99.5t-101 -41.5q-47 0 -76.5 31t-29.5 79z" />
<glyph unicode="&#x202f;" horiz-adv-x="333" />
<glyph unicode="&#x2039;" horiz-adv-x="518" d="M129 403l6 48l287 385h141l-4 -21l-278 -381l-2 -12l172 -385l-5 -21h-141z" />
<glyph unicode="&#x203a;" horiz-adv-x="516" d="M510 451l-6 -48l-287 -387h-143l2 21l280 385l2 12l-172 381l2 21h144z" />
<glyph unicode="&#x205f;" horiz-adv-x="416" />
<glyph unicode="&#x20ac;" horiz-adv-x="1056" d="M817 535l-18 -125h-359q24 -279 254 -279q40 0 79.5 12t67 28.5t49.5 33.5t33 29l11 12l67 -123q-5 -6 -14 -16t-41 -36t-68 -46t-93 -36t-117 -16q-126 0 -215 59t-133.5 155t-53.5 223h-139l18 125h123q0 39 6 83q4 35 19 91h-123l16 125h142q70 191 202.5 306 t317.5 115q60 0 112.5 -15t84 -36.5t54.5 -43.5t33 -37l9 -15l-105 -129q-3 5 -8 13t-23.5 28t-40.5 35.5t-58.5 28t-76.5 12.5q-226 0 -327 -262h356l-16 -125h-377q-11 -55 -16 -91q-9 -65 -9 -83h377z" />
<glyph unicode="&#x2122;" horiz-adv-x="1329" d="M819 575h-112l92 654h78l165 -301l261 301h73l-92 -654h-110l61 433l-195 -228h-32l-127 226zM694 1229l-14 -101h-174l-78 -553h-113l78 553h-174l14 101h461z" />
<glyph unicode="&#x25fc;" horiz-adv-x="860" d="M0 860h860v-860h-860v860z" />
</font>
</defs>
</svg>
