<?xml version="1.0" standalone="no"?>
<!DOCTYPE svg PUBLIC "-//W3C//DTD SVG 1.1//EN" "http://www.w3.org/Graphics/SVG/1.1/DTD/svg11.dtd" >
<svg xmlns="http://www.w3.org/2000/svg" xmlns:xlink="http://www.w3.org/1999/xlink" version="1.1">
<metadata></metadata>
<defs>
<font id="texta_narrowheavy_italic" horiz-adv-x="974" >
<font-face units-per-em="2048" ascent="1536" descent="-512" />
<missing-glyph horiz-adv-x="380" />
<glyph horiz-adv-x="0" />
<glyph horiz-adv-x="682" />
<glyph horiz-adv-x="0" />
<glyph horiz-adv-x="0" />
<glyph unicode="&#xd;" horiz-adv-x="206" />
<glyph unicode=" "  horiz-adv-x="380" />
<glyph unicode="&#x09;" horiz-adv-x="380" />
<glyph unicode="&#xa0;" horiz-adv-x="380" />
<glyph unicode="!" horiz-adv-x="448" d="M537 1229l-175 -821h-161l53 821h283zM94 115q0 69 51 119.5t119 50.5q55 0 92 -38.5t37 -94.5q0 -69 -52.5 -118.5t-119.5 -49.5q-55 0 -91 37.5t-36 93.5z" />
<glyph unicode="&#x22;" horiz-adv-x="651" d="M512 1401l-152 -428h-145l86 428h211zM809 1401l-150 -428h-145l84 428h211z" />
<glyph unicode="#" horiz-adv-x="1241" d="M1190 1194l-107 -305h228l-54 -144h-223l-100 -296h225l-51 -144h-223l-105 -305h-153l104 305h-260l-104 -305h-152l104 305h-221l52 144h219l100 296h-219l51 144h217l107 305h153l-106 -305h258l106 305h154zM623 745l-101 -296h258l101 296h-258z" />
<glyph unicode="$" horiz-adv-x="1003" d="M76 131l162 188q12 -10 33 -26t84 -47t124 -41l45 311q-4 0 -6 2q-165 57 -244 132.5t-79 195.5q0 170 111.5 282t320.5 125l30 213h113l-31 -213q71 -4 131.5 -19t96.5 -32.5t62 -34t36 -27.5l10 -12l-160 -202q-3 3 -9 8.5t-26.5 20t-43 26.5t-57.5 24.5t-72 18.5 l-39 -281q170 -56 251.5 -135t81.5 -202q0 -83 -28.5 -157.5t-82 -133.5t-139 -96t-192.5 -44l-27 -194h-112l26 194q-73 6 -138 24t-105.5 40t-70.5 43t-43 35zM709 360q0 35 -18.5 61t-61.5 50l-37 -264q58 13 87.5 53.5t29.5 99.5zM481 889q0 -32 18.5 -56t61.5 -47 l33 236q-57 -10 -85 -45t-28 -88z" />
<glyph unicode="%" horiz-adv-x="1269" d="M502 1255q104 0 162.5 -74t58.5 -184q0 -139 -87.5 -244.5t-219.5 -105.5q-106 0 -164.5 75t-58.5 185q0 140 87.5 244t221.5 104zM481 1112q-59 0 -90 -56t-31 -149q0 -114 76 -114q56 0 87.5 55.5t31.5 146.5q0 117 -74 117zM1030 592q105 0 164 -74.5t59 -185.5 q0 -138 -88 -243t-221 -105q-104 0 -163.5 75.5t-59.5 184.5q0 90 38 169t110 129t161 50zM1010 449q-57 0 -89 -56t-32 -147q0 -117 76 -117q57 0 87.5 56t30.5 147q0 117 -73 117zM1149 1229h203l-1069 -1229h-203z" />
<glyph unicode="&#x26;" horiz-adv-x="1214" d="M987 645l227 -53q-63 -201 -186 -348l197 -244h-340l-54 72q-150 -92 -307 -92q-204 0 -304.5 84.5t-100.5 226.5q0 71 20.5 130t60 104t82.5 77t101 64l-16 24q-66 98 -66 211q0 149 111.5 251.5t292.5 102.5q148 0 232.5 -74t84.5 -194q0 -59 -16.5 -110t-41.5 -88.5 t-65 -72t-77 -58t-87 -50.5l152 -190q61 97 100 227zM557 190q79 0 152 43l-195 261q-57 -35 -87 -75t-30 -95q0 -60 42 -97t118 -37zM545 909q0 -73 61 -139l2 -2q82 39 124 79t42 99q0 49 -24 78t-72 29q-64 0 -98.5 -41t-34.5 -103z" />
<glyph unicode="'" horiz-adv-x="354" d="M512 1401l-150 -428h-147l86 428h211z" />
<glyph unicode="(" horiz-adv-x="548" d="M393 588q-17 -132 -12 -241.5t24.5 -195t41 -144.5t38.5 -89l17 -31l-185 -168l-9 12t-22.5 35t-32.5 57.5t-36 79t-36.5 99.5t-30.5 119t-21 138t-5.5 156t13.5 173q16 111 47.5 219t70 191.5t81.5 159.5t83 129.5t72.5 93t52.5 58.5l19 19l135 -168q-10 -11 -27 -31 t-62 -88.5t-83 -144.5t-77 -195t-56 -243z" />
<glyph unicode=")" horiz-adv-x="550" d="M319 588q17 133 12.5 243t-24 195.5t-41 144t-38.5 89.5l-17 30l184 168l9 -12t22.5 -35.5t32.5 -57.5t36 -79t36.5 -100t30.5 -119t21 -138t5.5 -156t-13.5 -173q-16 -111 -47.5 -218.5t-70 -191.5t-81.5 -159.5t-83 -129t-72 -93t-51 -58.5l-20 -19l-136 168 q10 11 27 31t62 89t83 144.5t77 194.5t56 242z" />
<glyph unicode="*" horiz-adv-x="724" d="M252 907l186 187l-215 41l72 157l186 -116l2 251h158l-72 -253l224 118l26 -157l-229 -41l135 -187l-143 -96l-76 225l-137 -225z" />
<glyph unicode="+" horiz-adv-x="946" d="M721 1055l-49 -353h311l-29 -200h-311l-47 -336h-201l47 336h-311l29 200h311l49 353h201z" />
<glyph unicode="," horiz-adv-x="421" d="M367 121l-2 -12q-22 -134 -104 -234.5t-212 -126.5l-18 129q115 27 141 107q-40 9 -64 41.5t-24 76.5q0 66 49 114t113 48q60 0 95 -41.5t26 -101.5z" />
<glyph unicode="-" horiz-adv-x="708" d="M141 369l29 200h528l-28 -200h-529z" />
<glyph unicode="." horiz-adv-x="417" d="M207 -20q-54 0 -88.5 35t-34.5 89q0 64 49 112t115 48q52 0 85.5 -36t33.5 -89q0 -67 -47.5 -113t-112.5 -46z" />
<glyph unicode="/" horiz-adv-x="1161" d="M250 -229h-246l1100 1833h244z" />
<glyph unicode="0" horiz-adv-x="1173" d="M584 -27q-109 0 -194 42t-137 115.5t-79 168t-27 205.5q0 146 42 280t118.5 239.5t195 168.5t261.5 63q108 0 192.5 -41.5t136.5 -114.5t78.5 -168t26.5 -206q0 -145 -41 -279t-117 -240t-194.5 -169.5t-261.5 -63.5zM616 211q99 0 174 68.5t112.5 180t37.5 247.5 q0 140 -54.5 225.5t-156.5 85.5q-100 0 -174.5 -68.5t-111.5 -180t-37 -247.5q0 -141 53.5 -226t156.5 -85z" />
<glyph unicode="1" horiz-adv-x="626" d="M170 1012l31 217h481l-172 -1229h-248l141 1012h-233z" />
<glyph unicode="2" horiz-adv-x="980" d="M80 0l24 178l494 463q65 65 91 109t26 112q0 66 -39 109t-109 43q-30 0 -58.5 -7t-59.5 -24t-48 -27.5t-51 -35t-41 -29.5l-102 199q7 7 20 18t56 39.5t89 50t117 39.5t142 18q184 0 284.5 -96.5t100.5 -243.5q0 -65 -11 -117t-52 -121t-115 -136l-338 -324h432l-31 -217 h-821z" />
<glyph unicode="3" horiz-adv-x="968" d="M367 555l22 160l285 297h-443l31 217h768l-24 -182l-295 -310q120 -18 180.5 -95.5t60.5 -203.5q0 -95 -32.5 -177t-94.5 -146t-162 -101t-227 -37q-55 0 -104.5 9.5t-85.5 24t-66.5 32.5t-50 36t-33.5 32.5t-20 24.5l-6 9l153 183q4 -5 10.5 -13.5t30 -29.5t49.5 -37 t66.5 -29.5t83.5 -13.5q108 0 165.5 56.5t57.5 146.5q0 147 -178 147h-141z" />
<glyph unicode="4" horiz-adv-x="1085" d="M76 266l26 183l697 780h231l-104 -748h172l-31 -215h-172l-37 -266h-248l37 266h-571zM408 489v-8h270l51 375l-274 -324z" />
<glyph unicode="5" horiz-adv-x="960" d="M971 1012h-467l-39 -244q47 6 94 6q208 0 306 -85.5t98 -235.5q0 -98 -32.5 -183.5t-95.5 -151t-164.5 -103.5t-230.5 -38q-73 0 -138 17.5t-105 42t-69 49t-42 42.5l-12 17l153 181q4 -5 11 -13t30.5 -29t49.5 -37t67 -29t84 -13q109 0 166 55.5t57 149.5 q0 157 -229 157q-63 0 -124 -10t-91.5 -19.5t-30.5 -11.5l-22 19l114 684h692z" />
<glyph unicode="6" horiz-adv-x="1046" d="M455 707l-2 -19q99 90 235 90q164 0 260 -87t96 -240q0 -136 -69.5 -245.5t-183 -169t-246.5 -59.5q-68 0 -127 16.5t-110 53.5t-87.5 92t-57 136t-20.5 182q0 171 42 316.5t117.5 249.5t186.5 163t244 59q72 0 134.5 -16t100.5 -38.5t65.5 -44.5t38.5 -38l11 -16 l-163 -197q-58 62 -106.5 88.5t-113.5 26.5q-201 0 -245 -303zM416 391h-2q-1 -94 39.5 -142t115.5 -48q89 0 148 64.5t59 154.5q0 70 -40 115t-111 45q-79 0 -136.5 -53t-72.5 -136z" />
<glyph unicode="7" horiz-adv-x="897" d="M190 1012l31 217h823l-24 -176l-625 -1053h-284l610 1012h-531z" />
<glyph unicode="8" horiz-adv-x="1030" d="M512 -27q-188 0 -290.5 95t-102.5 241q0 217 192 334q-86 74 -86 213q0 169 123.5 284t343.5 115q179 0 271 -86t92 -223q0 -187 -156 -303q111 -77 111 -240q0 -87 -35 -165t-98 -137t-157.5 -93.5t-207.5 -34.5zM748 391q0 68 -42 112t-114 44q-88 0 -146.5 -59.5 t-58.5 -143.5q0 -67 42 -111.5t112 -44.5q87 0 147 59.5t60 143.5zM616 725q77 0 129 51.5t52 124.5q0 59 -36 98t-99 39q-76 0 -129.5 -52.5t-53.5 -123.5q0 -60 37 -98.5t100 -38.5z" />
<glyph unicode="9" horiz-adv-x="1046" d="M522 209q200 0 242 305l2 16q-101 -88 -236 -88q-163 0 -259.5 87.5t-96.5 240.5q0 102 41 191.5t110 151t160.5 97t190.5 35.5q85 0 155.5 -27.5t126 -83.5t86.5 -150.5t31 -219.5q0 -228 -69.5 -406.5t-203.5 -281.5t-313 -103q-73 0 -135.5 16t-100 38.5t-64.5 45 t-37 38.5l-11 16l162 197q7 -6 32 -30.5t37.5 -33.5t37 -24t51.5 -21t61 -6zM803 829q3 92 -38 141.5t-116 49.5q-89 0 -147 -64t-58 -155q0 -70 40 -115t110 -45q78 0 136.5 53t72.5 135z" />
<glyph unicode=":" horiz-adv-x="452" d="M313 590q-53 0 -86.5 35t-33.5 90q0 65 47.5 112t111.5 47q54 0 88.5 -36t34.5 -90q0 -65 -49 -111.5t-113 -46.5zM227 -20q-54 0 -88.5 35t-34.5 89q0 64 49 112t115 48q53 0 86 -35.5t33 -89.5q0 -67 -47.5 -113t-112.5 -46z" />
<glyph unicode=";" horiz-adv-x="460" d="M389 121l-2 -12q-22 -134 -103.5 -234.5t-211.5 -126.5l-19 129q116 27 142 107q-40 9 -64.5 41.5t-24.5 76.5q0 67 48.5 114.5t113.5 47.5q59 0 94.5 -41.5t26.5 -101.5zM313 590q-53 0 -86.5 35t-33.5 90q0 65 47.5 112t111.5 47q54 0 88.5 -36t34.5 -90 q0 -65 -49 -111.5t-113 -46.5z" />
<glyph unicode="&#x3c;" horiz-adv-x="690" d="M137 522l27 183l559 339l-37 -266l-336 -166l289 -170l-39 -264z" />
<glyph unicode="=" horiz-adv-x="847" d="M199 694l26 201h647l-26 -201h-647zM143 305l29 199h647l-28 -199h-648z" />
<glyph unicode="&#x3e;" horiz-adv-x="690" d="M725 705l-25 -183l-561 -344l37 264l336 170l-289 166l37 266z" />
<glyph unicode="?" horiz-adv-x="841" d="M307 938l-98 199q5 5 15 13t43.5 28.5t70.5 36.5t96 29t121 13q162 0 259 -79.5t97 -216.5q0 -78 -23 -141.5t-58 -102.5t-78.5 -75.5t-82 -62.5t-70 -62t-42.5 -75l-12 -45h-199l10 68q10 62 41 112t68 83.5t72.5 65.5t59.5 74.5t24 94.5q0 56 -33.5 87.5t-93.5 31.5 q-43 0 -89.5 -19t-72.5 -38zM266 113q0 65 49.5 112t114.5 47q54 0 88.5 -36.5t34.5 -90.5q0 -64 -49.5 -112.5t-114.5 -48.5q-53 0 -88 37t-35 92z" />
<glyph unicode="@" horiz-adv-x="1869" d="M1395 104q-65 0 -114.5 18t-74 42t-40 56t-19 50t-4.5 35h-10q-15 -25 -37 -51.5t-60.5 -60t-94.5 -55t-118 -21.5q-131 0 -207.5 85t-76.5 232q0 125 41.5 235t110 185.5t158 119.5t183.5 44q173 0 205 -158h8l45 137h207l-117 -475q-20 -88 -20 -119q0 -65 35.5 -104 t97.5 -39q119 0 197.5 134t78.5 343q0 100 -23 195.5t-73 182.5t-121 152t-174.5 103.5t-226.5 38.5q-184 0 -352.5 -79t-289 -208.5t-192 -302.5t-71.5 -356q0 -204 84.5 -373t236 -267.5t338.5 -98.5q67 0 134 12t115 29t87 34t59 29l19 12l31 -104q-7 -5 -20.5 -13.5 t-59.5 -30.5t-96 -39t-127.5 -30.5t-157.5 -13.5q-138 0 -259 44t-211.5 122t-156 182.5t-98.5 228.5t-33 258q0 168 51 330t145.5 296.5t221 237.5t286.5 160.5t332 57.5q162 0 300.5 -60.5t233 -164.5t147.5 -245t53 -300q0 -177 -60.5 -324.5t-177.5 -237.5t-268 -90z M932 350q95 0 163 89.5t68 205.5q0 67 -32.5 105t-94.5 38q-90 0 -156.5 -84t-66.5 -206q0 -69 31 -108.5t88 -39.5z" />
<glyph unicode="A" horiz-adv-x="1124" d="M866 1229l271 -1229h-267l-45 238h-463l-108 -238h-266l614 1229h264zM694 948l-237 -510h331z" />
<glyph unicode="B" horiz-adv-x="1130" d="M1118 401q0 -189 -124.5 -295t-344.5 -106h-526l172 1229h516q174 0 263 -73.5t89 -209.5q0 -101 -49 -181t-131 -124l-2 -14q66 -25 101.5 -84t35.5 -142zM725 524h-281l-43 -307h281q72 0 121 49.5t49 124.5q0 59 -34.5 96t-92.5 37zM893 889q0 59 -30 91t-87 32h-264 l-41 -295h258q72 0 118 49t46 123z" />
<glyph unicode="C" horiz-adv-x="1040" d="M920 315l114 -190q-6 -6 -17 -16.5t-49 -37t-81 -47t-112.5 -37t-143.5 -16.5q-155 0 -269 74t-170.5 197t-56.5 278q0 147 50 281.5t137.5 234.5t215 159.5t273.5 59.5q74 0 138.5 -15.5t104 -37.5t68 -44.5t40.5 -37.5l12 -16l-168 -191q-3 4 -8.5 11t-25.5 25.5 t-43.5 32t-63 25t-83.5 11.5q-162 0 -274.5 -136t-112.5 -333q0 -150 74.5 -245t198.5 -95q44 0 86 11t70.5 26.5t51 31t33.5 26.5z" />
<glyph unicode="D" horiz-adv-x="1193" d="M1229 707q0 -150 -50.5 -281t-139.5 -225t-216 -147.5t-274 -53.5h-426l172 1229h426q237 0 372.5 -143.5t135.5 -378.5zM672 1012h-160l-111 -795h160q169 0 289.5 127.5t120.5 335.5q0 157 -82.5 244.5t-216.5 87.5z" />
<glyph unicode="E" horiz-adv-x="1005" d="M950 723l-28 -201h-478l-43 -305h568l-31 -217h-815l172 1229h815l-31 -217h-567l-39 -289h477z" />
<glyph unicode="F" horiz-adv-x="1007" d="M948 721l-26 -201h-478l-73 -520h-248l172 1229h821l-31 -217h-573l-41 -291h477z" />
<glyph unicode="G" horiz-adv-x="1202" d="M958 506v4h-280l29 203h555l-21 -150q-37 -268 -204 -429t-412 -161q-153 0 -265 73t-167.5 195.5t-55.5 276.5q0 148 50 282.5t137 235t214 160t273 59.5q80 0 148.5 -16t110 -38.5t71 -45.5t41.5 -39l12 -16l-174 -191q-3 4 -9 11.5t-28.5 26.5t-48.5 33t-69 26t-91 12 q-158 0 -268.5 -136.5t-110.5 -334.5q0 -148 72 -243t190 -95q127 0 211 84t90 213z" />
<glyph unicode="H" horiz-adv-x="1234" d="M1284 1229l-172 -1231h-248l72 512h-494l-71 -512h-248l172 1231h248l-72 -516h494l71 516h248z" />
<glyph unicode="I" horiz-adv-x="493" d="M543 1229l-172 -1229h-248l172 1229h248z" />
<glyph unicode="J" horiz-adv-x="864" d="M33 84l147 199q2 -3 7 -7.5t21 -16t34 -20.5t46 -16.5t58 -7.5q99 0 152.5 60.5t72.5 193.5l107 760h248l-115 -811q-14 -95 -50.5 -174t-95.5 -141t-147.5 -97t-198.5 -35q-58 0 -108.5 11.5t-82 27.5t-54 33.5t-32 28t-9.5 12.5z" />
<glyph unicode="K" horiz-adv-x="1140" d="M543 1229l-76 -547l530 547h301l-4 -27l-489 -497l328 -678l-5 -27h-278l-238 510l-198 -203l-43 -307h-248l172 1229h248z" />
<glyph unicode="L" horiz-adv-x="940" d="M889 0h-766l172 1229h248l-142 -1012h519z" />
<glyph unicode="M" horiz-adv-x="1368" d="M1001 0l105 737l-320 -377h-98l-215 377l-104 -737h-248l174 1229h197l288 -551l443 551h194l-170 -1229h-246z" />
<glyph unicode="N" horiz-adv-x="1253" d="M1303 1229l-173 -1229h-188l-465 772l-108 -772h-246l172 1229h188l465 -776l109 776h246z" />
<glyph unicode="O" horiz-adv-x="1263" d="M627 -29q-149 0 -262 74.5t-171.5 199.5t-58.5 279q0 195 88.5 363t243.5 268t340 100q150 0 263 -73.5t171.5 -198t58.5 -278.5q0 -146 -52 -281t-141 -234.5t-214.5 -159t-265.5 -59.5zM659 211q156 0 269.5 135.5t113.5 331.5q0 150 -74.5 245t-195.5 95 q-153 0 -266 -136t-113 -331q0 -150 73.5 -245t192.5 -95z" />
<glyph unicode="P" horiz-adv-x="1087" d="M784 1229q174 0 276.5 -97t102.5 -258q0 -216 -138 -345.5t-359 -129.5h-240l-55 -399h-248l172 1229h489zM905 850q0 80 -44.5 121t-123.5 41h-225l-55 -398h227q98 0 159.5 61t61.5 175z" />
<glyph unicode="Q" horiz-adv-x="1263" d="M627 -29q-149 0 -262 74.5t-171.5 199.5t-58.5 279q0 195 88.5 363t243.5 268t340 100q150 0 263 -73.5t171.5 -198t58.5 -278.5q0 -209 -103.5 -385t-274.5 -271l98 -266h-272l-62 192q-40 -4 -59 -4zM659 211q156 0 269.5 135.5t113.5 331.5q0 150 -74.5 245t-195.5 95 q-153 0 -266 -136t-113 -331q0 -150 73.5 -245t192.5 -95z" />
<glyph unicode="R" horiz-adv-x="1128" d="M295 1229h489q174 0 276.5 -97t102.5 -258q0 -150 -72.5 -259t-199.5 -166l-4 -21l203 -403l-5 -25h-278l-189 406h-190l-57 -406h-248zM905 850q0 80 -44.5 121t-123.5 41h-225l-55 -394h229q96 0 157.5 60.5t61.5 171.5z" />
<glyph unicode="S" horiz-adv-x="993" d="M70 131l161 188q5 -5 15.5 -13t42.5 -28t65 -35.5t81.5 -28.5t94.5 -13q86 0 129 43.5t43 115.5q0 51 -40.5 86t-149.5 72q-165 57 -244.5 132.5t-79.5 195.5q0 182 126 295.5t360 113.5q84 0 155.5 -13t113.5 -31.5t72.5 -37.5t42.5 -32l11 -13l-160 -202q-4 4 -12 11 t-34 24.5t-55 31t-74 24.5t-91 11q-85 0 -126.5 -37.5t-41.5 -101.5q0 -45 39.5 -75.5t140.5 -68.5q174 -56 257 -135.5t83 -203.5q0 -87 -31.5 -164.5t-91 -138t-154 -95.5t-212.5 -35q-63 0 -120.5 8.5t-100 22.5t-79.5 31t-61.5 34t-41.5 31t-25 22z" />
<glyph unicode="T" horiz-adv-x="991" d="M186 1012l31 217h903l-30 -217h-328l-141 -1012h-248l141 1012h-328z" />
<glyph unicode="U" horiz-adv-x="1200" d="M596 -29q-222 0 -335 155.5t-79 397.5l99 705h247l-98 -705q-20 -140 30.5 -226.5t168.5 -86.5q121 0 195 86.5t94 226.5l98 705h248l-99 -705q-35 -243 -189 -398t-380 -155z" />
<glyph unicode="V" horiz-adv-x="1124" d="M430 0l-270 1229h266l174 -948l442 948h267l-615 -1229h-264z" />
<glyph unicode="W" horiz-adv-x="1507" d="M954 0l-94 791l-307 -791h-193l-167 1229h268l63 -766l301 766h193l88 -768l283 768h270l-514 -1229h-191z" />
<glyph unicode="X" horiz-adv-x="1087" d="M1233 1229l-414 -600l250 -629h-301l-123 393l-33 101l-59 -101l-234 -393h-299l422 629l-243 600h301l121 -373l30 -102l60 102l223 373h299z" />
<glyph unicode="Y" horiz-adv-x="1021" d="M672 801l264 428h270l-504 -748l-67 -481h-248l68 479l-295 750h270l148 -428l30 -111z" />
<glyph unicode="Z" horiz-adv-x="1030" d="M55 0l25 182l700 830h-563l31 217h887l-27 -191l-684 -821h567l-28 -217h-908z" />
<glyph unicode="[" horiz-adv-x="628" d="M63 -266l240 1700h496l-29 -201h-262l-182 -1299h262l-29 -200h-496z" />
<glyph unicode="\" horiz-adv-x="747" d="M418 -262l-139 1896h241l142 -1896h-244z" />
<glyph unicode="]" horiz-adv-x="628" d="M-4 -266l29 200h262l182 1299h-262l29 201h495l-239 -1700h-496z" />
<glyph unicode="^" horiz-adv-x="747" d="M631 1018l-86 213l-150 -213h-182l293 401h129l186 -401h-190z" />
<glyph unicode="_" horiz-adv-x="980" d="M35 -283l28 201h832l-29 -201h-831z" />
<glyph unicode="`" horiz-adv-x="526" d="M381 1018l-139 276l280 41l25 -317h-166z" />
<glyph unicode="a" d="M772 741h10l56 119h161l-120 -860h-162l-23 119h-10q-3 -6 -10 -15t-31 -33t-52 -42.5t-74.5 -33.5t-98.5 -15q-140 0 -226 101.5t-86 270.5q0 149 60.5 271.5t160 190t214.5 67.5q53 0 96 -14.5t67 -35t40.5 -41t21.5 -34.5zM713 481q0 91 -39.5 144t-106.5 53 q-88 0 -149.5 -84t-61.5 -209q0 -90 38.5 -146.5t103.5 -56.5q93 0 154 84t61 215z" />
<glyph unicode="b" d="M96 0l174 1239h246l-67 -475h10q3 5 8 13t25 28t44 35.5t65 28t87 12.5q135 0 218 -105t83 -274q0 -114 -35.5 -212.5t-95 -165.5t-138.5 -105.5t-165 -38.5q-53 0 -96.5 15t-67 36t-39.5 42.5t-21 36.5l-5 15h-11l-55 -125h-164zM385 381q0 -91 38.5 -145t104.5 -54 q88 0 149.5 86.5t61.5 210.5q0 90 -38 144.5t-103 54.5q-92 0 -152.5 -82.5t-60.5 -214.5z" />
<glyph unicode="c" horiz-adv-x="763" d="M471 -20q-169 0 -267 107t-98 278q0 220 140 368t352 148q47 0 88.5 -8t67.5 -19.5t45 -23t27 -19.5l8 -8l-89 -176q-7 6 -20 14.5t-53.5 22.5t-81.5 14q-99 0 -166.5 -81t-67.5 -212q0 -94 45 -148.5t119 -54.5q41 0 83.5 13t64.5 25l22 13l39 -174q-4 -3 -11 -8.5 t-32 -19t-52.5 -24t-72 -19t-90.5 -8.5z" />
<glyph unicode="d" horiz-adv-x="976" d="M731 770h10l66 469h246l-174 -1239h-162l-23 119h-10q-3 -6 -10 -15t-31 -33t-52 -42.5t-74.5 -33.5t-98.5 -15q-140 0 -226 101.5t-86 270.5q0 226 127 377.5t302 151.5q45 0 82 -11.5t57.5 -27.5t34 -32.5t17.5 -27.5zM713 481q0 91 -39.5 144t-106.5 53 q-88 0 -149.5 -84t-61.5 -209q0 -90 38.5 -146.5t103.5 -56.5q93 0 154 84t61 215z" />
<glyph unicode="e" horiz-adv-x="864" d="M729 242l64 -162q-5 -4 -13.5 -11t-38.5 -25.5t-64 -32t-88.5 -25t-111.5 -11.5q-177 0 -274 107t-97 280q0 218 135.5 368.5t331.5 150.5q150 0 234 -96.5t84 -258.5q0 -35 -4.5 -70t-9.5 -53l-5 -18h-528q-12 -215 178 -215q53 0 104.5 18t77.5 36zM541 696 q-121 0 -172 -166h286q5 79 -24 122.5t-90 43.5z" />
<glyph unicode="f" horiz-adv-x="643" d="M737 670h-223l-94 -670h-246l94 670h-151l26 190h152l8 51q25 162 116 252t240 90q52 0 99 -10.5t68 -20.5l22 -10l-103 -182q-26 19 -77 19q-46 0 -79 -34t-40 -91l-8 -64h223z" />
<glyph unicode="g" d="M842 860h157l-114 -803q-27 -190 -149.5 -307t-321.5 -117q-193 0 -301 131l139 152q75 -92 182 -92q177 0 213 227l12 84q-9 -14 -23.5 -29t-43.5 -37t-75.5 -35.5t-102.5 -13.5q-158 0 -242 118t-57 311q27 195 148 313.5t282 118.5q54 0 97.5 -15.5t67 -38t39 -45 t20.5 -38.5l5 -15h10zM504 211q80 0 135 62t70 171q15 110 -22.5 173t-117.5 63q-76 0 -134 -65.5t-73 -170.5q-15 -104 25.5 -168.5t116.5 -64.5z" />
<glyph unicode="h" horiz-adv-x="968" d="M418 522l-72 -522h-248l174 1239h248l-65 -459h8q83 103 227 103q143 0 214 -104.5t46 -278.5l-69 -498h-246l70 496q11 79 -21.5 124.5t-101.5 45.5q-65 0 -110 -41.5t-54 -104.5z" />
<glyph unicode="i" horiz-adv-x="444" d="M362 995q-54 0 -88 33.5t-34 87.5q0 68 48 114t115 46q54 0 89.5 -34.5t35.5 -88.5q0 -68 -49 -113t-117 -45zM98 0l121 860h246l-121 -860h-246z" />
<glyph unicode="j" horiz-adv-x="444" d="M-51 -319l28 204h41q64 0 74 78l127 897h248l-127 -909q-17 -123 -93.5 -196.5t-193.5 -73.5h-104zM360 995q-54 0 -88 33.5t-34 87.5q0 68 47.5 114t113.5 46q56 0 92.5 -35t36.5 -90q0 -66 -51 -111t-117 -45z" />
<glyph unicode="k" horiz-adv-x="890" d="M698 860h295l-336 -373l226 -487h-297l-140 317l-67 -73l-35 -244h-246l174 1239h246l-100 -713z" />
<glyph unicode="l" horiz-adv-x="444" d="M98 0l174 1239h246l-174 -1239h-246z" />
<glyph unicode="m" horiz-adv-x="1499" d="M950 512l-71 -512h-246l69 508q11 75 -21 117.5t-99 42.5t-112 -41.5t-54 -104.5l-72 -522h-246l121 860h152l18 -121h12q107 142 273 142q92 0 157.5 -39t98.5 -111h6q56 74 121 113t153 39q150 0 223 -104.5t48 -278.5l-70 -500h-246l70 498q11 79 -20 124.5t-99 45.5 t-112.5 -44.5t-53.5 -111.5z" />
<glyph unicode="n" horiz-adv-x="968" d="M98 0l121 860h152l18 -121h12q61 75 124 109.5t149 34.5q152 0 226.5 -104.5t49.5 -278.5l-69 -500h-246l70 498q11 79 -21.5 124.5t-101.5 45.5q-65 0 -111 -41.5t-55 -104.5l-72 -522h-246z" />
<glyph unicode="o" horiz-adv-x="933" d="M948 489q0 -112 -40.5 -208.5t-107.5 -161.5t-155 -102t-182 -37q-157 0 -258 104.5t-101 277.5q0 112 40.5 210t107.5 165t155 105.5t183 38.5q156 0 257 -108t101 -284zM489 174q92 0 154 86t62 221q0 93 -38.5 149t-103.5 56q-92 0 -154.5 -87.5t-62.5 -221.5 q0 -94 38.5 -148.5t104.5 -54.5z" />
<glyph unicode="p" horiz-adv-x="976" d="M367 90h-11l-57 -409h-246l166 1179h158l20 -121h11q3 6 10 15.5t31.5 34t53.5 43t76.5 34t100.5 15.5q140 0 225.5 -101.5t85.5 -271.5q0 -226 -125.5 -377t-300.5 -151q-46 0 -83.5 11.5t-58 27.5t-34 32t-17.5 27zM387 379q0 -91 37.5 -144t103.5 -53q90 0 150.5 83.5 t60.5 209.5q0 91 -38 147t-103 56q-90 0 -150.5 -84t-60.5 -215z" />
<glyph unicode="q" d="M999 860l-165 -1179h-246l57 415h-10q-3 -5 -8 -12.5t-24.5 -27.5t-43.5 -35.5t-64.5 -28t-86.5 -12.5q-135 0 -218.5 104.5t-83.5 273.5q0 114 35 212.5t95 166t140 106t169 38.5q54 0 97.5 -15.5t67.5 -38t40 -45t21 -38.5l5 -15h8l58 131h157zM711 479q0 91 -38.5 145 t-105.5 54q-89 0 -150 -86t-61 -211q0 -90 38.5 -144.5t103.5 -54.5q92 0 152.5 82.5t60.5 214.5z" />
<glyph unicode="r" horiz-adv-x="583" d="M680 860l-29 -207h-41q-75 0 -132 -54.5t-70 -145.5l-64 -453h-246l121 860h152l18 -127h10q86 127 238 127h43z" />
<glyph unicode="s" horiz-adv-x="802" d="M63 76l101 168q5 -3 13 -9t34 -20.5t53 -25.5t66 -20t76 -9q116 0 116 82q0 28 -28 48.5t-70 32t-90.5 31t-90.5 43.5t-70 71.5t-28 113.5q0 131 95.5 215t265.5 84q65 0 123.5 -8t96.5 -19t66.5 -22t41.5 -19l12 -8l-98 -182q-4 3 -11.5 8t-32 18t-50.5 23t-65.5 18 t-78.5 8q-111 0 -111 -77q0 -24 21.5 -41t55.5 -28t75.5 -22.5t82.5 -29.5t75 -43t55.5 -68.5t21.5 -101.5q0 -136 -96.5 -221.5t-294.5 -85.5q-68 0 -127 10t-95 24t-62.5 28t-36.5 24z" />
<glyph unicode="t" horiz-adv-x="653" d="M147 860h134l36 262h246l-37 -262h189l-27 -190h-188l-54 -385q-13 -95 66 -95q19 0 39.5 7t31.5 15l11 7l45 -170q-39 -26 -99.5 -47.5t-119.5 -21.5q-135 0 -188 79.5t-33 216.5l55 394h-133z" />
<glyph unicode="u" horiz-adv-x="966" d="M989 860l-121 -860h-166l-24 117h-10q-39 -58 -105 -97.5t-153 -39.5q-150 0 -224 103t-49 277l72 500h246l-72 -500q-11 -84 18.5 -129t96.5 -45q65 0 113.5 43t56.5 101l75 530h246z" />
<glyph unicode="v" horiz-adv-x="868" d="M346 0l-231 860h270l80 -500q7 -38 4 -69h12q2 25 25 69l219 500h268l-471 -860h-176z" />
<glyph unicode="w" horiz-adv-x="1259" d="M1378 860l-405 -860h-209l-47 463q-10 48 -4 96h-11q-5 -45 -30 -96l-178 -463h-207l-164 860h260l45 -500q4 -46 2 -69h12q1 10 5 23t11 30t9 23l178 493h211l41 -493q5 -64 4 -76h10q1 15 23 69l186 500h258z" />
<glyph unicode="x" horiz-adv-x="868" d="M23 0l315 438l-186 422h274l90 -270h6l170 270h275l-324 -422l209 -438h-274l-97 291h-6l-178 -291h-274z" />
<glyph unicode="y" horiz-adv-x="964" d="M682 391l68 469h237l-115 -813q-27 -188 -147 -302t-317 -114q-105 0 -182.5 40t-121.5 93l140 152q75 -92 182 -92q87 0 140 56t67 159l12 82q-33 -43 -94.5 -72t-132.5 -29q-154 0 -228 103.5t-49 279.5l66 457h246l-66 -459q-12 -84 17 -129t98 -45q74 0 122.5 45.5 t57.5 118.5z" />
<glyph unicode="z" horiz-adv-x="808" d="M745 0h-684l19 135l452 527h-374l28 198h680l-18 -123l-434 -538h358z" />
<glyph unicode="{" horiz-adv-x="587" d="M125 680h45q55 0 85 37.5t42 120.5l43 315q43 294 369 311l6 -204q-65 -11 -91.5 -34.5t-35.5 -88.5l-47 -334q-10 -79 -49.5 -134t-98.5 -75l-2 -19q52 -19 75.5 -73.5t12.5 -132.5l-45 -334q-9 -65 10.5 -88.5t79.5 -32.5l-63 -205q-322 14 -279 311l43 314 q12 84 -7.5 122t-74.5 38h-45z" />
<glyph unicode="|" horiz-adv-x="423" d="M524 1407l-235 -1669h-226l236 1669h225z" />
<glyph unicode="}" horiz-adv-x="587" d="M610 680h45l-26 -186h-45q-55 0 -85 -38t-42 -122l-45 -314q-43 -297 -369 -311l-6 205q64 10 91 33.5t36 87.5l47 334q10 78 49 132.5t98 73.5l4 19q-112 41 -90 209l47 334q9 65 -12 88.5t-82 34.5l64 204q325 -17 282 -311l-45 -315q-12 -83 8 -120.5t76 -37.5z" />
<glyph unicode="~" horiz-adv-x="890" d="M674 678q36 0 73.5 12t56.5 24l19 13l56 -152q-10 -9 -28 -23t-77 -37t-121 -23q-51 0 -130.5 32.5t-135.5 32.5q-37 0 -74.5 -12.5t-56.5 -25.5l-18 -13l-56 151q4 3 11 9t30 21t48 26t62.5 20.5t74.5 9.5q52 0 130.5 -32.5t135.5 -32.5z" />
<glyph unicode="&#xa1;" horiz-adv-x="430" d="M360 461l-55 -821h-282l174 821h163zM168 717q0 67 51.5 117.5t118.5 50.5q56 0 92.5 -38.5t36.5 -94.5q0 -67 -51.5 -117.5t-118.5 -50.5q-56 0 -92.5 38.5t-36.5 94.5z" />
<glyph unicode="&#xa2;" horiz-adv-x="802" d="M354 0l45 172q-121 30 -188.5 130.5t-67.5 242.5q0 218 138 365.5t350 150.5l43 168h98l-47 -176q44 -9 81.5 -25.5t52.5 -28.5l15 -12l-90 -180q-42 35 -108 47l-129 -492h12q41 0 83.5 13t64.5 26l22 13l39 -178q-4 -3 -11.5 -8t-32.5 -18.5t-53 -23.5t-72 -18t-89 -8 h-16l-41 -160h-99zM393 565q0 -118 64 -170l118 455q-79 -23 -130.5 -99.5t-51.5 -185.5z" />
<glyph unicode="&#xa3;" horiz-adv-x="968" d="M915 217l-30 -217h-791l31 217q5 2 17.5 9t35 26t42 43t34 63.5t14.5 83.5q0 47 -2 70h-110l24 170h76q-2 20 -2 80q0 209 134.5 345t356.5 136q61 0 116 -13.5t90 -32.5t62 -37.5t39 -31.5l11 -14l-174 -203q-2 4 -6.5 10t-20.5 22t-34 28.5t-47 22.5t-60 10 q-91 0 -143 -69.5t-52 -193.5q0 -7 1 -29.5t1 -29.5h320l-25 -170h-291v-37q0 -149 -77 -258h460z" />
<glyph unicode="&#xa5;" horiz-adv-x="1150" d="M735 801l264 428h271l-402 -594h222l-25 -172h-303l-14 -111h303l-25 -170h-303l-25 -182h-247l24 182h-291l25 170h291l16 111h-293l25 172h209l-234 594h271l147 -428l31 -111z" />
<glyph unicode="&#xa6;" horiz-adv-x="444" d="M428 676h-223l98 702h223zM289 -313h-223l98 700h223z" />
<glyph unicode="&#xa7;" horiz-adv-x="1028" d="M74 94l129 170q5 -4 14.5 -10t41 -22t66.5 -28t89 -22t110 -10q172 0 172 94q0 37 -37.5 61.5t-140.5 59.5q-54 18 -89 31t-81.5 36.5t-74 47.5t-47 60.5t-19.5 78.5q0 108 92 172q-61 52 -61 135q0 139 117.5 223t342.5 84q77 0 145.5 -10t111 -24.5t74 -29t45.5 -24.5 l13 -10l-129 -178q-4 3 -12.5 8.5t-37.5 19.5t-60 24.5t-79.5 19t-98.5 8.5q-146 0 -146 -90q0 -34 32 -57.5t108 -47.5q45 -14 69.5 -22t68 -24.5t69 -30t57.5 -35t49.5 -42.5t30 -49.5t12.5 -60.5q0 -67 -29.5 -116t-60.5 -72q59 -53 59 -136q0 -129 -125 -217t-360 -88 q-84 0 -159 12.5t-122.5 30.5t-82.5 36.5t-50 31.5zM557 707q-9 3 -37 10t-41 12q-24 -19 -24 -59q0 -69 170 -125l116 -39q29 36 29 67q0 18 -11.5 34.5t-28.5 29t-47 25.5t-57 22.5t-69 22.5z" />
<glyph unicode="&#xa8;" horiz-adv-x="860" d="M344 1434q0 53 42.5 95t94.5 42q43 0 74 -33.5t31 -77.5q0 -54 -44 -95.5t-96 -41.5q-42 0 -72 33t-30 78zM682 1434q0 53 43 95t94 42q43 0 73 -32.5t30 -78.5q0 -53 -43 -95t-95 -42q-42 0 -72 33t-30 78z" />
<glyph unicode="&#xa9;" horiz-adv-x="1263" d="M807 1239q152 0 262.5 -72t164.5 -191.5t54 -270.5q0 -142 -48 -272.5t-132.5 -229t-208.5 -157t-268 -58.5q-151 0 -262.5 72t-166.5 192t-55 270q0 143 48.5 273.5t134 228.5t210 156.5t267.5 58.5zM795 1153q-122 0 -227.5 -50t-178.5 -135t-114.5 -198.5 t-41.5 -237.5q0 -129 46.5 -231.5t141 -164.5t222.5 -62q121 0 227 50.5t178.5 135t114 197t41.5 235.5q0 131 -46.5 234t-140.5 165t-222 62zM971 866l-101 -121q-4 5 -11.5 12t-34 19t-56.5 12q-73 0 -122.5 -58t-49.5 -144q0 -66 32.5 -106t90.5 -40q31 0 60 11t42 23 l13 11l67 -123q-3 -3 -9 -8t-26 -18t-43 -23t-59.5 -18t-75.5 -8q-125 0 -194.5 79t-69.5 201q0 157 99.5 267t256.5 110q39 0 73.5 -8t55 -19.5t35.5 -23t21 -19.5z" />
<glyph unicode="&#xaa;" horiz-adv-x="729" d="M156 733q0 111 84 178.5t217 67.5q102 0 143 -41l2 14q11 80 -17.5 120t-103.5 40q-74 0 -168 -43l-32 133q13 6 35.5 15t87 24.5t122.5 15.5q150 0 207.5 -78.5t36.5 -230.5l-55 -387h-123l-17 72h-12q-63 -88 -209 -88q-87 0 -142.5 52.5t-55.5 135.5zM330 754 q0 -39 26 -63.5t78 -24.5q54 0 94 33t50 77l2 8q7 40 -26.5 64t-86.5 24q-67 0 -102 -32.5t-35 -85.5z" />
<glyph unicode="&#xab;" horiz-adv-x="950" d="M113 403l6 46l297 387h205l-5 -19l-286 -381l-2 -16l180 -385l-4 -19h-205zM506 403l6 46l297 387h205l-4 -19l-287 -381l-2 -16l180 -385l-4 -19h-205z" />
<glyph unicode="&#xac;" horiz-adv-x="1050" d="M145 508l29 201h873l-101 -709h-203l72 508h-670z" />
<glyph unicode="&#xad;" horiz-adv-x="708" d="M141 369l29 200h528l-28 -200h-529z" />
<glyph unicode="&#xae;" horiz-adv-x="999" d="M1038 848q0 -145 -62 -269.5t-177.5 -201t-259.5 -76.5q-113 0 -196 56t-124 147.5t-41 204.5q0 145 61.5 269t176.5 200.5t258 76.5q171 0 267.5 -115.5t96.5 -291.5zM950 838q0 145 -77.5 237t-210.5 92q-169 0 -283.5 -128t-114.5 -318q0 -144 78 -238t209 -94 q112 0 204 60t143.5 162.5t51.5 226.5zM469 993h184q66 0 106 -35.5t40 -95.5q0 -94 -80 -143v-4l51 -113l-4 -22h-111l-49 108h-74l-16 -108h-106zM637 893h-76l-16 -109h76q30 0 47.5 16.5t17.5 45.5q0 47 -49 47z" />
<glyph unicode="&#xaf;" horiz-adv-x="991" d="M420 1368l20 150h559l-20 -150h-559z" />
<glyph unicode="&#xb0;" horiz-adv-x="534" d="M461 1378q87 0 138.5 -54t51.5 -138q0 -102 -73 -176t-179 -74q-89 0 -140.5 54t-51.5 138q0 103 73.5 176.5t180.5 73.5zM444 1255q-43 0 -70.5 -32.5t-27.5 -79.5q0 -36 19 -59t53 -23q41 0 69.5 32.5t28.5 77.5q0 36 -19.5 60t-52.5 24z" />
<glyph unicode="&#xb1;" horiz-adv-x="970" d="M643 379h-203l43 309h-290l26 199h291l47 323h203l-47 -323h284l-26 -199h-285zM909 250l-28 -201h-779l29 201h778z" />
<glyph unicode="&#xb2;" horiz-adv-x="626" d="M186 700l19 127l256 224q61 54 61 108q0 32 -17 52t-50 20q-15 0 -28.5 -3.5t-29 -12t-24 -14.5t-27 -20t-24.5 -18l-72 129q4 4 11 10t30.5 22.5t49 29t65 22.5t79.5 10q104 0 158.5 -55.5t54.5 -140.5q0 -128 -102 -215l-156 -133h222l-21 -142h-455z" />
<glyph unicode="&#xb3;" horiz-adv-x="598" d="M250 1225l20 143h435l-17 -106l-129 -154q109 -36 109 -160q0 -113 -76 -188.5t-215 -75.5q-135 0 -209 90l102 119q4 -6 12.5 -15.5t40 -25.5t68.5 -16q53 0 81 28t28 70q0 65 -78 65h-84l12 80l123 146h-223z" />
<glyph unicode="&#xb4;" horiz-adv-x="528" d="M637 1288l-252 -270h-160l133 297z" />
<glyph unicode="&#xb5;" horiz-adv-x="976" d="M305 -262h-244l78 551q0 33 6 71l72 500h246l-51 -352h2l-27 -180q-3 -142 119 -142q65 0 113.5 43t56.5 101l76 530h245l-120 -860h-166l-25 117h-10q-39 -58 -105 -97.5t-153 -39.5q-40 0 -78 10z" />
<glyph unicode="&#xb6;" horiz-adv-x="1040" d="M649 -168l60 418h-101q-205 0 -330.5 112t-125.5 314q0 132 46.5 238.5t127.5 175t188 105t231 36.5h349l-197 -1399h-248z" />
<glyph unicode="&#xb7;" horiz-adv-x="430" d="M170 717q0 69 51 119.5t117 50.5q55 0 92 -38.5t37 -94.5q0 -69 -51.5 -118.5t-120.5 -49.5q-54 0 -89.5 37.5t-35.5 93.5z" />
<glyph unicode="&#xb8;" horiz-adv-x="387" d="M111 -150l-33 46l65 110h113l-35 -67q46 -2 74.5 -31.5t28.5 -81.5q0 -75 -52 -124.5t-139 -49.5q-32 0 -59.5 6.5t-45 16t-30 19.5t-18.5 16l-5 7l68 86q2 -1 13 -9.5t14.5 -11t13.5 -8.5t16.5 -8t17 -4t21.5 -2q33 0 51.5 15.5t18.5 42.5q0 20 -13 30.5t-34 10.5 q-14 0 -26.5 -2.5t-18.5 -4.5z" />
<glyph unicode="&#xb9;" horiz-adv-x="417" d="M211 1225l20 143h279l-94 -668h-162l74 525h-117z" />
<glyph unicode="&#xba;" horiz-adv-x="727" d="M539 1255q118 0 191 -82t73 -219q0 -177 -106.5 -290t-258.5 -113q-118 0 -191 81t-73 214q0 179 107.5 294t257.5 115zM518 1108q-77 0 -124.5 -71t-47.5 -179q0 -73 30 -116.5t85 -43.5q78 0 125 70t47 178q0 74 -29.5 118t-85.5 44z" />
<glyph unicode="&#xbb;" horiz-adv-x="950" d="M565 449l-6 -46l-297 -387h-205l2 19l289 385l2 16l-180 381l2 19h205zM958 449l-6 -46l-297 -387h-204l2 19l288 385l2 16l-180 381l2 19h205z" />
<glyph unicode="&#xbc;" horiz-adv-x="1230" d="M248 -2l-193 2l1065 1229h195zM240 1085l20 144h281l-92 -668h-162l71 524h-118zM621 141l14 105l395 411h123l-55 -383h94l-18 -133h-95l-20 -141h-156l21 141h-303zM868 317q-7 -10 -17.5 -22t-16.5 -19l-7 -6l52 4h63l19 121l8 47h-4z" />
<glyph unicode="&#xbd;" horiz-adv-x="1331" d="M248 0h-195l1065 1229h197zM825 127l-18 -127h455l20 141h-221l156 133q102 87 102 215q0 85 -54.5 141t-158.5 56q-39 0 -78 -9.5t-66 -23.5t-48 -28t-32 -23l-10 -10l70 -129q6 4 31 22t35 24t29.5 13.5t37.5 7.5q33 0 50.5 -19.5t17.5 -51.5q0 -55 -62 -109zM248 1085 l20 144h279l-92 -668h-160l72 524h-119z" />
<glyph unicode="&#xbe;" horiz-adv-x="1316" d="M356 0h-196l1069 1229h194zM721 141l14 105l395 411h123l-55 -383h94l-18 -133h-94l-21 -141h-155l20 141h-303zM231 1085l21 144h434l-16 -107l-131 -153q110 -35 110 -160q0 -113 -76 -188.5t-215 -75.5q-48 0 -88.5 11.5t-66 30.5t-35 28t-17.5 19h-1v1l102 119 q4 -6 12.5 -16t39.5 -26t67 -16q55 0 81.5 28t26.5 71q0 65 -76 65h-84l13 80l123 145h-224zM969 317q-7 -10 -17.5 -22t-17.5 -19l-6 -6l51 4h63l19 121l8 47h-4z" />
<glyph unicode="&#xbf;" horiz-adv-x="827" d="M647 -70l101 -198q-5 -5 -14.5 -13t-43 -28.5t-71 -36t-97 -28.5t-121.5 -13q-163 0 -259.5 79t-96.5 216q0 93 32.5 164t81 114.5t98 78.5t91.5 76t53 87l11 43h196l-8 -65q-8 -62 -38 -112.5t-67 -84t-73 -66.5t-60 -75.5t-24 -94.5q0 -55 33 -86.5t92 -31.5 q43 0 89 18.5t70 37.5zM690 758q0 -67 -49.5 -114.5t-114.5 -47.5q-52 0 -87.5 36.5t-35.5 90.5q0 66 50 115t114 49q53 0 88 -37t35 -92z" />
<glyph unicode="&#xc0;" horiz-adv-x="1124" d="M866 1229l271 -1229h-267l-45 238h-463l-108 -238h-266l614 1229h264zM694 948l-237 -510h331zM653 1300l-139 277l281 41l24 -318h-166z" />
<glyph unicode="&#xc1;" horiz-adv-x="1124" d="M866 1229l271 -1229h-267l-45 238h-463l-108 -238h-266l614 1229h264zM694 948l-237 -510h331zM1077 1571l-252 -271h-159l133 297z" />
<glyph unicode="&#xc2;" horiz-adv-x="1124" d="M866 1229l271 -1229h-267l-45 238h-463l-108 -238h-266l614 1229h264zM694 948l-237 -510h331zM834 1323l-66 127l-100 -127h-170l196 268h189l123 -268h-172z" />
<glyph unicode="&#xc3;" horiz-adv-x="1124" d="M866 1229l271 -1229h-267l-45 238h-463l-108 -238h-266l614 1229h264zM694 948l-237 -510h331zM895 1329q-39 0 -75 13.5t-58 30.5t-48.5 30.5t-47.5 13.5q-26 0 -41 -16t-27 -47l-12 -33l-170 16l20 70q28 91 84 144t139 53q49 0 92 -23t77 -45.5t61 -22.5q47 0 69 64 l13 33l170 -17l-21 -67q-28 -91 -85 -144t-140 -53z" />
<glyph unicode="&#xc4;" horiz-adv-x="1124" d="M866 1229l271 -1229h-267l-45 238h-463l-108 -238h-266l614 1229h264zM694 948l-237 -510h331zM477 1434q0 53 42.5 95t94.5 42q43 0 74 -33.5t31 -77.5q0 -54 -43.5 -95.5t-95.5 -41.5q-42 0 -72.5 33t-30.5 78zM815 1434q0 53 43 95t94 42q43 0 73 -32.5t30 -78.5 q0 -53 -42.5 -95t-94.5 -42q-42 0 -72.5 33t-30.5 78z" />
<glyph unicode="&#xc5;" horiz-adv-x="1124" d="M866 1229l271 -1229h-267l-45 238h-463l-108 -238h-266l614 1229h264zM694 948l-237 -510h331zM549 1444q11 82 74.5 133t167.5 51t152.5 -50.5t37.5 -133.5q-11 -82 -75.5 -133t-168.5 -51t-151.5 50.5t-36.5 133.5zM850 1444q5 35 -15 54.5t-61 19.5q-40 0 -65 -19.5 t-29 -54.5q-9 -74 74 -74q87 0 96 74z" />
<glyph unicode="&#xc6;" horiz-adv-x="1687" d="M-29 0l940 1229h883l-31 -217h-598l-41 -295h478l-29 -201h-477l-41 -299h598l-31 -217h-846l35 248h-369l-176 -248h-295zM893 874l-303 -421h250l59 421h-6z" />
<glyph unicode="&#xc7;" horiz-adv-x="1040" d="M524 -150l-32 46l49 84q-192 30 -299 178.5t-107 361.5q0 147 50 281.5t137.5 234.5t215 159.5t273.5 59.5q74 0 138.5 -15.5t104 -37.5t68 -44.5t40.5 -37.5l12 -16l-168 -191q-3 4 -8.5 11t-25.5 25.5t-43.5 32t-63 25t-83.5 11.5q-162 0 -274.5 -136t-112.5 -333 q0 -150 74.5 -245t198.5 -95q44 0 86 11t70.5 26.5t51 31t33.5 26.5l11 11l114 -190q-5 -6 -15.5 -16t-47 -35.5t-77.5 -45.5t-107 -37.5t-136 -19.5l-16 -32q46 -2 74 -31.5t28 -81.5q0 -75 -51.5 -124.5t-138.5 -49.5q-32 0 -59.5 6.5t-45 16t-30 19.5t-18.5 16l-5 7 l68 86q2 -1 13 -9.5t14.5 -11t13.5 -8.5t16.5 -8t17 -4t21.5 -2q33 0 51.5 15.5t18.5 42.5q0 20 -13.5 30.5t-34.5 10.5q-14 0 -26.5 -2.5t-18.5 -4.5z" />
<glyph unicode="&#xc8;" horiz-adv-x="1005" d="M950 723l-28 -201h-478l-43 -305h568l-31 -217h-815l172 1229h815l-31 -217h-567l-39 -289h477zM659 1300l-139 277l281 41l24 -318h-166z" />
<glyph unicode="&#xc9;" horiz-adv-x="1005" d="M1059 1571l-252 -271h-160l133 297zM950 723l-28 -201h-478l-43 -305h568l-31 -217h-815l172 1229h815l-31 -217h-567l-39 -289h477z" />
<glyph unicode="&#xca;" horiz-adv-x="1005" d="M821 1323l-65 127l-101 -127h-170l197 268h188l123 -268h-172zM950 723l-28 -201h-478l-43 -305h568l-31 -217h-815l172 1229h815l-31 -217h-567l-39 -289h477z" />
<glyph unicode="&#xcb;" horiz-adv-x="1005" d="M467 1434q0 53 42.5 95t94.5 42q43 0 74 -33.5t31 -77.5q0 -54 -44 -95.5t-96 -41.5q-42 0 -72 33t-30 78zM805 1434q0 53 43 95t94 42q43 0 72.5 -32.5t29.5 -78.5q0 -53 -42.5 -95t-94.5 -42q-42 0 -72 33t-30 78zM950 723l-28 -201h-478l-43 -305h568l-31 -217h-815 l172 1229h815l-31 -217h-567l-39 -289h477z" />
<glyph unicode="&#xcc;" horiz-adv-x="493" d="M543 1229l-172 -1229h-248l172 1229h248zM336 1300l-139 277l280 41l25 -318h-166z" />
<glyph unicode="&#xcd;" horiz-adv-x="493" d="M543 1229l-172 -1229h-248l172 1229h248zM760 1571l-252 -271h-160l133 297z" />
<glyph unicode="&#xce;" horiz-adv-x="493" d="M543 1229l-172 -1229h-248l172 1229h248zM520 1323l-65 127l-101 -127h-170l197 268h188l123 -268h-172z" />
<glyph unicode="&#xcf;" horiz-adv-x="493" d="M543 1229l-172 -1229h-248l172 1229h248zM162 1434q0 53 42.5 95t94.5 42q42 0 73 -33t31 -78q0 -54 -43.5 -95.5t-95.5 -41.5q-42 0 -72 33t-30 78zM500 1434q0 53 43 95t94 42q43 0 72.5 -32.5t29.5 -78.5q0 -53 -42.5 -95t-94.5 -42q-42 0 -72 33t-30 78z" />
<glyph unicode="&#xd0;" horiz-adv-x="1198" d="M102 512l31 221h92l70 496h426q237 0 372.5 -143.5t135.5 -378.5q0 -150 -50.5 -281t-139.5 -225t-216 -147.5t-274 -53.5h-426l72 512h-93zM672 1012h-160l-39 -279h238l-31 -221h-238l-41 -295h160q169 0 289.5 127.5t120.5 335.5q0 157 -82.5 244.5t-216.5 87.5z" />
<glyph unicode="&#xd1;" horiz-adv-x="1253" d="M1303 1229l-173 -1229h-188l-465 772l-108 -772h-246l172 1229h188l465 -776l109 776h246zM958 1329q-39 0 -75 13.5t-58 30.5t-48.5 30.5t-47.5 13.5q-26 0 -40.5 -16t-26.5 -47l-13 -33l-170 16l21 70q28 91 84 144t139 53q49 0 92 -23t76.5 -45.5t60.5 -22.5 q48 0 70 64l12 33l170 -17l-20 -67q-27 -90 -85 -143.5t-141 -53.5z" />
<glyph unicode="&#xd2;" horiz-adv-x="1263" d="M627 -29q-149 0 -262 74.5t-171.5 199.5t-58.5 279q0 195 88.5 363t243.5 268t340 100q150 0 263 -73.5t171.5 -198t58.5 -278.5q0 -146 -52 -281t-141 -234.5t-214.5 -159t-265.5 -59.5zM659 211q156 0 269.5 135.5t113.5 331.5q0 150 -74.5 245t-195.5 95 q-153 0 -266 -136t-113 -331q0 -150 73.5 -245t192.5 -95zM731 1323l-139 276l280 41l25 -317h-166z" />
<glyph unicode="&#xd3;" horiz-adv-x="1263" d="M1141 1593l-252 -270h-160l133 297zM627 -29q-149 0 -262 74.5t-171.5 199.5t-58.5 279q0 195 88.5 363t243.5 268t340 100q150 0 263 -73.5t171.5 -198t58.5 -278.5q0 -146 -52 -281t-141 -234.5t-214.5 -159t-265.5 -59.5zM659 211q156 0 269.5 135.5t113.5 331.5 q0 150 -74.5 245t-195.5 95q-153 0 -266 -136t-113 -331q0 -150 73.5 -245t192.5 -95z" />
<glyph unicode="&#xd4;" horiz-adv-x="1263" d="M903 1323l-65 127l-101 -127h-170l197 268h188l123 -268h-172zM627 -29q-149 0 -262 74.5t-171.5 199.5t-58.5 279q0 195 88.5 363t243.5 268t340 100q150 0 263 -73.5t171.5 -198t58.5 -278.5q0 -146 -52 -281t-141 -234.5t-214.5 -159t-265.5 -59.5zM659 211 q156 0 269.5 135.5t113.5 331.5q0 150 -74.5 245t-195.5 95q-153 0 -266 -136t-113 -331q0 -150 73.5 -245t192.5 -95z" />
<glyph unicode="&#xd5;" horiz-adv-x="1263" d="M627 -29q-149 0 -262 74.5t-171.5 199.5t-58.5 279q0 195 88.5 363t243.5 268t340 100q150 0 263 -73.5t171.5 -198t58.5 -278.5q0 -146 -52 -281t-141 -234.5t-214.5 -159t-265.5 -59.5zM659 211q156 0 269.5 135.5t113.5 331.5q0 150 -74.5 245t-195.5 95 q-153 0 -266 -136t-113 -331q0 -150 73.5 -245t192.5 -95zM958 1329q-39 0 -75 13.5t-58 30.5t-48.5 30.5t-47.5 13.5q-26 0 -40.5 -16t-26.5 -47l-13 -33l-170 16l21 70q28 91 84 144t139 53q49 0 92 -23t76.5 -45.5t60.5 -22.5q48 0 70 64l12 33l170 -17l-20 -67 q-27 -90 -85 -143.5t-141 -53.5z" />
<glyph unicode="&#xd6;" horiz-adv-x="1263" d="M547 1434q0 53 42.5 95t94.5 42q42 0 73 -33t31 -78q0 -54 -43.5 -95.5t-95.5 -41.5q-42 0 -72 33t-30 78zM885 1434q0 53 43 95t94 42q43 0 72.5 -32.5t29.5 -78.5q0 -53 -42.5 -95t-94.5 -42q-42 0 -72 33t-30 78zM627 -29q-149 0 -262 74.5t-171.5 199.5t-58.5 279 q0 195 88.5 363t243.5 268t340 100q150 0 263 -73.5t171.5 -198t58.5 -278.5q0 -146 -52 -281t-141 -234.5t-214.5 -159t-265.5 -59.5zM659 211q156 0 269.5 135.5t113.5 331.5q0 150 -74.5 245t-195.5 95q-153 0 -266 -136t-113 -331q0 -150 73.5 -245t192.5 -95z" />
<glyph unicode="&#xd7;" horiz-adv-x="958" d="M244 184l-119 140l307 292l-225 295l160 140l219 -287l301 287l119 -140l-308 -295l226 -292l-160 -140l-219 287z" />
<glyph unicode="&#xd8;" horiz-adv-x="1296" d="M643 -29q-193 0 -324 121l-94 -92h-254l244 236q-63 129 -63 288q0 146 52.5 280.5t141.5 233.5t214 158t263 59q191 0 322 -118l94 92h254l-242 -234q66 -129 66 -290q0 -146 -52.5 -281t-141.5 -234.5t-214.5 -159t-265.5 -59.5zM676 211q156 0 269.5 135.5 t113.5 331.5q0 62 -15 117l-534 -521q66 -63 166 -63zM410 551q0 -63 12 -115l532 516q-69 66 -166 66q-153 0 -265.5 -136t-112.5 -331z" />
<glyph unicode="&#xd9;" horiz-adv-x="1200" d="M596 -29q-222 0 -335 155.5t-79 397.5l99 705h247l-98 -705q-20 -140 30.5 -226.5t168.5 -86.5q121 0 195 86.5t94 226.5l98 705h248l-99 -705q-35 -243 -189 -398t-380 -155zM692 1300l-139 277l281 41l24 -318h-166z" />
<glyph unicode="&#xda;" horiz-adv-x="1200" d="M1106 1571l-252 -271h-160l133 297zM596 -29q-222 0 -335 155.5t-79 397.5l99 705h247l-98 -705q-20 -140 30.5 -226.5t168.5 -86.5q121 0 195 86.5t94 226.5l98 705h248l-99 -705q-35 -243 -189 -398t-380 -155z" />
<glyph unicode="&#xdb;" horiz-adv-x="1200" d="M868 1300l-65 127l-101 -127h-170l197 269h189l122 -269h-172zM596 -29q-222 0 -335 155.5t-79 397.5l99 705h247l-98 -705q-20 -140 30.5 -226.5t168.5 -86.5q121 0 195 86.5t94 226.5l98 705h248l-99 -705q-35 -243 -189 -398t-380 -155z" />
<glyph unicode="&#xdc;" horiz-adv-x="1200" d="M518 1434q0 53 42.5 95t94.5 42q43 0 74 -33.5t31 -77.5q0 -54 -43.5 -95.5t-95.5 -41.5q-42 0 -72.5 33t-30.5 78zM856 1434q0 53 43 95t94 42q43 0 73 -32.5t30 -78.5q0 -53 -43 -95t-95 -42q-42 0 -72 33t-30 78zM596 -29q-222 0 -335 155.5t-79 397.5l99 705h247 l-98 -705q-20 -140 30.5 -226.5t168.5 -86.5q121 0 195 86.5t94 226.5l98 705h248l-99 -705q-35 -243 -189 -398t-380 -155z" />
<glyph unicode="&#xdd;" horiz-adv-x="1021" d="M672 801l264 428h270l-504 -748l-67 -481h-248l68 479l-295 750h270l148 -428l30 -111zM1032 1638l-252 -270h-159l133 297z" />
<glyph unicode="&#xde;" horiz-adv-x="1105" d="M543 1229l-25 -187h256q183 0 286 -94.5t103 -263.5q0 -158 -70 -273t-188 -172t-268 -57h-240l-26 -182h-248l172 1229h248zM903 645q0 86 -49.5 133t-134.5 47h-232l-61 -432h233q110 0 177 64.5t67 187.5z" />
<glyph unicode="&#xdf;" horiz-adv-x="940" d="M518 512l25 174q85 18 124.5 65t49.5 121q11 70 -15.5 112t-85.5 42q-128 0 -151 -158l-121 -868h-246l119 850q26 180 144 282.5t288 102.5q164 0 254.5 -103.5t69.5 -252.5q-12 -87 -54.5 -153t-105.5 -101q69 -32 100 -107.5t17 -175.5q-23 -160 -129.5 -257 t-261.5 -97q-43 0 -70.5 3t-34.5 6l-6 3l27 162q39 -4 55 -4q78 0 129 48t63 130q11 83 -26 129.5t-113 46.5h-45z" />
<glyph unicode="&#xe0;" d="M772 741h10l56 119h161l-120 -860h-162l-23 119h-10q-3 -6 -10 -15t-31 -33t-52 -42.5t-74.5 -33.5t-98.5 -15q-140 0 -226 101.5t-86 270.5q0 149 60.5 271.5t160 190t214.5 67.5q53 0 96 -14.5t67 -35t40.5 -41t21.5 -34.5zM713 481q0 91 -39.5 144t-106.5 53 q-88 0 -149.5 -84t-61.5 -209q0 -90 38.5 -146.5t103.5 -56.5q93 0 154 84t61 215zM532 1018l-139 276l281 41l24 -317h-166z" />
<glyph unicode="&#xe1;" d="M772 741h10l56 119h161l-120 -860h-162l-23 119h-10q-3 -6 -10 -15t-31 -33t-52 -42.5t-74.5 -33.5t-98.5 -15q-140 0 -226 101.5t-86 270.5q0 149 60.5 271.5t160 190t214.5 67.5q53 0 96 -14.5t67 -35t40.5 -41t21.5 -34.5zM713 481q0 91 -39.5 144t-106.5 53 q-88 0 -149.5 -84t-61.5 -209q0 -90 38.5 -146.5t103.5 -56.5q93 0 154 84t61 215zM932 1288l-252 -270h-160l133 297z" />
<glyph unicode="&#xe2;" d="M772 741h10l56 119h161l-120 -860h-162l-23 119h-10q-3 -6 -10 -15t-31 -33t-52 -42.5t-74.5 -33.5t-98.5 -15q-140 0 -226 101.5t-86 270.5q0 149 60.5 271.5t160 190t214.5 67.5q53 0 96 -14.5t67 -35t40.5 -41t21.5 -34.5zM713 481q0 91 -39.5 144t-106.5 53 q-88 0 -149.5 -84t-61.5 -209q0 -90 38.5 -146.5t103.5 -56.5q93 0 154 84t61 215zM700 1040l-65 127l-100 -127h-170l196 269h189l122 -269h-172z" />
<glyph unicode="&#xe3;" d="M772 741h10l56 119h161l-120 -860h-162l-23 119h-10q-3 -6 -10 -15t-31 -33t-52 -42.5t-74.5 -33.5t-98.5 -15q-140 0 -226 101.5t-86 270.5q0 149 60.5 271.5t160 190t214.5 67.5q53 0 96 -14.5t67 -35t40.5 -41t21.5 -34.5zM713 481q0 91 -39.5 144t-106.5 53 q-88 0 -149.5 -84t-61.5 -209q0 -90 38.5 -146.5t103.5 -56.5q93 0 154 84t61 215zM752 1026q-49 0 -92.5 22t-77.5 44t-60 22t-40.5 -16t-26.5 -47l-13 -33l-170 16l21 70q28 91 84 143.5t139 52.5q39 0 74.5 -14t57.5 -31t48.5 -31t48.5 -14q48 0 70 64l12 33l170 -17 l-20 -67q-28 -91 -85 -144t-140 -53z" />
<glyph unicode="&#xe4;" d="M772 741h10l56 119h161l-120 -860h-162l-23 119h-10q-3 -6 -10 -15t-31 -33t-52 -42.5t-74.5 -33.5t-98.5 -15q-140 0 -226 101.5t-86 270.5q0 149 60.5 271.5t160 190t214.5 67.5q53 0 96 -14.5t67 -35t40.5 -41t21.5 -34.5zM713 481q0 91 -39.5 144t-106.5 53 q-88 0 -149.5 -84t-61.5 -209q0 -90 38.5 -146.5t103.5 -56.5q93 0 154 84t61 215zM336 1128q0 53 42.5 95.5t94.5 42.5q43 0 74 -33.5t31 -77.5q0 -54 -44 -95.5t-96 -41.5q-42 0 -72 32.5t-30 77.5zM674 1128q0 53 43.5 95.5t93.5 42.5q43 0 72.5 -32.5t29.5 -78.5 q0 -53 -42.5 -95t-94.5 -42q-42 0 -72 32.5t-30 77.5z" />
<glyph unicode="&#xe5;" d="M772 741h10l56 119h161l-120 -860h-162l-23 119h-10q-3 -6 -10 -15t-31 -33t-52 -42.5t-74.5 -33.5t-98.5 -15q-140 0 -226 101.5t-86 270.5q0 149 60.5 271.5t160 190t214.5 67.5q53 0 96 -14.5t67 -35t40.5 -41t21.5 -34.5zM713 481q0 91 -39.5 144t-106.5 53 q-88 0 -149.5 -84t-61.5 -209q0 -90 38.5 -146.5t103.5 -56.5q93 0 154 84t61 215zM418 1196q11 82 74 133t167 51t153 -50.5t38 -133.5q-11 -82 -75.5 -133t-168.5 -51t-151.5 50.5t-36.5 133.5zM719 1196q5 35 -15 54.5t-61 19.5q-40 0 -65 -19.5t-29 -54.5q-9 -74 74 -74 q87 0 96 74z" />
<glyph unicode="&#xe6;" horiz-adv-x="1368" d="M1233 246l59 -162q-4 -4 -12.5 -11t-38.5 -25t-63.5 -32t-87.5 -25t-111 -11q-190 0 -285 112q-128 -112 -332 -112q-145 0 -218.5 64.5t-73.5 166.5q0 145 96 229t301 84q88 0 156 -22l4 28q10 77 -32 117.5t-124 40.5q-47 0 -100 -17.5t-82 -34.5l-29 -18l-53 185 q6 3 16 8.5t43.5 19t69 23.5t88 18.5t104.5 8.5q188 0 271 -103q124 103 276 103q171 0 254.5 -117t54.5 -311l-10 -68h-528q-4 -106 42.5 -158.5t135.5 -52.5q54 0 106 18t78 36zM418 147q76 0 123 51.5t57 129.5l4 34q-58 25 -133 25q-78 0 -118 -38.5t-40 -104.5 q0 -97 107 -97zM1042 696q-121 0 -172 -166h287q5 79 -24.5 122.5t-90.5 43.5z" />
<glyph unicode="&#xe7;" horiz-adv-x="763" d="M342 -150l-33 46l58 96q-123 30 -192 131t-69 242q0 220 140 368t352 148q47 0 88.5 -8t67.5 -19.5t45 -23t27 -19.5l8 -8l-89 -176q-7 6 -20 14.5t-53.5 22.5t-81.5 14q-99 0 -166.5 -81t-67.5 -212q0 -94 45 -148.5t119 -54.5q41 0 83.5 13t64.5 25l22 13l39 -174 q-4 -3 -11 -8.5t-32 -18.5t-52.5 -23.5t-71 -19t-89.5 -9.5l-20 -41q46 -2 74 -31.5t28 -81.5q0 -75 -51.5 -124.5t-138.5 -49.5q-32 0 -59.5 6.5t-45 16t-30 19.5t-18.5 16l-5 7l67 86q3 -2 10 -7.5t10.5 -8t10.5 -7t11 -6.5t11.5 -5.5t13.5 -5t14 -2.5t16 -1q33 0 51 15.5 t18 42.5q0 20 -13 30.5t-34 10.5q-14 0 -26.5 -2.5t-18.5 -4.5z" />
<glyph unicode="&#xe8;" horiz-adv-x="864" d="M729 242l64 -162q-5 -4 -13.5 -11t-38.5 -25.5t-64 -32t-88.5 -25t-111.5 -11.5q-177 0 -274 107t-97 280q0 218 135.5 368.5t331.5 150.5q150 0 234 -96.5t84 -258.5q0 -35 -4.5 -70t-9.5 -53l-5 -18h-528q-12 -215 178 -215q53 0 104.5 18t77.5 36zM541 696 q-121 0 -172 -166h286q5 79 -24 122.5t-90 43.5zM481 1018l-139 276l281 41l24 -317h-166z" />
<glyph unicode="&#xe9;" horiz-adv-x="864" d="M926 1288l-252 -270h-160l133 297zM729 242l64 -162q-5 -4 -13.5 -11t-38.5 -25.5t-64 -32t-88.5 -25t-111.5 -11.5q-177 0 -274 107t-97 280q0 218 135.5 368.5t331.5 150.5q150 0 234 -96.5t84 -258.5q0 -35 -4.5 -70t-9.5 -53l-5 -18h-528q-12 -215 178 -215 q53 0 104.5 18t77.5 36zM541 696q-121 0 -172 -166h286q5 79 -24 122.5t-90 43.5z" />
<glyph unicode="&#xea;" horiz-adv-x="864" d="M674 1018l-66 127l-100 -127h-170l197 268h188l123 -268h-172zM729 242l64 -162q-5 -4 -13.5 -11t-38.5 -25.5t-64 -32t-88.5 -25t-111.5 -11.5q-177 0 -274 107t-97 280q0 218 135.5 368.5t331.5 150.5q150 0 234 -96.5t84 -258.5q0 -35 -4.5 -70t-9.5 -53l-5 -18h-528 q-12 -215 178 -215q53 0 104.5 18t77.5 36zM541 696q-121 0 -172 -166h286q5 79 -24 122.5t-90 43.5z" />
<glyph unicode="&#xeb;" horiz-adv-x="864" d="M313 1083q0 53 43 95.5t95 42.5q42 0 73 -33t31 -78q0 -54 -43.5 -95.5t-95.5 -41.5q-42 0 -72.5 32.5t-30.5 77.5zM651 1083q0 53 43.5 95.5t93.5 42.5q43 0 73 -32.5t30 -78.5q0 -53 -42.5 -95t-94.5 -42q-42 0 -72.5 32.5t-30.5 77.5zM729 242l64 -162 q-5 -4 -13.5 -11t-38.5 -25.5t-64 -32t-88.5 -25t-111.5 -11.5q-177 0 -274 107t-97 280q0 218 135.5 368.5t331.5 150.5q150 0 234 -96.5t84 -258.5q0 -35 -4.5 -70t-9.5 -53l-5 -18h-528q-12 -215 178 -215q53 0 104.5 18t77.5 36zM541 696q-121 0 -172 -166h286 q5 79 -24 122.5t-90 43.5z" />
<glyph unicode="&#xec;" horiz-adv-x="444" d="M98 0l121 860h246l-121 -860h-246zM270 1018l-139 276l281 41l24 -317h-166z" />
<glyph unicode="&#xed;" horiz-adv-x="444" d="M698 1288l-252 -270h-159l133 297zM98 0l121 860h246l-121 -860h-246z" />
<glyph unicode="&#xee;" horiz-adv-x="444" d="M455 1040l-66 127l-100 -127h-170l196 269h189l123 -269h-172zM98 0l121 860h246l-121 -860h-246z" />
<glyph unicode="&#xef;" horiz-adv-x="444" d="M102 1149q0 53 43 95t95 42q43 0 73.5 -33t30.5 -77q0 -54 -43.5 -96t-95.5 -42q-42 0 -72.5 33t-30.5 78zM440 1149q0 53 43.5 95t94.5 42q43 0 72.5 -32t29.5 -78q0 -53 -42.5 -95.5t-94.5 -42.5q-42 0 -72.5 33t-30.5 78zM98 0l121 860h246l-121 -860h-246z" />
<glyph unicode="&#xf0;" horiz-adv-x="954" d="M473 -23q-169 0 -269 103t-100 278q0 225 141.5 373t354.5 148q19 0 29 -2v6q-24 39 -47 90l-33 86l-201 -121l-59 135l207 125l-105 270l4 23h236l67 -170l220 131l59 -133l-223 -135l153 -377q41 -110 54.5 -187.5t3.5 -173.5l-2 -18q-25 -205 -160 -328t-330 -123z M719 479q0 93 -39.5 145t-108.5 52q-93 0 -155 -82.5t-62 -210.5q0 -92 40.5 -147.5t107.5 -55.5q95 0 156 84t61 215z" />
<glyph unicode="&#xf1;" horiz-adv-x="968" d="M98 0l121 860h152l18 -121h12q61 75 124 109.5t149 34.5q152 0 226.5 -104.5t49.5 -278.5l-69 -500h-246l70 498q11 79 -21.5 124.5t-101.5 45.5q-65 0 -111 -41.5t-55 -104.5l-72 -522h-246zM766 1047q-39 0 -75 13.5t-58 30.5t-48.5 30.5t-47.5 13.5q-26 0 -41 -16.5 t-27 -47.5l-12 -33l-170 17l20 69q28 91 84 144t139 53q49 0 92 -22.5t77 -45t61 -22.5q47 0 69 63l13 33l170 -16l-21 -68q-27 -90 -84.5 -143t-140.5 -53z" />
<glyph unicode="&#xf2;" horiz-adv-x="933" d="M948 489q0 -112 -40.5 -208.5t-107.5 -161.5t-155 -102t-182 -37q-157 0 -258 104.5t-101 277.5q0 112 40.5 210t107.5 165t155 105.5t183 38.5q156 0 257 -108t101 -284zM489 174q92 0 154 86t62 221q0 93 -38.5 149t-103.5 56q-92 0 -154.5 -87.5t-62.5 -221.5 q0 -94 38.5 -148.5t104.5 -54.5zM520 1018l-139 276l281 41l24 -317h-166z" />
<glyph unicode="&#xf3;" horiz-adv-x="933" d="M938 1288l-252 -270h-160l133 297zM948 489q0 -112 -40.5 -208.5t-107.5 -161.5t-155 -102t-182 -37q-157 0 -258 104.5t-101 277.5q0 112 40.5 210t107.5 165t155 105.5t183 38.5q156 0 257 -108t101 -284zM489 174q92 0 154 86t62 221q0 93 -38.5 149t-103.5 56 q-92 0 -154.5 -87.5t-62.5 -221.5q0 -94 38.5 -148.5t104.5 -54.5z" />
<glyph unicode="&#xf4;" horiz-adv-x="933" d="M698 1040l-65 127l-101 -127h-170l197 269h189l122 -269h-172zM948 489q0 -112 -40.5 -208.5t-107.5 -161.5t-155 -102t-182 -37q-157 0 -258 104.5t-101 277.5q0 112 40.5 210t107.5 165t155 105.5t183 38.5q156 0 257 -108t101 -284zM489 174q92 0 154 86t62 221 q0 93 -38.5 149t-103.5 56q-92 0 -154.5 -87.5t-62.5 -221.5q0 -94 38.5 -148.5t104.5 -54.5z" />
<glyph unicode="&#xf5;" horiz-adv-x="933" d="M948 489q0 -112 -40.5 -208.5t-107.5 -161.5t-155 -102t-182 -37q-157 0 -258 104.5t-101 277.5q0 112 40.5 210t107.5 165t155 105.5t183 38.5q156 0 257 -108t101 -284zM489 174q92 0 154 86t62 221q0 93 -38.5 149t-103.5 56q-92 0 -154.5 -87.5t-62.5 -221.5 q0 -94 38.5 -148.5t104.5 -54.5zM750 1049q-49 0 -92.5 22t-77.5 44t-60 22t-40.5 -16t-26.5 -48l-13 -33l-170 17l21 69q28 91 84 144t139 53q39 0 74.5 -14t57.5 -31t48.5 -31t48.5 -14q48 0 70 63l12 33l170 -16l-20 -68q-27 -90 -84.5 -143t-140.5 -53z" />
<glyph unicode="&#xf6;" horiz-adv-x="933" d="M344 1151q0 53 42.5 95t94.5 42q43 0 74 -33t31 -77q0 -54 -44 -96t-96 -42q-42 0 -72 33t-30 78zM682 1151q0 53 43 95t94 42q43 0 73 -32t30 -78q0 -53 -43 -95.5t-95 -42.5q-42 0 -72 33t-30 78zM948 489q0 -112 -40.5 -208.5t-107.5 -161.5t-155 -102t-182 -37 q-157 0 -258 104.5t-101 277.5q0 112 40.5 210t107.5 165t155 105.5t183 38.5q156 0 257 -108t101 -284zM489 174q92 0 154 86t62 221q0 93 -38.5 149t-103.5 56q-92 0 -154.5 -87.5t-62.5 -221.5q0 -94 38.5 -148.5t104.5 -54.5z" />
<glyph unicode="&#xf7;" horiz-adv-x="909" d="M342 236q0 69 51 119.5t119 50.5q55 0 91 -39t36 -95q0 -68 -51 -118t-119 -50q-55 0 -91 38t-36 94zM442 950q0 69 51 119.5t119 50.5q55 0 92 -38.5t37 -94.5q0 -68 -51.5 -118t-118.5 -50q-56 0 -92.5 37.5t-36.5 93.5zM141 506l29 201h770l-29 -201h-770z" />
<glyph unicode="&#xf8;" horiz-adv-x="933" d="M948 489q0 -112 -40.5 -208.5t-107.5 -161.5t-155 -102t-182 -37q-134 0 -227 75l-58 -55h-162l146 137q-58 96 -58 225q0 112 40.5 210t107.5 165t155 105.5t183 38.5q126 0 221 -76l55 55h162l-143 -137q63 -99 63 -234zM489 174q92 0 154 86t62 221q0 33 -7 64 l-303 -330q35 -41 94 -41zM346 377q0 -26 4 -62l303 332q-39 39 -90 39q-92 0 -154.5 -87.5t-62.5 -221.5z" />
<glyph unicode="&#xf9;" horiz-adv-x="966" d="M989 860l-121 -860h-166l-24 117h-10q-39 -58 -105 -97.5t-153 -39.5q-150 0 -224 103t-49 277l72 500h246l-72 -500q-11 -84 18.5 -129t96.5 -45q65 0 113.5 43t56.5 101l75 530h246zM524 1018l-139 276l281 41l24 -317h-166z" />
<glyph unicode="&#xfa;" horiz-adv-x="966" d="M940 1288l-252 -270h-160l134 297zM989 860l-121 -860h-166l-24 117h-10q-39 -58 -105 -97.5t-153 -39.5q-150 0 -224 103t-49 277l72 500h246l-72 -500q-11 -84 18.5 -129t96.5 -45q65 0 113.5 43t56.5 101l75 530h246z" />
<glyph unicode="&#xfb;" horiz-adv-x="966" d="M694 1018l-65 127l-101 -127h-170l197 268h188l123 -268h-172zM989 860l-121 -860h-166l-24 117h-10q-39 -58 -105 -97.5t-153 -39.5q-150 0 -224 103t-49 277l72 500h246l-72 -500q-11 -84 18.5 -129t96.5 -45q65 0 113.5 43t56.5 101l75 530h246z" />
<glyph unicode="&#xfc;" horiz-adv-x="966" d="M344 1130q0 53 42.5 95.5t94.5 42.5q43 0 74 -33.5t31 -77.5q0 -54 -44 -95.5t-96 -41.5q-42 0 -72 32.5t-30 77.5zM682 1130q0 53 43.5 95.5t93.5 42.5q43 0 73 -32.5t30 -78.5q0 -53 -43 -95t-95 -42q-42 0 -72 32.5t-30 77.5zM989 860l-121 -860h-166l-24 117h-10 q-39 -58 -105 -97.5t-153 -39.5q-150 0 -224 103t-49 277l72 500h246l-72 -500q-11 -84 18.5 -129t96.5 -45q65 0 113.5 43t56.5 101l75 530h246z" />
<glyph unicode="&#xfd;" horiz-adv-x="964" d="M682 391l68 469h237l-115 -813q-27 -188 -147 -302t-317 -114q-105 0 -182.5 40t-121.5 93l140 152q75 -92 182 -92q87 0 140 56t67 159l12 82q-33 -43 -94.5 -72t-132.5 -29q-154 0 -228 103.5t-49 279.5l66 457h246l-66 -459q-12 -84 17 -129t98 -45q74 0 122.5 45.5 t57.5 118.5zM956 1288l-251 -270h-160l133 297z" />
<glyph unicode="&#xfe;" horiz-adv-x="976" d="M371 121h-11l-61 -440h-246l217 1548h246l-67 -481h8q3 5 9 14t27.5 32t46 40.5t64.5 32t84 14.5q138 0 220.5 -100.5t82.5 -270.5q0 -227 -126.5 -378.5t-301.5 -151.5q-46 0 -82.5 14.5t-56 35t-32.5 41.5t-17 35zM387 379q0 -91 37.5 -144t103.5 -53q90 0 150.5 83.5 t60.5 209.5q0 91 -38 147t-103 56q-90 0 -150.5 -84t-60.5 -215z" />
<glyph unicode="&#xff;" horiz-adv-x="964" d="M682 391l68 469h237l-115 -813q-27 -188 -147 -302t-317 -114q-105 0 -182.5 40t-121.5 93l140 152q75 -92 182 -92q87 0 140 56t67 159l12 82q-33 -43 -94.5 -72t-132.5 -29q-154 0 -228 103.5t-49 279.5l66 457h246l-66 -459q-12 -84 17 -129t98 -45q74 0 122.5 45.5 t57.5 118.5zM352 1128q0 53 42.5 95.5t94.5 42.5q43 0 74 -33.5t31 -77.5q0 -54 -43.5 -95.5t-95.5 -41.5q-42 0 -72.5 32.5t-30.5 77.5zM690 1128q0 53 43.5 95.5t93.5 42.5q43 0 73 -32.5t30 -78.5q0 -53 -42.5 -95t-94.5 -42q-42 0 -72.5 32.5t-30.5 77.5z" />
<glyph unicode="&#x152;" horiz-adv-x="1906" d="M627 -29q-149 0 -262 74.5t-171.5 199.5t-58.5 279q0 195 88.5 363t243.5 268t340 100q233 0 369 -168l20 142h815l-31 -217h-567l-39 -289h477l-28 -201h-477l-43 -305h567l-31 -217h-815l16 127q-180 -156 -413 -156zM659 211q156 0 269.5 135.5t113.5 331.5 q0 150 -74.5 245t-195.5 95q-153 0 -266 -136t-113 -331q0 -150 73.5 -245t192.5 -95z" />
<glyph unicode="&#x153;" horiz-adv-x="1529" d="M1395 242l63 -162q-4 -4 -13 -11t-39 -25.5t-63.5 -32t-88 -25t-111.5 -11.5q-111 0 -192.5 44.5t-127.5 123.5q-67 -78 -162 -120.5t-198 -42.5q-157 0 -258 104.5t-101 277.5q0 112 40.5 210t107.5 165t155 105.5t183 38.5q97 0 176 -44t125 -124q66 79 156 123.5 t192 44.5q150 0 233.5 -96.5t83.5 -258.5q0 -35 -4.5 -70t-9.5 -53l-4 -18h-528q-12 -215 178 -215q53 0 104.5 18t77.5 36zM489 174q92 0 154 86t62 221q0 93 -38.5 149t-103.5 56q-92 0 -154.5 -87.5t-62.5 -221.5q0 -94 38.5 -148.5t104.5 -54.5zM1206 696 q-121 0 -172 -166h287q5 79 -24.5 122.5t-90.5 43.5z" />
<glyph unicode="&#x178;" horiz-adv-x="1021" d="M672 801l264 428h270l-504 -748l-67 -481h-248l68 479l-295 750h270l148 -428l30 -111zM430 1434q0 53 42.5 95t94.5 42q43 0 74 -33.5t31 -77.5q0 -54 -44 -95.5t-96 -41.5q-42 0 -72 33t-30 78zM768 1434q0 53 43 95t94 42q43 0 73 -32.5t30 -78.5q0 -53 -43 -95 t-95 -42q-42 0 -72 33t-30 78z" />
<glyph unicode="&#x2c6;" horiz-adv-x="702" d="M633 1323l-66 127l-100 -127h-170l197 268h188l123 -268h-172z" />
<glyph unicode="&#x2dc;" horiz-adv-x="917" d="M778 1329q-39 0 -75 13.5t-58 30.5t-48.5 30.5t-47.5 13.5q-26 0 -41 -16t-27 -47l-12 -33l-170 16l20 70q28 91 84.5 144t139.5 53q49 0 92 -23t76.5 -45.5t60.5 -22.5q48 0 70 64l12 33l170 -17l-20 -67q-27 -90 -85 -143.5t-141 -53.5z" />
<glyph unicode="&#x2000;" horiz-adv-x="832" />
<glyph unicode="&#x2001;" horiz-adv-x="1665" />
<glyph unicode="&#x2002;" horiz-adv-x="832" />
<glyph unicode="&#x2003;" horiz-adv-x="1665" />
<glyph unicode="&#x2004;" horiz-adv-x="555" />
<glyph unicode="&#x2005;" horiz-adv-x="416" />
<glyph unicode="&#x2006;" horiz-adv-x="277" />
<glyph unicode="&#x2007;" horiz-adv-x="277" />
<glyph unicode="&#x2008;" horiz-adv-x="208" />
<glyph unicode="&#x2009;" horiz-adv-x="333" />
<glyph unicode="&#x200a;" horiz-adv-x="92" />
<glyph unicode="&#x2010;" horiz-adv-x="708" d="M141 369l29 200h528l-28 -200h-529z" />
<glyph unicode="&#x2011;" horiz-adv-x="708" d="M141 369l29 200h528l-28 -200h-529z" />
<glyph unicode="&#x2012;" horiz-adv-x="708" d="M141 369l29 200h528l-28 -200h-529z" />
<glyph unicode="&#x2013;" horiz-adv-x="847" d="M176 489l29 199h631l-29 -199h-631z" />
<glyph unicode="&#x2014;" horiz-adv-x="1320" d="M176 489l29 199h1106l-29 -199h-1106z" />
<glyph unicode="&#x2018;" horiz-adv-x="425" d="M516 1100q-116 -27 -139 -107q44 -12 67.5 -49.5t16.5 -87.5q-7 -60 -54 -101.5t-106 -41.5q-58 0 -93.5 41.5t-27.5 101.5l2 12q20 133 102.5 233.5t213.5 127.5z" />
<glyph unicode="&#x2019;" horiz-adv-x="425" d="M528 1085l-2 -12q-22 -134 -103.5 -234t-211.5 -126l-18 129q114 24 141 106q-40 9 -64 42t-24 77q0 67 48.5 114.5t113.5 47.5q60 0 94.5 -42t25.5 -102z" />
<glyph unicode="&#x201a;" horiz-adv-x="421" d="M367 121l-2 -12q-22 -134 -104 -234.5t-212 -126.5l-18 129q115 27 141 107q-40 9 -64 41.5t-24 76.5q0 66 49 114t113 48q60 0 95 -41.5t26 -101.5z" />
<glyph unicode="&#x201c;" horiz-adv-x="780" d="M180 856l2 12q21 133 104 233.5t212 127.5l18 -129q-113 -27 -139 -107q38 -11 62 -44t24 -77q0 -65 -48 -112t-112 -47q-59 0 -95.5 41.5t-27.5 101.5zM535 856l2 12q21 133 103.5 233.5t211.5 127.5l18 -129q-113 -27 -139 -107q38 -11 62 -44t24 -77q0 -65 -48 -112 t-112 -47q-59 0 -95 41.5t-27 101.5z" />
<glyph unicode="&#x201d;" horiz-adv-x="759" d="M862 1085l-2 -12q-21 -133 -103.5 -233t-211.5 -127l-19 129q114 27 140 106q-38 11 -62 44t-24 77q0 65 47.5 112.5t111.5 47.5q59 0 95.5 -42t27.5 -102zM508 1085l-2 -12q-21 -133 -104 -233t-212 -127l-18 129q113 27 139 106q-38 11 -62 44t-24 77q0 65 48 112.5 t112 47.5q59 0 95.5 -42t27.5 -102z" />
<glyph unicode="&#x201e;" horiz-adv-x="899" d="M53 -252l-18 129q116 27 139 107q-43 12 -67 49.5t-17 87.5q7 60 54 101.5t106 41.5q58 0 93.5 -41.5t27.5 -101.5l-2 -12q-20 -133 -102.5 -233.5t-213.5 -127.5zM725 121l-2 -12q-20 -133 -102 -233.5t-213 -127.5l-19 129q116 27 139 107q-43 12 -67 49.5t-17 87.5 q7 60 54 101.5t106 41.5q58 0 93.5 -41.5t27.5 -101.5z" />
<glyph unicode="&#x2022;" horiz-adv-x="616" d="M397 649q70 0 116 -49.5t46 -120.5q0 -87 -65.5 -150t-149.5 -63q-69 0 -114.5 48.5t-45.5 119.5q0 87 65 151t148 64z" />
<glyph unicode="&#x2026;" horiz-adv-x="1439" d="M92 119q0 70 51.5 122t120.5 52q56 0 93.5 -39.5t37.5 -97.5q0 -70 -52.5 -122t-121.5 -52q-57 0 -93 39t-36 98zM588 119q0 70 51.5 122t120.5 52q56 0 93.5 -39.5t37.5 -97.5q0 -70 -53 -122t-121 -52q-58 0 -93.5 39t-35.5 98zM1081 119q0 70 52.5 122t121.5 52 q56 0 93.5 -39.5t37.5 -97.5q0 -70 -53 -122t-121 -52q-58 0 -94.5 39.5t-36.5 97.5z" />
<glyph unicode="&#x202f;" horiz-adv-x="333" />
<glyph unicode="&#x2039;" horiz-adv-x="557" d="M113 403l6 46l297 387h205l-5 -19l-286 -381l-2 -16l180 -385l-4 -19h-205z" />
<glyph unicode="&#x203a;" horiz-adv-x="557" d="M565 449l-6 -46l-297 -387h-205l2 19l289 385l2 16l-180 381l2 19h205z" />
<glyph unicode="&#x205f;" horiz-adv-x="416" />
<glyph unicode="&#x20ac;" horiz-adv-x="1110" d="M844 561l-25 -170h-289q40 -178 215 -178q54 0 106 25t77 50l26 25l113 -188q-5 -6 -15.5 -16t-45.5 -36t-73.5 -46t-100 -36t-125.5 -16q-198 0 -308 113.5t-131 302.5h-149l24 170h121l8 55q3 28 13 62h-125l22 168h152q75 186 216 297.5t337 111.5q64 0 120.5 -15.5 t91 -37.5t59.5 -43.5t36 -36.5l10 -16l-166 -188q-2 4 -7 11t-21.5 24t-36 30t-50.5 24t-65 11q-170 0 -262 -172h287l-23 -168h-319q-10 -34 -13 -62l-8 -55h324z" />
<glyph unicode="&#x2122;" horiz-adv-x="1374" d="M881 575h-156l92 654h105l161 -289l246 289h103l-93 -654h-153l47 343l-146 -175h-63l-96 172zM723 1229l-21 -139h-165l-72 -515h-156l72 515h-166l21 139h487z" />
<glyph unicode="&#x25fc;" horiz-adv-x="860" d="M0 860h860v-860h-860v860z" />
</font>
</defs>
</svg>
