<?xml version="1.0" standalone="no"?>
<!DOCTYPE svg PUBLIC "-//W3C//DTD SVG 1.1//EN" "http://www.w3.org/Graphics/SVG/1.1/DTD/svg11.dtd" >
<svg xmlns="http://www.w3.org/2000/svg" xmlns:xlink="http://www.w3.org/1999/xlink" version="1.1">
<metadata></metadata>
<defs>
<font id="texta_narrowbold_italic" horiz-adv-x="974" >
<font-face units-per-em="2048" ascent="1536" descent="-512" />
<missing-glyph horiz-adv-x="393" />
<glyph horiz-adv-x="0" />
<glyph horiz-adv-x="682" />
<glyph horiz-adv-x="0" />
<glyph horiz-adv-x="0" />
<glyph unicode="&#xd;" horiz-adv-x="215" />
<glyph unicode=" "  horiz-adv-x="393" />
<glyph unicode="&#x09;" horiz-adv-x="393" />
<glyph unicode="&#xa0;" horiz-adv-x="393" />
<glyph unicode="!" horiz-adv-x="425" d="M502 1229l-168 -850h-137l67 850h238zM102 96q0 60 43.5 103t102.5 43q47 0 77.5 -32.5t30.5 -82.5q0 -58 -43.5 -100.5t-101.5 -42.5q-47 0 -78 32t-31 80z" />
<glyph unicode="&#x22;" horiz-adv-x="630" d="M492 1401l-150 -428h-119l90 428h179zM778 1401l-147 -428h-121l90 428h178z" />
<glyph unicode="#" horiz-adv-x="1200" d="M1151 1194l-107 -317h224l-45 -121h-222l-108 -320h221l-43 -121h-219l-107 -315h-127l107 315h-276l-107 -315h-129l109 315h-220l43 121h217l109 320h-217l45 121h215l107 317h127l-107 -317h274l107 317h129zM598 756l-109 -320h277l108 320h-276z" />
<glyph unicode="$" d="M80 125l133 154q4 -4 11 -10.5t31 -24.5t50.5 -32.5t67.5 -29t84 -20.5l53 379q-165 57 -239 129.5t-74 187.5q0 166 108.5 273t304.5 122l31 213h117l-31 -213q66 -4 123 -18.5t91 -32t58.5 -34t34.5 -27.5l10 -11l-133 -165q-3 3 -9 8.5t-26 20t-42.5 26.5t-59 24.5 t-74.5 18.5l-47 -342q167 -55 241.5 -133t74.5 -195q0 -169 -110 -286t-312 -134l-27 -192h-117l27 192q-70 5 -132 22.5t-100 39t-66 42t-40 34.5zM737 356q0 45 -26 78.5t-90 63.5l-48 -334q83 14 123.5 65t40.5 127zM424 895q0 -42 26.5 -72t90.5 -59l43 299 q-75 -12 -117.5 -56.5t-42.5 -111.5z" />
<glyph unicode="%" horiz-adv-x="1245" d="M498 1255q101 0 158 -74t57 -184q0 -91 -36.5 -171.5t-106.5 -131.5t-158 -51q-100 0 -156.5 75t-56.5 185q0 141 84.5 246.5t214.5 105.5zM479 1124q-61 0 -96 -62t-35 -157q0 -60 21 -94.5t61 -34.5q61 0 96 62t35 157q0 60 -21 94.5t-61 34.5zM1010 596 q102 0 158.5 -74.5t56.5 -185.5q0 -139 -86 -245.5t-215 -106.5q-101 0 -158 75t-57 185q0 91 37 171t107 130.5t157 50.5zM991 465q-61 0 -97 -61t-36 -156q0 -60 22 -95.5t62 -35.5q61 0 96 62t35 157q0 129 -82 129zM1143 1229h184l-1065 -1229h-182z" />
<glyph unicode="&#x26;" horiz-adv-x="1161" d="M963 612l184 -45q-60 -188 -168 -325l192 -242h-282l-66 88q-148 -108 -319 -108q-187 0 -283 83.5t-96 219.5q0 71 21 129.5t61.5 103t84.5 76.5t105 65l-22 31q-68 95 -68 213q0 149 106 251.5t273 102.5q136 0 214.5 -72t78.5 -188q0 -59 -17 -111t-42.5 -89.5 t-66.5 -72.5t-79 -59t-90 -51l182 -227q66 112 97 227zM528 152q103 0 195 71l-221 293q-75 -45 -114.5 -92.5t-39.5 -114.5q0 -70 50 -113.5t130 -43.5zM510 913q0 -64 61 -153l9 -12q96 47 146 94.5t50 120.5q0 58 -29.5 91t-82.5 33q-69 0 -111.5 -48.5t-42.5 -125.5z " />
<glyph unicode="'" horiz-adv-x="344" d="M492 1401l-148 -428h-121l90 428h179z" />
<glyph unicode="(" horiz-adv-x="518" d="M356 588q-63 -443 111 -735l-148 -134q-245 357 -172 869q73 518 416 868l111 -133q-256 -288 -318 -735z" />
<glyph unicode=")" horiz-adv-x="520" d="M330 588q14 99 16 191t-7.5 164t-22.5 132.5t-32.5 109t-35 80t-33.5 58.5l147 133q251 -348 177 -868q-72 -507 -420 -869l-111 134q41 44 80.5 99t90 145.5t91 218t60.5 272.5z" />
<glyph unicode="*" horiz-adv-x="720" d="M262 909l193 191l-224 41l68 145l186 -125l4 260h142l-78 -262l229 127l27 -145l-242 -41l144 -191l-131 -88l-74 236l-139 -236z" />
<glyph unicode="+" horiz-adv-x="958" d="M711 1055l-54 -371h330l-22 -164h-330l-49 -354h-166l49 354h-330l23 164h330l53 371h166z" />
<glyph unicode="," horiz-adv-x="403" d="M16 -143q61 15 100.5 47.5t51.5 77.5q-39 9 -60.5 41.5t-15.5 76.5q8 53 47 88t90 35t80.5 -35.5t22.5 -87.5l-2 -14q-18 -128 -97 -221t-202 -117z" />
<glyph unicode="-" horiz-adv-x="722" d="M154 387l22 164h526l-22 -164h-526z" />
<glyph unicode="." horiz-adv-x="399" d="M195 -20q-44 0 -73.5 30.5t-29.5 75.5q0 56 41 96.5t96 40.5q45 0 75 -31t30 -77q0 -55 -41.5 -95t-97.5 -40z" />
<glyph unicode="/" horiz-adv-x="1122" d="M211 -227l-205 -2l1100 1833h203z" />
<glyph unicode="0" horiz-adv-x="1150" d="M571 -29q-103 0 -184 41.5t-131 114.5t-76 167.5t-26 205.5q0 148 41.5 284t117 241t189.5 167.5t250 62.5q137 0 233 -72t140 -189t44 -267q0 -117 -26 -228.5t-77 -207t-122 -167t-167 -112.5t-206 -41zM598 168q110 0 193 76t125 198.5t42 268.5q0 158 -59 254 t-174 96q-110 0 -194 -76.5t-126.5 -199.5t-42.5 -269q0 -156 60 -252t176 -96z" />
<glyph unicode="1" horiz-adv-x="598" d="M176 1049l25 180h446l-172 -1229h-203l148 1049h-244z" />
<glyph unicode="2" horiz-adv-x="954" d="M82 0l20 141l512 496q73 70 102 120.5t29 125.5q0 78 -45.5 128t-124.5 50q-36 0 -72.5 -10.5t-69 -29t-55 -34t-48 -36.5t-31.5 -25l-84 161q7 7 19 18t53.5 40t85.5 51.5t112 40.5t136 18q175 0 268.5 -92t93.5 -237q0 -101 -36 -187t-136 -182l-389 -377h477l-25 -180 h-792z" />
<glyph unicode="3" horiz-adv-x="946" d="M375 575l18 144l322 330h-475l24 180h744l-21 -156l-334 -340q133 -12 202 -91t69 -212q0 -94 -32 -176t-92.5 -144.5t-155.5 -98.5t-212 -36q-73 0 -136 17.5t-101.5 42.5t-66.5 50t-39 43l-11 17l129 148q3 -5 10 -14t30 -31.5t49.5 -40t69.5 -31.5t89 -14 q117 0 184.5 68t67.5 173q0 82 -50 127t-149 45h-133z" />
<glyph unicode="4" horiz-adv-x="1062" d="M80 276l20 150l719 803h176l-108 -772h186l-24 -181h-187l-39 -276h-202l38 276h-579zM360 465l-2 -8h326l64 446l-349 -403q-7 -8 -17 -17t-16 -13z" />
<glyph unicode="5" horiz-adv-x="931" d="M950 1049h-477l-49 -295q70 8 117 8q195 0 290 -86.5t95 -235.5q0 -132 -54 -235.5t-167 -166.5t-271 -63q-73 0 -136 17.5t-101.5 42.5t-66.5 50t-39 43l-11 17l131 148q3 -5 9.5 -14t29.5 -31.5t49.5 -40t69 -31.5t88.5 -14q117 0 184.5 67t67.5 179q0 83 -58 131.5 t-176 48.5q-67 0 -129 -11.5t-90.5 -22.5t-28.5 -13l-22 20l108 668h662z" />
<glyph unicode="6" horiz-adv-x="1013" d="M397 666l-2 -9q112 115 269 115t248.5 -88t91.5 -235q0 -128 -65.5 -237t-175.5 -172t-237 -63q-173 0 -274.5 115t-101.5 316q0 249 70.5 440t201 296t303.5 105q69 0 128.5 -16.5t94 -40.5t59.5 -48t35 -40l9 -17l-138 -155q-29 33 -46 50t-44 37.5t-56.5 29t-66.5 8.5 q-249 0 -303 -391zM618 600q-90 0 -159 -60.5t-94 -158.5q4 -110 54.5 -163.5t133.5 -53.5q100 0 167.5 77t67.5 183q0 80 -44.5 128t-125.5 48z" />
<glyph unicode="7" horiz-adv-x="862" d="M199 1049l24 180h785l-19 -142l-635 -1087h-237l622 1049h-540z" />
<glyph unicode="8" horiz-adv-x="999" d="M498 -29q-177 0 -275 94.5t-98 237.5q0 109 52.5 197.5t148.5 142.5q-95 83 -95 221q0 164 120.5 277.5t326.5 113.5q167 0 255.5 -84.5t88.5 -218.5q0 -94 -43.5 -174.5t-124.5 -134.5q58 -38 89.5 -102.5t31.5 -143.5q0 -85 -33.5 -162t-94 -136t-151 -93.5 t-198.5 -34.5zM762 383q0 77 -49 126.5t-133 49.5q-104 0 -172 -66t-68 -163q0 -77 48.5 -127.5t133.5 -50.5q102 0 171 68t69 163zM602 715q93 0 151 60t58 143q0 68 -41.5 112.5t-116.5 44.5q-95 0 -154 -61t-59 -144q0 -67 42.5 -111t119.5 -44z" />
<glyph unicode="9" horiz-adv-x="1009" d="M494 164q116 0 192 97t98 300v2q-105 -108 -264 -108q-157 0 -249.5 89t-92.5 236q0 128 66.5 236.5t178.5 170.5t241 62q163 0 264.5 -113t101.5 -325q0 -235 -67.5 -424.5t-196 -301.5t-295.5 -112q-71 0 -131 16.5t-95.5 40t-60 47t-34.5 39.5l-9 17l138 158 q63 -76 106 -101.5t109 -25.5zM565 627q90 0 157.5 58.5t92.5 156.5q-7 111 -56 166t-128 55q-101 0 -169.5 -77.5t-68.5 -182.5q0 -80 45 -128t127 -48z" />
<glyph unicode=":" horiz-adv-x="430" d="M313 631q-44 0 -73 30t-29 76q0 55 41.5 96t95.5 41q45 0 75 -31.5t30 -76.5q0 -56 -42 -95.5t-98 -39.5zM219 -20q-44 0 -73 30.5t-29 75.5q0 56 41 96.5t96 40.5q45 0 74.5 -31t29.5 -77q0 -55 -41.5 -95t-97.5 -40z" />
<glyph unicode=";" horiz-adv-x="450" d="M313 631q-44 0 -73 30t-29 76q0 55 41.5 96t95.5 41q45 0 75 -31.5t30 -76.5q0 -56 -42 -95.5t-98 -39.5zM45 -143q61 15 100.5 47.5t51.5 77.5q-39 9 -60.5 41.5t-15.5 76.5q8 53 47 88t90 35t80 -35.5t22 -87.5l-2 -14q-18 -128 -97 -221t-202 -117z" />
<glyph unicode="&#x3c;" horiz-adv-x="694" d="M143 549l19 129l561 369l-31 -216l-356 -219l295 -219l-29 -215z" />
<glyph unicode="=" horiz-adv-x="860" d="M207 713l22 164h650l-23 -164h-649zM152 322l22 165h649l-22 -165h-649z" />
<glyph unicode="&#x3e;" horiz-adv-x="694" d="M723 678l-18 -129l-562 -371l31 215l356 219l-294 219l30 216z" />
<glyph unicode="?" horiz-adv-x="815" d="M287 977l-76 164q5 5 14.5 12.5t42.5 27t69 34.5t92 27.5t114 12.5q157 0 248.5 -76.5t91.5 -209.5q0 -68 -17.5 -125t-47 -96.5t-65 -73t-73.5 -62t-71 -55.5t-59 -61.5t-36 -73.5l-12 -47h-156l10 71q7 47 27 88t46.5 72t57 60t60 56t53.5 55.5t38.5 64.5t14.5 76 q0 65 -41 104t-112 39q-52 0 -105.5 -21t-80.5 -42zM270 94q0 58 42 100t98 42q45 0 75.5 -32.5t30.5 -78.5q0 -58 -42.5 -99.5t-98.5 -41.5q-46 0 -75.5 31.5t-29.5 78.5z" />
<glyph unicode="@" horiz-adv-x="1875" d="M1411 104q-57 0 -100.5 15t-68.5 36.5t-41 51t-22 51.5t-8 45h-14q-25 -37 -51 -65t-65 -58t-91.5 -46.5t-113.5 -16.5q-131 0 -208 86t-77 233q0 124 43 234t112.5 185t160 119t184.5 44q58 0 102 -15.5t69.5 -42t39 -54t18.5 -58.5l53 149h162l-121 -495 q-22 -102 -22 -131q0 -61 33 -94t94 -33q117 0 202.5 138.5t85.5 356.5q0 100 -22.5 195t-72 181.5t-120 151.5t-173.5 103.5t-226 38.5q-182 0 -349.5 -79t-287.5 -208.5t-191 -302.5t-71 -356q0 -204 84 -373t234.5 -267.5t336.5 -98.5q65 0 131.5 12t114.5 29t86.5 34 t58.5 29l19 12l33 -104q-7 -5 -20.5 -13.5t-59.5 -30.5t-95.5 -39t-127 -30.5t-156.5 -13.5q-138 0 -259 44t-211.5 122t-156 182.5t-98.5 228.5t-33 258q0 210 80.5 408t217 346t329.5 238t407 90q162 0 300.5 -60.5t233 -164.5t147.5 -245t53 -300q0 -178 -63.5 -327.5 t-176.5 -237t-252 -87.5zM920 301q75 0 141 50t104.5 132t38.5 174q0 85 -40.5 132t-112.5 47q-108 0 -193.5 -102t-85.5 -251q0 -86 39.5 -134t108.5 -48z" />
<glyph unicode="A" horiz-adv-x="1120" d="M834 1229l288 -1229h-215l-53 252h-518l-123 -252h-215l631 1229h205zM698 991l-278 -567h397z" />
<glyph unicode="B" horiz-adv-x="1128" d="M1110 393q0 -188 -124 -290.5t-337 -102.5h-514l172 1229h500q169 0 258.5 -73.5t89.5 -209.5q0 -111 -53 -192.5t-144 -120.5v-8q71 -23 111.5 -84t40.5 -148zM741 537h-327l-52 -357h314q93 0 156 55.5t63 147.5q0 67 -43.5 110.5t-110.5 43.5zM936 905q0 70 -41 107 t-117 37h-293l-49 -344h289q94 0 152.5 55.5t58.5 144.5z" />
<glyph unicode="C" horiz-adv-x="1044" d="M936 283l94 -156q-6 -6 -17 -16.5t-49 -37.5t-81 -47.5t-111.5 -37.5t-140.5 -17q-150 0 -262.5 73.5t-169 196.5t-56.5 277q0 198 85 366.5t239 269.5t344 101q53 0 101 -8.5t82.5 -22t64.5 -30t49.5 -32.5t33 -29.5t19.5 -22.5l6 -8l-137 -158q-3 5 -9.5 13t-29 28.5 t-48.5 36t-68.5 28.5t-88.5 13q-179 0 -305.5 -153t-126.5 -367q0 -164 83 -270.5t222 -106.5q46 0 91.5 12t77.5 29t57.5 34.5t38.5 29.5z" />
<glyph unicode="D" horiz-adv-x="1185" d="M1212 709q0 -205 -85 -366.5t-238 -252t-348 -90.5h-406l172 1229h406q233 0 366 -142t133 -378zM674 1049h-189l-123 -869h189q92 0 174 35.5t144 99.5t98.5 160.5t36.5 210.5q0 170 -91 266.5t-239 96.5z" />
<glyph unicode="E" horiz-adv-x="1009" d="M946 709l-24 -172h-508l-52 -357h603l-25 -180h-805l172 1229h805l-25 -180h-602l-47 -340h508z" />
<glyph unicode="F" horiz-adv-x="1001" d="M944 707l-22 -172h-508l-76 -535h-203l172 1229h807l-24 -180h-605l-49 -342h508z" />
<glyph unicode="G" horiz-adv-x="1196" d="M678 522l24 172h541l-16 -121q-37 -275 -198.5 -438.5t-403.5 -163.5q-151 0 -262 73t-165.5 195.5t-54.5 276.5q0 200 84.5 368.5t238.5 269.5t345 101q79 0 147 -16t108.5 -39.5t70 -46.5t41.5 -39l12 -16l-141 -156q-3 5 -10 13t-31.5 29t-53 37t-75 29t-97.5 13 q-119 0 -217 -71t-153.5 -191t-55.5 -262q0 -164 79.5 -268.5t215.5 -104.5q138 0 234 93.5t116 246.5l3 16h-326z" />
<glyph unicode="H" horiz-adv-x="1220" d="M1260 1229l-173 -1229h-202l73 522h-546l-74 -522h-203l172 1229h203l-74 -535h547l74 535h203z" />
<glyph unicode="I" horiz-adv-x="471" d="M510 1229l-172 -1229h-203l172 1229h203z" />
<glyph unicode="J" horiz-adv-x="839" d="M35 78l121 160q7 -8 21 -19.5t59 -31t92 -19.5q107 0 167 67.5t80 213.5l111 780h203l-115 -821q-31 -202 -147 -319.5t-316 -117.5q-39 0 -75.5 6t-63 15t-49.5 20.5t-38.5 23t-26.5 20.5t-17 16z" />
<glyph unicode="K" horiz-adv-x="1107" d="M510 1229l-84 -596l590 596h241l-2 -25l-491 -491l330 -686l-4 -27h-224q-170 363 -260 553l-221 -221l-47 -332h-203l172 1229h203z" />
<glyph unicode="L" horiz-adv-x="927" d="M879 0h-744l172 1229h203l-148 -1049h541z" />
<glyph unicode="M" horiz-adv-x="1359" d="M1026 0l117 829l-371 -436h-72l-247 432l-117 -825h-203l174 1229h152l313 -574l473 574h152l-170 -1229h-201z" />
<glyph unicode="N" horiz-adv-x="1247" d="M1286 1229l-172 -1229h-151l-508 852l-119 -852h-201l172 1227v2h150l508 -856l118 856h203z" />
<glyph unicode="O" horiz-adv-x="1263" d="M627 -29q-148 0 -259 73.5t-168 197.5t-57 278q0 148 51 283t138.5 234.5t211.5 158.5t263 59q223 0 354 -155t131 -393q0 -197 -86 -365.5t-239.5 -269.5t-339.5 -101zM653 168q117 0 215.5 68.5t155.5 187.5t57 260q0 164 -82 270.5t-219 106.5q-117 0 -215 -69.5 t-154.5 -189.5t-56.5 -261q0 -163 81 -268t218 -105z" />
<glyph unicode="P" horiz-adv-x="1083" d="M776 1229q178 0 279.5 -94t101.5 -258q0 -221 -139.5 -350.5t-362.5 -129.5h-262l-55 -397h-203l172 1229h469zM946 854q0 96 -54.5 145.5t-150.5 49.5h-256l-67 -474h256q124 0 198 71t74 208z" />
<glyph unicode="Q" horiz-adv-x="1263" d="M627 -29q-148 0 -259 73.5t-168 197.5t-57 278q0 148 51 283t138.5 234.5t211.5 158.5t263 59q223 0 354 -155t131 -393q0 -213 -102.5 -390t-274.5 -272l111 -276h-225l-80 211q-47 -9 -94 -9zM653 168q117 0 215.5 68.5t155.5 187.5t57 260q0 164 -82 270.5t-219 106.5 q-117 0 -215 -69.5t-154.5 -189.5t-56.5 -261q0 -163 81 -268t218 -105z" />
<glyph unicode="R" horiz-adv-x="1124" d="M307 1229h469q178 0 279.5 -94t101.5 -258q0 -157 -78.5 -269.5t-212.5 -165.5l-2 -14l209 -399l-4 -29h-223l-205 406h-246l-57 -406h-203zM944 856q0 95 -53.5 144t-149.5 49h-256l-65 -463h264q117 0 188.5 69.5t71.5 200.5z" />
<glyph unicode="S" d="M80 125l133 154q5 -5 13.5 -13t38.5 -28.5t62 -36t82 -28.5t101 -13q115 0 171 53t56 143q0 59 -46.5 100.5t-170.5 82.5q-170 57 -246.5 129.5t-76.5 189.5q0 179 124 288t347 109q79 0 147 -13t108.5 -31.5t69 -36.5t39.5 -31l12 -13l-133 -165l-11 11t-32.5 24.5 t-54.5 31t-75.5 24.5t-96.5 11q-101 0 -159 -46t-58 -126q0 -54 46.5 -90.5t166.5 -77.5q176 -55 254 -134t78 -200q0 -87 -31 -163t-90 -134t-151.5 -91.5t-207.5 -33.5q-60 0 -115 8.5t-94.5 22t-74 30t-57 33t-38.5 30t-23 21.5z" />
<glyph unicode="T" horiz-adv-x="983" d="M193 1049l24 180h893l-25 -180h-346l-147 -1049h-203l148 1049h-344z" />
<glyph unicode="U" horiz-adv-x="1189" d="M590 -29q-144 0 -242.5 70.5t-137.5 195t-17 283.5l100 709h203l-101 -709q-23 -158 34.5 -256t188.5 -98q134 0 216.5 97t105.5 257l100 709h203l-100 -709q-34 -244 -183 -396.5t-370 -152.5z" />
<glyph unicode="V" horiz-adv-x="1120" d="M457 0l-287 1229h215l207 -989l487 989h215l-632 -1229h-205z" />
<glyph unicode="W" horiz-adv-x="1509" d="M971 0l-97 885l-335 -885h-158l-186 1229h217l94 -871l334 871h170l88 -873l342 873h219l-531 -1229h-157z" />
<glyph unicode="X" horiz-adv-x="1044" d="M1186 1229l-424 -598l264 -631h-246l-155 422l-31 92l-57 -92l-271 -422h-243l434 631l-254 598h246l151 -402l25 -92l57 92l262 402h242z" />
<glyph unicode="Y" horiz-adv-x="1005" d="M651 748l303 481h226l-508 -750l-68 -479h-203l68 479l-299 750h225l172 -481l29 -95z" />
<glyph unicode="Z" horiz-adv-x="1007" d="M53 0l2 2l21 143l751 904h-602l25 180h866l-2 -2l-20 -148l-738 -899h605l-25 -180h-883z" />
<glyph unicode="[" horiz-adv-x="620" d="M70 -266l239 1700h484l-25 -164h-289l-192 -1372h288l-22 -164h-483z" />
<glyph unicode="\" horiz-adv-x="714" d="M422 -262l-137 1896h198l140 -1896h-201z" />
<glyph unicode="]" horiz-adv-x="620" d="M-4 -266l22 164h289l193 1372h-289l25 164h481l-240 -1700h-481z" />
<glyph unicode="^" horiz-adv-x="782" d="M684 1018l-119 254l-186 -254h-158l311 401h113l203 -401h-164z" />
<glyph unicode="_" horiz-adv-x="1001" d="M51 -246l23 164h829l-22 -164h-830z" />
<glyph unicode="`" horiz-adv-x="528" d="M397 1018l-135 274l234 35l39 -309h-138z" />
<glyph unicode="a" d="M797 733h8l49 127h135l-121 -860h-135l-14 127h-8q-4 -6 -10.5 -16t-32.5 -35t-56 -44.5t-80 -35.5t-106 -16q-139 0 -225 102.5t-86 273.5q0 224 128.5 374.5t305.5 150.5q57 0 103.5 -15t72 -37t43 -44t23.5 -37zM745 483q0 107 -48 169.5t-126 62.5 q-105 0 -178.5 -96.5t-73.5 -239.5q0 -104 47 -169t126 -65q104 0 178.5 95t74.5 243z" />
<glyph unicode="b" d="M106 0l175 1239h202l-69 -489h8q3 5 9 14t28 31.5t48.5 40t72.5 31.5t98 14q134 0 218.5 -104.5t84.5 -272.5q0 -114 -35 -212.5t-94.5 -166.5t-139 -106.5t-167.5 -38.5q-57 0 -103 16t-71.5 38.5t-43 45.5t-23.5 39l-5 16h-8l-45 -135h-140zM352 377q0 -106 47.5 -169 t126.5 -63q102 0 176 97.5t74 238.5q0 105 -47 169.5t-123 64.5q-106 0 -180 -94t-74 -244z" />
<glyph unicode="c" horiz-adv-x="763" d="M463 -20q-160 0 -254 105t-94 275q0 222 136 371.5t339 149.5q49 0 91 -8t67.5 -19t43.5 -22t26 -19l7 -8l-75 -148q-7 6 -20.5 16t-57 26t-88.5 16q-112 0 -188.5 -93.5t-76.5 -246.5q0 -109 49.5 -169.5t135.5 -60.5q45 0 90 14.5t68 28.5l22 15l31 -146 q-3 -3 -9.5 -8.5t-29.5 -18.5t-50 -23t-71 -18.5t-92 -8.5z" />
<glyph unicode="d" horiz-adv-x="976" d="M766 760h8l68 479h200l-174 -1239h-135l-14 127h-8q-4 -6 -10.5 -16t-32.5 -35t-56 -44.5t-80 -35.5t-106 -16q-139 0 -225 102.5t-86 273.5q0 225 127 375t305 150q50 0 91.5 -12.5t64 -30.5t38 -35.5t20.5 -30.5zM745 483q0 107 -48 169.5t-126 62.5 q-105 0 -178.5 -96.5t-73.5 -239.5q0 -104 47 -169t126 -65q104 0 178.5 95t74.5 243z" />
<glyph unicode="e" horiz-adv-x="858" d="M725 215l51 -137q-4 -4 -12 -11t-36.5 -25t-61 -31.5t-85.5 -24.5t-110 -11q-169 0 -262.5 105t-93.5 276q0 145 58 265t162 190t232 70q169 0 249 -118.5t52 -309.5l-8 -54h-549q-10 -128 42 -194t155 -66q57 0 111.5 19t80.5 38zM541 725q-147 0 -205 -193h344 q4 94 -31.5 143.5t-107.5 49.5z" />
<glyph unicode="f" horiz-adv-x="614" d="M729 702h-252l-98 -702h-201l98 702h-176l23 158h176l10 74q20 150 107.5 234.5t226.5 84.5q51 0 95.5 -10.5t63.5 -20.5l19 -10l-82 -151q-39 22 -98 22q-51 0 -85.5 -37t-43.5 -102l-12 -84h252z" />
<glyph unicode="g" d="M854 860h133l-113 -803q-27 -191 -145.5 -307.5t-310.5 -116.5q-55 0 -103 11.5t-77.5 25.5t-57.5 36.5t-37.5 33t-23.5 27.5l119 127q79 -101 198 -101q101 0 164 66t80 192l12 90q-90 -121 -266 -121q-138 0 -222.5 99t-84.5 260q0 221 126.5 361.5t309.5 140.5 q57 0 103.5 -16t71.5 -38t41.5 -46.5t22 -39t5.5 -18.5h8zM496 178q108 0 181 87.5t73 230.5q0 103 -48.5 162t-130.5 59q-101 0 -174 -91t-73 -225q0 -100 47 -161.5t125 -61.5z" />
<glyph unicode="h" horiz-adv-x="960" d="M109 0l174 1239h202l-65 -461h6q95 103 242 103q146 0 217.5 -106t46.5 -281l-70 -494h-200l65 473q14 103 -22.5 169.5t-116.5 66.5q-82 0 -139.5 -67t-67.5 -144l-70 -498h-202z" />
<glyph unicode="i" horiz-adv-x="421" d="M354 1018q-46 0 -75 30t-29 76q0 55 40.5 95.5t96.5 40.5q47 0 78 -31t31 -76q0 -56 -42.5 -95.5t-99.5 -39.5zM111 0l120 860h201l-121 -860h-200z" />
<glyph unicode="j" horiz-adv-x="421" d="M-41 -319l25 167h28q38 0 61 25.5t29 67.5l129 919h201l-131 -930q-15 -116 -83.5 -182.5t-180.5 -66.5h-78zM354 1018q-47 0 -76.5 29.5t-29.5 74.5q0 57 41 97.5t98 40.5q45 0 76 -31t31 -76q0 -56 -42 -95.5t-98 -39.5z" />
<glyph unicode="k" horiz-adv-x="862" d="M717 860h248l-367 -373l252 -487h-244l-178 352l-80 -80l-39 -272h-200l174 1239h200l-104 -737z" />
<glyph unicode="l" horiz-adv-x="423" d="M111 0l174 1239h200l-174 -1239h-200z" />
<glyph unicode="m" horiz-adv-x="1503" d="M109 0l120 860h129l11 -123h10q59 73 123.5 108.5t150.5 35.5q95 0 161 -40.5t97 -115.5h9q116 156 284 156q151 0 223.5 -106t47.5 -281l-70 -494h-201l68 475q14 103 -21.5 168.5t-117.5 65.5q-80 0 -134 -58.5t-69 -136.5l-72 -514h-201l70 496q12 94 -24.5 153.5 t-118.5 59.5q-80 0 -135 -59.5t-68 -135.5l-72 -514h-200z" />
<glyph unicode="n" horiz-adv-x="962" d="M379 500l-70 -500h-200l120 860h129l11 -123h10q60 74 125 109t155 35q151 0 224.5 -106t48.5 -281l-70 -494h-200l67 475q14 102 -22.5 168t-118.5 66q-84 0 -141.5 -65.5t-67.5 -143.5z" />
<glyph unicode="o" horiz-adv-x="933" d="M940 492q0 -112 -40 -209.5t-106.5 -163t-152.5 -102.5t-178 -37q-154 0 -252 104.5t-98 275.5q0 113 39.5 211.5t105 165.5t152.5 105.5t180 38.5q152 0 251 -107.5t99 -281.5zM485 139q103 0 178.5 96.5t75.5 245.5q0 108 -47.5 174t-124.5 66q-107 0 -181.5 -97.5 t-74.5 -248.5q0 -108 47.5 -172t126.5 -64z" />
<glyph unicode="p" d="M332 100h-8l-60 -419h-201l166 1179h133l11 -123h14q4 6 11 15.5t32.5 34.5t56 44t80.5 34.5t105 15.5q139 0 224 -102.5t85 -272.5q0 -225 -127 -375.5t-301 -150.5q-52 0 -94 12.5t-64.5 30t-38 35t-20.5 30.5zM354 375q0 -106 47.5 -168t124.5 -62q103 0 176.5 96.5 t73.5 239.5q0 103 -47 168.5t-123 65.5q-105 0 -178.5 -95t-73.5 -245z" />
<glyph unicode="q" d="M989 860l-166 -1179h-200l59 430h-8q-3 -5 -8.5 -14t-28 -31.5t-49 -40t-71.5 -31.5t-97 -14q-137 0 -221 103.5t-84 272.5q0 152 60.5 273.5t160 186.5t217.5 65q57 0 103.5 -16.5t71.5 -39.5t42 -46t22 -39l5 -17h8l49 137h135zM743 483q0 107 -47 169.5t-125 62.5 q-104 0 -178 -97.5t-74 -238.5q0 -105 47 -169.5t126 -64.5q104 0 177.5 94t73.5 244z" />
<glyph unicode="r" horiz-adv-x="563" d="M662 862l-23 -168h-45q-76 0 -138 -59t-79 -152l-68 -483h-200l120 860h129l9 -137h8q42 67 105 103t136 36h46z" />
<glyph unicode="s" horiz-adv-x="786" d="M72 80l88 137q12 -9 33.5 -23t87 -37.5t129.5 -23.5q78 0 112.5 29.5t34.5 77.5q0 29 -22.5 50t-58.5 35.5t-79 28t-86.5 32.5t-79.5 43.5t-58.5 67t-22.5 97.5q0 123 91 205t255 82q97 0 179 -18.5t115 -36.5l33 -19l-90 -156q-11 8 -30.5 20.5t-81 33t-125.5 20.5 q-70 0 -107 -26t-37 -74q0 -27 23 -47t59.5 -32.5t80.5 -25t88 -30t80.5 -42.5t59.5 -68t23 -101q0 -128 -93.5 -213.5t-279.5 -85.5q-65 0 -122 10.5t-92 25t-60.5 29t-36.5 25.5z" />
<glyph unicode="t" horiz-adv-x="632" d="M147 860h140l37 262h200l-37 -262h207l-22 -158h-207l-62 -436q-15 -114 76 -114q22 0 47 8t40 16l14 8l41 -141q-112 -63 -207 -63q-129 0 -180 75t-31 207l61 440h-139z" />
<glyph unicode="u" horiz-adv-x="958" d="M971 860l-121 -860h-133l-17 119h-10q-108 -139 -272 -139q-150 0 -221.5 106t-46.5 281l69 493h203l-68 -475q-14 -107 19 -172.5t114 -65.5t137.5 60.5t71.5 134.5l74 518h201z" />
<glyph unicode="v" horiz-adv-x="860" d="M977 860l-475 -860h-144l-231 860h219l109 -559q7 -35 4 -63h10q3 11 25 63l262 559h221z" />
<glyph unicode="w" horiz-adv-x="1241" d="M1350 860l-410 -860h-170l-57 535q-3 22 -3.5 49.5t1.5 31.5h-9q0 -2 -5 -16t-12.5 -34.5t-10.5 -28.5l-205 -537h-168l-166 860h211l62 -559q4 -40 4 -63h14q0 10 23 67l210 555h170l52 -555q4 -50 4 -67h14q0 4 21 63l225 559h205z" />
<glyph unicode="x" horiz-adv-x="843" d="M25 0l333 442l-200 418h227l117 -293h6l201 293h225l-330 -418l221 -442h-227l-125 319h-6l-217 -319h-225z" />
<glyph unicode="y" horiz-adv-x="954" d="M772 860h195l-117 -823q-26 -183 -140 -293.5t-302 -110.5q-53 0 -101 11.5t-77.5 25t-59 36.5t-39.5 33.5t-25 27.5l119 127l7 -8q6 -8 10.5 -12.5t14 -13.5t18 -15.5t21 -15t26.5 -14.5t30 -11.5t35 -8t39 -2.5q96 0 154 61.5t75 176.5l13 96q-102 -107 -240 -107 q-156 0 -229.5 105.5t-48.5 282.5l65 452h203l-62 -434q-16 -106 17 -172t114 -66q86 0 146.5 60.5t71.5 136.5z" />
<glyph unicode="z" horiz-adv-x="798" d="M735 0h-674l17 109l504 589h-418l22 162h670l-14 -98l-486 -600h402z" />
<glyph unicode="{" horiz-adv-x="559" d="M121 668h47q116 0 139 176l47 332q39 268 328 288l4 -168q-63 -11 -90 -38t-37 -99l-49 -340q-25 -181 -150 -225l-2 -19q55 -20 77.5 -77.5t10.5 -143.5l-49 -342q-10 -72 10 -99.5t80 -35.5l-53 -168q-285 17 -246 287l48 334q24 178 -91 178h-47z" />
<glyph unicode="|" horiz-adv-x="399" d="M492 1407l-236 -1669h-186l235 1669h187z" />
<glyph unicode="}" horiz-adv-x="559" d="M580 668h49l-23 -160h-49q-115 0 -139 -178l-47 -334q-39 -270 -326 -287l-6 168q62 8 89.5 35.5t37.5 99.5l49 342q12 85 51 143t99 78l2 19q-111 45 -86 225l47 340q10 72 -10 99t-80 38l55 168q283 -20 244 -288l-48 -332q-12 -91 10 -133.5t81 -42.5z" />
<glyph unicode="~" horiz-adv-x="899" d="M676 662q37 0 76 13t59 25l20 13l50 -125q-4 -3 -10.5 -8.5t-29 -19.5t-47 -24.5t-61.5 -19t-74 -8.5q-54 0 -131 32.5t-135 32.5q-37 0 -76 -12.5t-59 -25.5l-20 -13l-48 123q4 3 11 8.5t30.5 20t48 25t60.5 19.5t72 9q52 0 128.5 -32.5t135.5 -32.5z" />
<glyph unicode="&#xa1;" horiz-adv-x="405" d="M338 487l-68 -849h-237l170 849h135zM182 737q0 61 43 103.5t101 42.5q47 0 77.5 -32t30.5 -81q0 -60 -43 -102.5t-100 -42.5q-47 0 -78 32t-31 80z" />
<glyph unicode="&#xa2;" horiz-adv-x="800" d="M344 0l45 174q-113 33 -176 131t-63 236q0 219 134.5 367t336.5 153l43 168h100l-47 -176q45 -8 82.5 -24.5t52.5 -28.5l14 -13l-73 -149q-47 37 -117 51l-148 -563h17q44 0 89.5 14t69.5 28l23 15l31 -147q-4 -3 -11 -8t-31.5 -18.5t-51.5 -23.5t-70 -18t-88 -8h-21 l-41 -160h-100zM354 559q0 -144 84 -203l137 533q-94 -23 -157.5 -112.5t-63.5 -217.5z" />
<glyph unicode="&#xa3;" horiz-adv-x="948" d="M883 180l-25 -180h-749l24 180h2v2q6 2 15 7.5t33 24.5t42.5 43t33.5 65t15 88q0 52 -6 114h-112l20 148h78q-2 23 -2 90q0 134 57.5 243t168 173.5t255.5 64.5q61 0 114.5 -13.5t87 -32.5t58 -37.5t35.5 -31.5l10 -14l-143 -160q-2 4 -6.5 10t-21.5 22t-36 28.5 t-51 22.5t-67 10q-113 0 -174.5 -80t-61.5 -215q0 -60 2 -80h352l-20 -148h-319q2 -25 2 -84q0 -151 -91 -260h480z" />
<glyph unicode="&#xa5;" horiz-adv-x="1118" d="M709 748l303 481h225l-418 -617h232l-21 -147h-303l-20 -139h303l-21 -146h-303l-24 -180h-203l24 180h-301l21 146h301l20 139h-301l21 147h229l-246 617h226l172 -481l28 -95z" />
<glyph unicode="&#xa6;" horiz-adv-x="419" d="M395 676h-184l98 702h185zM256 -313h-184l98 702h184z" />
<glyph unicode="&#xa7;" horiz-adv-x="995" d="M78 94l115 148q5 -4 14 -10.5t40 -24t65 -30.5t87.5 -23.5t108.5 -10.5q108 0 160.5 32t52.5 85q0 44 -42 70.5t-161 68.5q-64 21 -110.5 41t-90 49t-66 67.5t-22.5 84.5q0 63 30 103.5t63 58.5q-86 58 -86 155q0 132 115.5 214.5t332.5 82.5q75 0 141 -10t106 -24 t70 -28t42 -24l12 -10l-113 -153q-4 3 -12 8.5t-35 19.5t-57.5 24.5t-79 19.5t-99.5 9q-96 0 -142 -30t-46 -80q0 -44 37.5 -70.5t124.5 -54.5q71 -22 122 -43.5t103 -52.5t79.5 -71.5t27.5 -88.5q0 -62 -30 -106.5t-63 -67.5q84 -65 84 -156q0 -122 -120 -208.5t-344 -86.5 q-81 0 -153.5 12.5t-118 30.5t-79.5 36.5t-49 31.5zM545 713q-35 8 -76 22q-39 -26 -39 -69q0 -67 178 -127l115 -39q37 37 37 75q0 41 -53.5 72t-161.5 66z" />
<glyph unicode="&#xa8;" horiz-adv-x="862" d="M365 1442q0 49 38.5 87t85.5 38q38 0 65.5 -30.5t27.5 -70.5q0 -49 -39 -87t-86 -38q-38 0 -65 30.5t-27 70.5zM692 1442q0 49 39 87t86 38q38 0 64 -30.5t26 -70.5q0 -49 -39 -87t-84 -38q-39 0 -65.5 30t-26.5 71z" />
<glyph unicode="&#xa9;" horiz-adv-x="1271" d="M811 1239q151 0 261 -72t164 -191.5t54 -270.5q0 -142 -48 -272.5t-132.5 -229t-208 -157t-266.5 -58.5q-151 0 -262 72t-166 192t-55 270q0 143 48.5 273.5t133.5 228.5t209.5 156.5t267.5 58.5zM799 1153q-161 0 -290.5 -86t-199 -227.5t-69.5 -307.5q0 -198 108 -328 t299 -130q161 0 289.5 86t198 227t69.5 307q0 200 -107.5 329.5t-297.5 129.5zM967 868l-84 -104q-4 6 -12.5 14.5t-37 22.5t-61.5 14q-88 0 -143.5 -67t-55.5 -166q0 -74 38 -120t104 -46q34 0 65.5 12t46.5 24l15 13l55 -103q-3 -3 -8.5 -8t-25.5 -18t-42 -23t-57.5 -18 t-73.5 -8q-122 0 -191 78.5t-69 201.5q0 156 98.5 266.5t253.5 110.5q38 0 71.5 -8t53.5 -19t34 -22t20 -19z" />
<glyph unicode="&#xaa;" horiz-adv-x="735" d="M164 733q0 112 81 178t214 66q108 0 159 -51l3 20q11 96 -15 140t-110 44q-76 0 -177 -45l-26 119q13 6 36.5 15t87 23.5t118.5 14.5q149 0 201.5 -80.5t31.5 -234.5l-53 -381h-109l-12 74h-8q-69 -90 -219 -90q-89 0 -146 52.5t-57 135.5zM313 750q0 -44 31 -71.5 t86 -27.5q62 0 108 36.5t56 82.5l2 10q0 47 -34.5 73t-94.5 26q-74 0 -114 -34.5t-40 -94.5z" />
<glyph unicode="&#xab;" horiz-adv-x="913" d="M121 403l6 46l293 387h168l-4 -21l-281 -381l-2 -12l174 -385l-4 -21h-168zM502 403l6 46l291 387h168l-4 -21l-283 -381l-2 -12l176 -385l-4 -21h-168z" />
<glyph unicode="&#xac;" horiz-adv-x="1032" d="M156 545l22 164h842l-98 -709h-168l75 545h-673z" />
<glyph unicode="&#xad;" horiz-adv-x="722" d="M154 387l22 164h526l-22 -164h-526z" />
<glyph unicode="&#xae;" horiz-adv-x="1007" d="M1040 848q0 -145 -61.5 -269.5t-176.5 -201t-259 -76.5q-168 0 -263.5 116.5t-95.5 291.5q0 145 61 269t175.5 200.5t257.5 76.5q171 0 266.5 -115.5t95.5 -291.5zM954 838q0 144 -78 236.5t-210 92.5q-168 0 -281 -128t-113 -320q0 -143 77 -236.5t206 -93.5 q169 0 284 130.5t115 318.5zM479 993h178q66 0 105 -35t39 -94q0 -95 -88 -145v-2l57 -117l-4 -20h-96l-56 114h-88l-16 -114h-90zM643 905h-86l-18 -125h86q35 0 57.5 19t22.5 53q0 53 -62 53z" />
<glyph unicode="&#xaf;" horiz-adv-x="991" d="M418 1368l18 125h561l-18 -125h-561z" />
<glyph unicode="&#xb0;" horiz-adv-x="542" d="M465 1376q86 0 136 -54t50 -138q0 -103 -71 -175.5t-177 -72.5q-86 0 -136 53t-50 137q0 102 71.5 176t176.5 74zM451 1274q-53 0 -85 -39t-32 -96q0 -42 22.5 -69.5t63.5 -27.5q50 0 83.5 38.5t33.5 93.5q0 44 -23.5 72t-62.5 28z" />
<glyph unicode="&#xb1;" horiz-adv-x="968" d="M623 365h-168l45 327h-301l22 164h301l49 340h168l-49 -340h295l-22 -164h-295zM897 229l-23 -166h-763l22 166h764z" />
<glyph unicode="&#xb2;" horiz-adv-x="632" d="M190 700l17 111l274 236q41 39 55.5 68t14.5 61q0 81 -82 81q-19 0 -37.5 -5t-36 -14.5t-29.5 -17.5t-27.5 -19.5t-19.5 -14.5l-57 108q4 4 11 10t31 22t49.5 28t64 22t76.5 10q102 0 152 -52.5t50 -135.5q0 -76 -26 -125.5t-80 -93.5l-189 -160h256l-16 -119h-451z" />
<glyph unicode="&#xb3;" horiz-adv-x="610" d="M260 1247l19 121h428l-15 -90l-141 -172q58 -15 89.5 -57t31.5 -105q0 -110 -75.5 -185t-209.5 -75q-20 0 -40 2.5t-36 6.5t-31 10t-27 12t-23 13t-19 13t-15 12.5t-11 10.5t-7 8l-4 4l88 101q5 -8 15 -19t45 -30t75 -19q64 0 97.5 35t33.5 86q0 80 -90 80h-76l11 73 l137 164h-250z" />
<glyph unicode="&#xb4;" horiz-adv-x="528" d="M604 1288l-231 -270h-135l135 297z" />
<glyph unicode="&#xb5;" horiz-adv-x="960" d="M268 -262h-202l77 551q0 31 7 78l69 493h203l-51 -352h6l-27 -191q0 -78 34.5 -124t102.5 -46q81 0 137.5 60.5t71.5 134.5l74 518h201l-121 -860h-133l-17 119h-10q-108 -139 -272 -139q-58 0 -113 20z" />
<glyph unicode="&#xb6;" horiz-adv-x="1015" d="M666 -168l59 418h-102q-210 0 -338.5 112t-128.5 316q0 132 46.5 238t128 174t190 104.5t235.5 36.5h309l-197 -1399h-202z" />
<glyph unicode="&#xb7;" horiz-adv-x="413" d="M184 719q0 59 43 103t99 44q49 0 79.5 -33t30.5 -81q0 -60 -43 -103t-102 -43q-46 0 -76.5 33t-30.5 80z" />
<glyph unicode="&#xb8;" horiz-adv-x="385" d="M117 -141l-27 41l62 106h98l-37 -69q45 0 73.5 -30t28.5 -81q0 -75 -49 -122.5t-133 -47.5q-29 0 -54.5 6.5t-41 15t-27 17.5t-16.5 15l-4 7l57 74l13 -10q12 -10 20 -15t25.5 -10.5t35.5 -5.5q34 0 55 18.5t21 49.5q0 47 -55 47q-13 0 -24 -1.5t-16 -3.5z" />
<glyph unicode="&#xb9;" horiz-adv-x="405" d="M219 1247l17 121h253l-94 -668h-133l78 547h-121z" />
<glyph unicode="&#xba;" horiz-adv-x="741" d="M547 1255q118 0 190 -81t72 -218q0 -178 -106 -291.5t-257 -113.5q-118 0 -191 81t-73 214q0 181 106 295t259 114zM528 1126q-87 0 -141.5 -75.5t-54.5 -192.5q0 -83 34.5 -130.5t98.5 -47.5q87 0 142 75t55 191q0 83 -35 131.5t-99 48.5z" />
<glyph unicode="&#xbb;" horiz-adv-x="911" d="M535 449l-7 -46l-292 -387h-170l2 21l284 385l2 12l-176 381l2 21h170zM911 449l-6 -46l-291 -387h-170l2 21l285 385l2 12l-176 381l2 21h170z" />
<glyph unicode="&#xbc;" horiz-adv-x="1200" d="M219 0h-164l1055 1229h164zM614 164l13 86l393 418h102l-55 -392h107l-17 -112h-106l-23 -164h-129l23 164h-308zM240 1108l16 121h256l-92 -668h-135l75 547h-120zM842 328q-13 -18 -51 -56l63 4h84l20 150l9 51h-2z" />
<glyph unicode="&#xbd;" horiz-adv-x="1306" d="M217 0h-162l1053 1229h166zM805 111l-17 -111h449l16 119h-254l189 160q62 53 84 104.5t22 114.5q0 83 -50 135.5t-152 52.5q-39 0 -77 -9.5t-65 -23t-48 -27t-32 -22.5l-10 -10l58 -109q2 1 25 18.5t37 26t39 18t48 9.5q82 0 82 -82q0 -33 -14 -62t-58 -67zM246 1108 l16 121h256l-92 -668h-135l76 547h-121z" />
<glyph unicode="&#xbe;" horiz-adv-x="1316" d="M354 0h-164l1055 1229h164zM739 158l13 86l391 418h102l-55 -392h102l-16 -112h-102l-23 -158h-129l22 158h-305zM238 1108l18 121h428l-14 -90l-144 -172q60 -15 91.5 -57t31.5 -105q0 -110 -76 -185t-211 -75q-40 0 -75.5 9t-58 21t-41 27t-25.5 23t-10 12l88 100 q2 -3 5.5 -7.5t16 -16t27 -20.5t38 -16t48.5 -7q64 0 97.5 35t33.5 86q0 79 -90 79h-78l10 74l137 164h-247zM965 324q-16 -24 -50 -58l62 4h84l20 150l9 53h-3z" />
<glyph unicode="&#xbf;" horiz-adv-x="800" d="M643 -106l76 -164q-5 -5 -15 -12.5t-43 -27.5t-69 -35t-92.5 -27.5t-114.5 -12.5q-156 0 -248 77t-92 210q0 68 18 125t47 96.5t65 73t74 61.5t71 55.5t59 62t35 73.5l12 49h156l-11 -74q-9 -63 -43 -117t-75.5 -92t-82 -75t-67.5 -84.5t-27 -102.5q0 -65 41 -103 t113 -38q52 0 105 20.5t81 41.5zM659 776q0 -58 -41.5 -99.5t-97.5 -41.5q-45 0 -75.5 32t-30.5 78q0 58 42.5 100t98.5 42q45 0 74.5 -31.5t29.5 -79.5z" />
<glyph unicode="&#xc0;" horiz-adv-x="1120" d="M834 1229l288 -1229h-215l-53 252h-518l-123 -252h-215l631 1229h205zM698 991l-278 -567h397zM668 1300l-136 275l234 35l39 -310h-137z" />
<glyph unicode="&#xc1;" horiz-adv-x="1120" d="M834 1229l288 -1229h-215l-53 252h-518l-123 -252h-215l631 1229h205zM698 991l-278 -567h397zM1044 1571l-231 -271h-135l135 297z" />
<glyph unicode="&#xc2;" horiz-adv-x="1120" d="M834 1229l288 -1229h-215l-53 252h-518l-123 -252h-215l631 1229h205zM698 991l-278 -567h397zM838 1341l-70 127l-109 -127h-153l199 248h157l131 -248h-155z" />
<glyph unicode="&#xc3;" horiz-adv-x="1120" d="M834 1229l288 -1229h-215l-53 252h-518l-123 -252h-215l631 1229h205zM698 991l-278 -567h397zM895 1346q-50 0 -95 25.5t-81.5 51t-65.5 25.5q-55 0 -82 -74l-12 -33l-139 15l20 61q60 185 211 185q49 0 93.5 -26t81 -51.5t67.5 -25.5q33 0 51.5 20t30.5 56l10 31 l141 -13l-18 -61q-25 -84 -79 -135t-134 -51z" />
<glyph unicode="&#xc4;" horiz-adv-x="1120" d="M834 1229l288 -1229h-215l-53 252h-518l-123 -252h-215l631 1229h205zM698 991l-278 -567h397zM492 1442q0 49 38.5 87t85.5 38q38 0 65.5 -30.5t27.5 -70.5q0 -49 -39 -87t-86 -38q-38 0 -65 30.5t-27 70.5zM819 1442q0 49 39 87t86 38q38 0 64 -30.5t26 -70.5 q0 -49 -39 -87t-84 -38q-39 0 -65.5 30t-26.5 71z" />
<glyph unicode="&#xc5;" horiz-adv-x="1120" d="M834 1229l288 -1229h-215l-53 252h-518l-123 -252h-215l631 1229h205zM698 991l-278 -567h397zM553 1442q11 81 73.5 130.5t159.5 49.5q95 0 144.5 -49.5t38.5 -130.5t-74.5 -131.5t-159.5 -50.5t-144.5 50.5t-37.5 131.5zM854 1442q5 38 -16.5 59t-65.5 21 q-43 0 -70.5 -21t-31.5 -59q-6 -39 15.5 -59.5t64.5 -20.5q92 0 104 80z" />
<glyph unicode="&#xc6;" horiz-adv-x="1665" d="M-23 0l941 1229h851l-24 -180h-621l-49 -344h510l-22 -173h-510l-52 -352h621l-25 -180h-823l37 258h-401l-187 -258h-246zM897 930l-360 -498h299l69 498h-8z" />
<glyph unicode="&#xc7;" horiz-adv-x="1044" d="M528 -141l-26 41l45 77q-189 29 -296.5 178.5t-107.5 362.5q0 198 85 366.5t239 269.5t344 101q53 0 101 -8.5t82.5 -22t64.5 -30t49.5 -32.5t33 -29.5t19.5 -22.5l6 -8l-137 -158q-3 5 -9.5 13t-29 28.5t-48.5 36t-68.5 28.5t-88.5 13q-179 0 -305.5 -153t-126.5 -367 q0 -164 83 -270.5t222 -106.5q46 0 91.5 12t77.5 29t57.5 34.5t38.5 29.5l12 12l94 -156q-6 -6 -16.5 -16t-47.5 -36.5t-78.5 -46.5t-108 -37.5t-136.5 -19.5l-18 -34q45 0 73.5 -30t28.5 -81q0 -75 -49 -122.5t-133 -47.5q-29 0 -54.5 6.5t-41.5 15t-27.5 17.5t-15.5 15 l-5 7l58 74l13 -10q12 -10 20 -15t25.5 -10.5t35.5 -5.5q34 0 55 18.5t21 49.5q0 23 -15.5 35t-40.5 12q-13 0 -24 -1.5t-16 -3.5z" />
<glyph unicode="&#xc8;" horiz-adv-x="1009" d="M946 709l-24 -172h-508l-52 -357h603l-25 -180h-805l172 1229h805l-25 -180h-602l-47 -340h508zM676 1300l-135 275l233 35l39 -310h-137z" />
<glyph unicode="&#xc9;" horiz-adv-x="1009" d="M1026 1571l-231 -271h-136l136 297zM946 709l-24 -172h-508l-52 -357h603l-25 -180h-805l172 1229h805l-25 -180h-602l-47 -340h508z" />
<glyph unicode="&#xca;" horiz-adv-x="1009" d="M831 1341l-69 127l-109 -127h-153l198 248h158l131 -248h-156zM946 709l-24 -172h-508l-52 -357h603l-25 -180h-805l172 1229h805l-25 -180h-602l-47 -340h508z" />
<glyph unicode="&#xcb;" horiz-adv-x="1009" d="M483 1442q0 49 39 87t86 38q38 0 65 -30.5t27 -70.5q0 -49 -39 -87t-86 -38q-38 0 -65 30.5t-27 70.5zM811 1442q0 49 39 87t86 38q38 0 64 -30.5t26 -70.5q0 -49 -39 -87t-84 -38q-39 0 -65.5 30t-26.5 71zM946 709l-24 -172h-508l-52 -357h603l-25 -180h-805l172 1229 h805l-25 -180h-602l-47 -340h508z" />
<glyph unicode="&#xcc;" horiz-adv-x="471" d="M510 1229l-172 -1229h-203l172 1229h203zM342 1300l-135 275l233 35l39 -310h-137z" />
<glyph unicode="&#xcd;" horiz-adv-x="471" d="M510 1229l-172 -1229h-203l172 1229h203zM717 1571l-232 -271h-135l135 297z" />
<glyph unicode="&#xce;" horiz-adv-x="471" d="M510 1229l-172 -1229h-203l172 1229h203zM516 1341l-70 127l-108 -127h-154l199 248h158l131 -248h-156z" />
<glyph unicode="&#xcf;" horiz-adv-x="471" d="M510 1229l-172 -1229h-203l172 1229h203zM168 1442q0 49 39 87t86 38q38 0 65 -30.5t27 -70.5q0 -49 -39 -87t-86 -38q-38 0 -65 30.5t-27 70.5zM496 1442q0 49 39 87t86 38q38 0 64 -30.5t26 -70.5q0 -49 -39 -87t-84 -38q-39 0 -65.5 30t-26.5 71z" />
<glyph unicode="&#xd0;" horiz-adv-x="1189" d="M111 530l26 183h99l71 516h406q233 0 366 -142t133 -378q0 -205 -85 -366.5t-238 -252t-348 -90.5h-406l74 530h-98zM674 1049h-189l-49 -336h279l-27 -183h-276l-50 -350h189q92 0 174 35.5t144 99.5t98.5 160.5t36.5 210.5q0 170 -91 266.5t-239 96.5z" />
<glyph unicode="&#xd1;" horiz-adv-x="1247" d="M1286 1229l-172 -1229h-151l-508 852l-119 -852h-201l172 1227v2h150l508 -856l118 856h203zM958 1346q-39 0 -76.5 16t-61 35t-51.5 35t-52 16q-55 0 -82 -74l-12 -33l-140 15l21 61q60 185 211 185q39 0 75.5 -16t60 -35.5t52 -35.5t53.5 -16q33 0 51.5 20t30.5 56 l11 31l141 -13l-19 -61q-25 -84 -79 -135t-134 -51z" />
<glyph unicode="&#xd2;" horiz-adv-x="1263" d="M627 -29q-148 0 -259 73.5t-168 197.5t-57 278q0 148 51 283t138.5 234.5t211.5 158.5t263 59q223 0 354 -155t131 -393q0 -197 -86 -365.5t-239.5 -269.5t-339.5 -101zM653 168q117 0 215.5 68.5t155.5 187.5t57 260q0 164 -82 270.5t-219 106.5q-117 0 -215 -69.5 t-154.5 -189.5t-56.5 -261q0 -163 81 -268t218 -105zM752 1341l-136 275l234 35l39 -310h-137z" />
<glyph unicode="&#xd3;" horiz-adv-x="1263" d="M1110 1612l-231 -271h-136l136 297zM627 -29q-148 0 -259 73.5t-168 197.5t-57 278q0 148 51 283t138.5 234.5t211.5 158.5t263 59q223 0 354 -155t131 -393q0 -197 -86 -365.5t-239.5 -269.5t-339.5 -101zM653 168q117 0 215.5 68.5t155.5 187.5t57 260q0 164 -82 270.5 t-219 106.5q-117 0 -215 -69.5t-154.5 -189.5t-56.5 -261q0 -163 81 -268t218 -105z" />
<glyph unicode="&#xd4;" horiz-adv-x="1263" d="M911 1341l-69 127l-109 -127h-153l198 248h158l131 -248h-156zM627 -29q-148 0 -259 73.5t-168 197.5t-57 278q0 148 51 283t138.5 234.5t211.5 158.5t263 59q223 0 354 -155t131 -393q0 -197 -86 -365.5t-239.5 -269.5t-339.5 -101zM653 168q117 0 215.5 68.5 t155.5 187.5t57 260q0 164 -82 270.5t-219 106.5q-117 0 -215 -69.5t-154.5 -189.5t-56.5 -261q0 -163 81 -268t218 -105z" />
<glyph unicode="&#xd5;" horiz-adv-x="1263" d="M627 -29q-148 0 -259 73.5t-168 197.5t-57 278q0 148 51 283t138.5 234.5t211.5 158.5t263 59q223 0 354 -155t131 -393q0 -197 -86 -365.5t-239.5 -269.5t-339.5 -101zM653 168q117 0 215.5 68.5t155.5 187.5t57 260q0 164 -82 270.5t-219 106.5q-117 0 -215 -69.5 t-154.5 -189.5t-56.5 -261q0 -163 81 -268t218 -105zM961 1346q-50 0 -95 25.5t-81.5 51t-65.5 25.5q-55 0 -82 -74l-12 -33l-140 15l21 61q60 185 211 185q39 0 75.5 -16t60 -35.5t52 -35.5t53.5 -16q33 0 51.5 20t30.5 56l11 31l141 -13l-18 -61q-25 -84 -79 -135 t-134 -51z" />
<glyph unicode="&#xd6;" horiz-adv-x="1263" d="M563 1442q0 49 39 87t86 38q38 0 65 -30.5t27 -70.5q0 -49 -39 -87t-86 -38q-38 0 -65 30.5t-27 70.5zM891 1442q0 49 39 87t86 38q38 0 64 -30.5t26 -70.5q0 -49 -39 -87t-84 -38q-39 0 -65.5 30t-26.5 71zM627 -29q-148 0 -259 73.5t-168 197.5t-57 278q0 148 51 283 t138.5 234.5t211.5 158.5t263 59q223 0 354 -155t131 -393q0 -197 -86 -365.5t-239.5 -269.5t-339.5 -101zM653 168q117 0 215.5 68.5t155.5 187.5t57 260q0 164 -82 270.5t-219 106.5q-117 0 -215 -69.5t-154.5 -189.5t-56.5 -261q0 -163 81 -268t218 -105z" />
<glyph unicode="&#xd7;" horiz-adv-x="942" d="M231 195l-98 114l316 305l-230 308l131 114l223 -301l312 301l96 -114l-315 -308l229 -305l-129 -114l-225 299z" />
<glyph unicode="&#xd8;" horiz-adv-x="1284" d="M639 -29q-202 0 -332 133l-108 -104h-213l233 227q-63 129 -63 293q0 148 51 283t138 234.5t211 158.5t263 59q196 0 328 -129l106 103h211l-229 -221q70 -134 70 -301q0 -197 -86 -365.5t-240 -269.5t-340 -101zM666 168q117 0 215.5 68.5t155.5 187.5t57 260 q0 87 -25 160l-606 -590q80 -86 203 -86zM367 541q0 -88 20 -152l606 588q-81 84 -200 84q-117 0 -215 -69.5t-154.5 -189.5t-56.5 -261z" />
<glyph unicode="&#xd9;" horiz-adv-x="1189" d="M590 -29q-144 0 -242.5 70.5t-137.5 195t-17 283.5l100 709h203l-101 -709q-23 -158 34.5 -256t188.5 -98q134 0 216.5 97t105.5 257l100 709h203l-100 -709q-34 -244 -183 -396.5t-370 -152.5zM705 1300l-136 275l234 35l39 -310h-137z" />
<glyph unicode="&#xda;" horiz-adv-x="1189" d="M1069 1571l-231 -271h-136l136 297zM590 -29q-144 0 -242.5 70.5t-137.5 195t-17 283.5l100 709h203l-101 -709q-23 -158 34.5 -256t188.5 -98q134 0 216.5 97t105.5 257l100 709h203l-100 -709q-34 -244 -183 -396.5t-370 -152.5z" />
<glyph unicode="&#xdb;" horiz-adv-x="1189" d="M868 1298l-69 127l-109 -127h-153l198 248h158l131 -248h-156zM590 -29q-144 0 -242.5 70.5t-137.5 195t-17 283.5l100 709h203l-101 -709q-23 -158 34.5 -256t188.5 -98q134 0 216.5 97t105.5 257l100 709h203l-100 -709q-34 -244 -183 -396.5t-370 -152.5z" />
<glyph unicode="&#xdc;" horiz-adv-x="1189" d="M530 1442q0 49 39 87t86 38q38 0 65.5 -30.5t27.5 -70.5q0 -49 -39 -87t-86 -38q-38 0 -65.5 30.5t-27.5 70.5zM858 1442q0 49 39 87t86 38q38 0 64 -30.5t26 -70.5q0 -49 -39 -87t-84 -38q-39 0 -65.5 30t-26.5 71zM590 -29q-144 0 -242.5 70.5t-137.5 195t-17 283.5 l100 709h203l-101 -709q-23 -158 34.5 -256t188.5 -98q134 0 216.5 97t105.5 257l100 709h203l-100 -709q-34 -244 -183 -396.5t-370 -152.5z" />
<glyph unicode="&#xdd;" horiz-adv-x="1005" d="M651 748l303 481h226l-508 -750l-68 -479h-203l68 479l-299 750h225l172 -481l29 -95zM991 1638l-231 -270h-135l135 297z" />
<glyph unicode="&#xde;" horiz-adv-x="1091" d="M510 1229l-27 -193h277q181 0 282 -92t101 -260q0 -156 -67.5 -270t-183 -171t-265.5 -57h-262l-27 -186h-203l172 1229h203zM930 653q0 98 -56 149.5t-155 51.5h-260l-70 -489h260q132 0 206.5 72t74.5 216z" />
<glyph unicode="&#xdf;" horiz-adv-x="940" d="M522 539l21 143q200 37 200 240q0 70 -32.5 107.5t-94.5 37.5q-73 0 -121 -47.5t-61 -145.5l-125 -874h-200l116 831q28 197 137.5 302.5t288.5 105.5q141 0 222 -84t81 -215q0 -102 -44 -182.5t-119 -120.5q68 -27 103.5 -94.5t35.5 -155.5q0 -179 -113.5 -291 t-298.5 -112q-41 0 -71 4t-40 8l-10 4l29 139q39 -6 80 -6q101 0 164 65t63 169q0 82 -44.5 127t-123.5 45h-43z" />
<glyph unicode="&#xe0;" d="M797 733h8l49 127h135l-121 -860h-135l-14 127h-8q-4 -6 -10.5 -16t-32.5 -35t-56 -44.5t-80 -35.5t-106 -16q-139 0 -225 102.5t-86 273.5q0 224 128.5 374.5t305.5 150.5q57 0 103.5 -15t72 -37t43 -44t23.5 -37zM745 483q0 107 -48 169.5t-126 62.5 q-105 0 -178.5 -96.5t-73.5 -239.5q0 -104 47 -169t126 -65q104 0 178.5 95t74.5 243zM551 1018l-135 274l233 35l39 -309h-137z" />
<glyph unicode="&#xe1;" d="M797 733h8l49 127h135l-121 -860h-135l-14 127h-8q-4 -6 -10.5 -16t-32.5 -35t-56 -44.5t-80 -35.5t-106 -16q-139 0 -225 102.5t-86 273.5q0 224 128.5 374.5t305.5 150.5q57 0 103.5 -15t72 -37t43 -44t23.5 -37zM745 483q0 107 -48 169.5t-126 62.5 q-105 0 -178.5 -96.5t-73.5 -239.5q0 -104 47 -169t126 -65q104 0 178.5 95t74.5 243zM901 1288l-231 -270h-135l135 297z" />
<glyph unicode="&#xe2;" d="M797 733h8l49 127h135l-121 -860h-135l-14 127h-8q-4 -6 -10.5 -16t-32.5 -35t-56 -44.5t-80 -35.5t-106 -16q-139 0 -225 102.5t-86 273.5q0 224 128.5 374.5t305.5 150.5q57 0 103.5 -15t72 -37t43 -44t23.5 -37zM745 483q0 107 -48 169.5t-126 62.5 q-105 0 -178.5 -96.5t-73.5 -239.5q0 -104 47 -169t126 -65q104 0 178.5 95t74.5 243zM709 1059l-70 127l-109 -127h-153l198 248h158l131 -248h-155z" />
<glyph unicode="&#xe3;" d="M797 733h8l49 127h135l-121 -860h-135l-14 127h-8q-4 -6 -10.5 -16t-32.5 -35t-56 -44.5t-80 -35.5t-106 -16q-139 0 -225 102.5t-86 273.5q0 224 128.5 374.5t305.5 150.5q57 0 103.5 -15t72 -37t43 -44t23.5 -37zM745 483q0 107 -48 169.5t-126 62.5 q-105 0 -178.5 -96.5t-73.5 -239.5q0 -104 47 -169t126 -65q104 0 178.5 95t74.5 243zM754 1022q-50 0 -95 25.5t-81.5 51t-65.5 25.5q-56 0 -82 -73l-12 -33l-139 14l20 62q60 184 211 184q39 0 75.5 -16t60 -35t52.5 -35t54 -16q58 0 82 75l10 31l141 -12l-18 -62 q-25 -84 -79 -135t-134 -51z" />
<glyph unicode="&#xe4;" d="M797 733h8l49 127h135l-121 -860h-135l-14 127h-8q-4 -6 -10.5 -16t-32.5 -35t-56 -44.5t-80 -35.5t-106 -16q-139 0 -225 102.5t-86 273.5q0 224 128.5 374.5t305.5 150.5q57 0 103.5 -15t72 -37t43 -44t23.5 -37zM745 483q0 107 -48 169.5t-126 62.5 q-105 0 -178.5 -96.5t-73.5 -239.5q0 -104 47 -169t126 -65q104 0 178.5 95t74.5 243zM352 1116q0 49 39 87t86 38q38 0 65 -30t27 -70q0 -49 -39 -87t-86 -38q-38 0 -65 30t-27 70zM680 1116q0 49 39 87t86 38q38 0 64 -30t26 -70q0 -49 -39 -87t-84 -38q-39 0 -65.5 29.5 t-26.5 70.5z" />
<glyph unicode="&#xe5;" d="M797 733h8l49 127h135l-121 -860h-135l-14 127h-8q-4 -6 -10.5 -16t-32.5 -35t-56 -44.5t-80 -35.5t-106 -16q-139 0 -225 102.5t-86 273.5q0 224 128.5 374.5t305.5 150.5q57 0 103.5 -15t72 -37t43 -44t23.5 -37zM745 483q0 107 -48 169.5t-126 62.5 q-105 0 -178.5 -96.5t-73.5 -239.5q0 -104 47 -169t126 -65q104 0 178.5 95t74.5 243zM426 1196q11 81 73.5 130.5t159.5 49.5q95 0 144.5 -49.5t38.5 -130.5t-74.5 -131.5t-159.5 -50.5t-144.5 50.5t-37.5 131.5zM727 1196q5 38 -16.5 59t-65.5 21q-43 0 -70.5 -21 t-31.5 -59q-6 -39 15.5 -59.5t64.5 -20.5q92 0 104 80z" />
<glyph unicode="&#xe6;" horiz-adv-x="1374" d="M1241 217l53 -135q-4 -4 -12 -11t-36.5 -25.5t-61 -32t-85.5 -25t-110 -11.5q-196 0 -291 132q-122 -129 -331 -129q-142 0 -214.5 65t-72.5 168q0 143 98.5 229t296.5 86q87 0 172 -26l4 28q13 93 -31 140t-135 47q-51 0 -106 -17.5t-84 -35.5l-29 -17l-47 156 q15 9 42 22t108 34.5t159 21.5q199 0 273 -117q123 117 286 117q146 0 226 -97t80 -258q0 -35 -4.5 -66.5t-8.5 -45.5l-4 -15h-547q-10 -127 42.5 -192.5t152.5 -65.5q57 0 111.5 19t80.5 38zM406 123q91 0 148.5 58t68.5 145l6 47q-62 30 -154 30q-101 0 -150 -44t-49 -121 q0 -51 33.5 -83t96.5 -32zM1059 725q-147 0 -205 -193h344q4 94 -31.5 143.5t-107.5 49.5z" />
<glyph unicode="&#xe7;" horiz-adv-x="763" d="M362 -150l-26 41l53 95q-128 23 -201 124t-73 250q0 222 136 371.5t339 149.5q49 0 91 -8t67.5 -19t43.5 -22t26 -19l7 -8l-75 -148q-7 6 -20.5 16t-57 26t-88.5 16q-112 0 -188.5 -93.5t-76.5 -246.5q0 -109 49.5 -169.5t135.5 -60.5q45 0 90 14.5t68 28.5l22 15 l31 -146q-3 -3 -9 -7.5t-27 -17t-45.5 -22.5t-64.5 -19t-84 -11l-26 -52q45 0 73.5 -29.5t28.5 -80.5q0 -75 -49 -122.5t-133 -47.5q-29 0 -54.5 6.5t-41 15t-27 17.5t-16.5 15l-4 7l57 74l13 -10q12 -10 20 -15t25.5 -10.5t35.5 -5.5q34 0 55 18.5t21 49.5q0 47 -55 47 q-13 0 -24.5 -1.5t-16.5 -3.5z" />
<glyph unicode="&#xe8;" horiz-adv-x="858" d="M725 215l51 -137q-4 -4 -12 -11t-36.5 -25t-61 -31.5t-85.5 -24.5t-110 -11q-169 0 -262.5 105t-93.5 276q0 145 58 265t162 190t232 70q169 0 249 -118.5t52 -309.5l-8 -54h-549q-10 -128 42 -194t155 -66q57 0 111.5 19t80.5 38zM541 725q-147 0 -205 -193h344 q4 94 -31.5 143.5t-107.5 49.5zM506 1018l-135 274l233 35l39 -309h-137z" />
<glyph unicode="&#xe9;" horiz-adv-x="858" d="M889 1288l-232 -270h-135l135 297zM725 215l51 -137q-4 -4 -12 -11t-36.5 -25t-61 -31.5t-85.5 -24.5t-110 -11q-169 0 -262.5 105t-93.5 276q0 145 58 265t162 190t232 70q169 0 249 -118.5t52 -309.5l-8 -54h-549q-10 -128 42 -194t155 -66q57 0 111.5 19t80.5 38z M541 725q-147 0 -205 -193h344q4 94 -31.5 143.5t-107.5 49.5z" />
<glyph unicode="&#xea;" horiz-adv-x="858" d="M676 1016l-70 127l-108 -127h-154l199 248h157l131 -248h-155zM725 215l51 -137q-4 -4 -12 -11t-36.5 -25t-61 -31.5t-85.5 -24.5t-110 -11q-169 0 -262.5 105t-93.5 276q0 145 58 265t162 190t232 70q169 0 249 -118.5t52 -309.5l-8 -54h-549q-10 -128 42 -194t155 -66 q57 0 111.5 19t80.5 38zM541 725q-147 0 -205 -193h344q4 94 -31.5 143.5t-107.5 49.5z" />
<glyph unicode="&#xeb;" horiz-adv-x="858" d="M330 1092q0 49 39 87t86 38q38 0 65 -30.5t27 -70.5q0 -49 -39 -87t-86 -38q-38 0 -65 30.5t-27 70.5zM657 1092q0 49 39 87t86 38q38 0 64 -30.5t26 -70.5q0 -49 -38.5 -87t-83.5 -38q-39 0 -66 30t-27 71zM725 215l51 -137q-4 -4 -12 -11t-36.5 -25t-61 -31.5 t-85.5 -24.5t-110 -11q-169 0 -262.5 105t-93.5 276q0 145 58 265t162 190t232 70q169 0 249 -118.5t52 -309.5l-8 -54h-549q-10 -128 42 -194t155 -66q57 0 111.5 19t80.5 38zM541 725q-147 0 -205 -193h344q4 94 -31.5 143.5t-107.5 49.5z" />
<glyph unicode="&#xec;" horiz-adv-x="421" d="M111 0l120 860h201l-121 -860h-200zM276 1018l-135 274l234 35l39 -309h-138z" />
<glyph unicode="&#xed;" horiz-adv-x="421" d="M655 1288l-231 -270h-135l135 297zM111 0l120 860h201l-121 -860h-200z" />
<glyph unicode="&#xee;" horiz-adv-x="421" d="M453 1059l-70 127l-109 -127h-153l198 248h158l131 -248h-155zM111 0l120 860h201l-121 -860h-200z" />
<glyph unicode="&#xef;" horiz-adv-x="421" d="M111 1157q0 49 39 87t86 38q38 0 65 -30t27 -70q0 -49 -39 -87t-86 -38q-38 0 -65 30t-27 70zM438 1157q0 49 39 87t86 38q38 0 64 -30t26 -70q0 -49 -39 -87t-84 -38q-39 0 -65.5 29.5t-26.5 70.5zM111 0l120 860h201l-121 -860h-200z" />
<glyph unicode="&#xf0;" horiz-adv-x="946" d="M469 -20q-166 0 -260 100.5t-94 273.5q0 229 134.5 377t346.5 148q8 0 53 -5v7q-21 37 -41 82l-47 114l-219 -133l-47 115l221 133l-110 276l2 23h192l82 -199l236 142l47 -113l-236 -141l168 -398q37 -97 48 -169.5t1 -166.5l-2 -18q-25 -205 -154.5 -326.5 t-320.5 -121.5zM748 487q0 106 -47.5 166t-127.5 60q-108 0 -181 -93t-73 -245q0 -108 47.5 -170t127.5 -62q108 0 181 95t73 249z" />
<glyph unicode="&#xf1;" horiz-adv-x="962" d="M379 500l-70 -500h-200l120 860h129l11 -123h10q60 74 125 109t155 35q151 0 224.5 -106t48.5 -281l-70 -494h-200l67 475q14 102 -22.5 168t-118.5 66q-84 0 -141.5 -65.5t-67.5 -143.5zM768 1063q-50 0 -95 25.5t-81.5 51t-65.5 25.5q-56 0 -82 -73l-12 -33l-139 14 l20 62q60 184 211 184q39 0 75.5 -16t60 -35t52.5 -35t54 -16q58 0 82 75l10 31l141 -12l-18 -62q-25 -84 -79 -135t-134 -51z" />
<glyph unicode="&#xf2;" horiz-adv-x="933" d="M940 492q0 -112 -40 -209.5t-106.5 -163t-152.5 -102.5t-178 -37q-154 0 -252 104.5t-98 275.5q0 113 39.5 211.5t105 165.5t152.5 105.5t180 38.5q152 0 251 -107.5t99 -281.5zM485 139q103 0 178.5 96.5t75.5 245.5q0 108 -47.5 174t-124.5 66q-107 0 -181.5 -97.5 t-74.5 -248.5q0 -108 47.5 -172t126.5 -64zM537 1018l-136 274l234 35l39 -309h-137z" />
<glyph unicode="&#xf3;" horiz-adv-x="933" d="M905 1288l-231 -270h-135l135 297zM940 492q0 -112 -40 -209.5t-106.5 -163t-152.5 -102.5t-178 -37q-154 0 -252 104.5t-98 275.5q0 113 39.5 211.5t105 165.5t152.5 105.5t180 38.5q152 0 251 -107.5t99 -281.5zM485 139q103 0 178.5 96.5t75.5 245.5q0 108 -47.5 174 t-124.5 66q-107 0 -181.5 -97.5t-74.5 -248.5q0 -108 47.5 -172t126.5 -64z" />
<glyph unicode="&#xf4;" horiz-adv-x="933" d="M707 1059l-70 127l-109 -127h-153l198 248h158l131 -248h-155zM940 492q0 -112 -40 -209.5t-106.5 -163t-152.5 -102.5t-178 -37q-154 0 -252 104.5t-98 275.5q0 113 39.5 211.5t105 165.5t152.5 105.5t180 38.5q152 0 251 -107.5t99 -281.5zM485 139q103 0 178.5 96.5 t75.5 245.5q0 108 -47.5 174t-124.5 66q-107 0 -181.5 -97.5t-74.5 -248.5q0 -108 47.5 -172t126.5 -64z" />
<glyph unicode="&#xf5;" horiz-adv-x="933" d="M940 492q0 -112 -40 -209.5t-106.5 -163t-152.5 -102.5t-178 -37q-154 0 -252 104.5t-98 275.5q0 113 39.5 211.5t105 165.5t152.5 105.5t180 38.5q152 0 251 -107.5t99 -281.5zM485 139q103 0 178.5 96.5t75.5 245.5q0 108 -47.5 174t-124.5 66q-107 0 -181.5 -97.5 t-74.5 -248.5q0 -108 47.5 -172t126.5 -64zM750 1065q-50 0 -95 25.5t-81.5 51t-65.5 25.5q-56 0 -82 -73l-12 -33l-140 14l21 62q60 184 211 184q39 0 75.5 -16t60 -35t52.5 -35t54 -16q57 0 81 75l11 31l141 -12l-18 -62q-25 -84 -79 -135t-134 -51z" />
<glyph unicode="&#xf6;" horiz-adv-x="933" d="M365 1159q0 49 38.5 87t85.5 38q38 0 65.5 -30t27.5 -70q0 -49 -39 -87t-86 -38q-38 0 -65 30t-27 70zM692 1159q0 49 39 87t86 38q38 0 64 -30t26 -70q0 -49 -39 -87t-84 -38q-39 0 -65.5 29.5t-26.5 70.5zM940 492q0 -112 -40 -209.5t-106.5 -163t-152.5 -102.5 t-178 -37q-154 0 -252 104.5t-98 275.5q0 113 39.5 211.5t105 165.5t152.5 105.5t180 38.5q152 0 251 -107.5t99 -281.5zM485 139q103 0 178.5 96.5t75.5 245.5q0 108 -47.5 174t-124.5 66q-107 0 -181.5 -97.5t-74.5 -248.5q0 -108 47.5 -172t126.5 -64z" />
<glyph unicode="&#xf7;" horiz-adv-x="911" d="M367 258q0 61 43.5 104.5t101.5 43.5q47 0 79 -33t32 -82q0 -59 -45 -101.5t-103 -42.5q-47 0 -77.5 31.5t-30.5 79.5zM461 932q0 59 43.5 102t101.5 43q47 0 79 -32.5t32 -81.5q0 -59 -45 -101.5t-103 -42.5q-47 0 -77.5 32t-30.5 81zM160 524l22 164h740l-23 -164h-739 z" />
<glyph unicode="&#xf8;" horiz-adv-x="933" d="M940 492q0 -112 -40 -209.5t-106.5 -163t-152.5 -102.5t-178 -37q-140 0 -230 81l-65 -61h-139l141 135q-57 94 -57 225q0 113 39.5 211.5t105 165.5t152.5 105.5t180 38.5q132 0 223 -82l64 61h139l-142 -133q66 -101 66 -235zM485 139q103 0 178.5 96.5t75.5 245.5 q0 50 -14 101l-363 -387q47 -56 123 -56zM311 375q0 -56 11 -96l360 387q-46 55 -115 55q-107 0 -181.5 -97.5t-74.5 -248.5z" />
<glyph unicode="&#xf9;" horiz-adv-x="958" d="M971 860l-121 -860h-133l-17 119h-10q-108 -139 -272 -139q-150 0 -221.5 106t-46.5 281l69 493h203l-68 -475q-14 -107 19 -172.5t114 -65.5t137.5 60.5t71.5 134.5l74 518h201zM543 1018l-135 274l233 35l39 -309h-137z" />
<glyph unicode="&#xfa;" horiz-adv-x="958" d="M907 1288l-231 -270h-135l135 297zM971 860l-121 -860h-133l-17 119h-10q-108 -139 -272 -139q-150 0 -221.5 106t-46.5 281l69 493h203l-68 -475q-14 -107 19 -172.5t114 -65.5t137.5 60.5t71.5 134.5l74 518h201z" />
<glyph unicode="&#xfb;" horiz-adv-x="958" d="M698 1016l-69 127l-109 -127h-153l198 248h158l131 -248h-156zM971 860l-121 -860h-133l-17 119h-10q-108 -139 -272 -139q-150 0 -221.5 106t-46.5 281l69 493h203l-68 -475q-14 -107 19 -172.5t114 -65.5t137.5 60.5t71.5 134.5l74 518h201z" />
<glyph unicode="&#xfc;" horiz-adv-x="958" d="M354 1118q0 49 39 87t86 38q38 0 65 -30t27 -70q0 -49 -39 -87t-86 -38q-38 0 -65 30t-27 70zM682 1118q0 49 39 87t86 38q38 0 64 -30t26 -70q0 -49 -39 -87t-84 -38q-39 0 -65.5 29.5t-26.5 70.5zM971 860l-121 -860h-133l-17 119h-10q-108 -139 -272 -139 q-150 0 -221.5 106t-46.5 281l69 493h203l-68 -475q-14 -107 19 -172.5t114 -65.5t137.5 60.5t71.5 134.5l74 518h201z" />
<glyph unicode="&#xfd;" horiz-adv-x="954" d="M772 860h195l-115 -823q-26 -183 -140 -293.5t-302 -110.5q-53 0 -101 11.5t-77.5 25t-59 37t-39 33t-24.5 27.5l118 127q79 -101 201 -101q95 0 152 61t75 177l15 96q-102 -107 -242 -107q-156 0 -228.5 105.5t-47.5 282.5l63 452h203l-62 -434q-14 -107 19 -172.5 t114 -65.5q85 0 143 59.5t73 137.5zM913 1288l-231 -270h-135l135 297z" />
<glyph unicode="&#xfe;" horiz-adv-x="976" d="M338 145h-8l-66 -464h-201l218 1548h200l-71 -508h8q3 7 9.5 17.5t30 38t51 48.5t72.5 38.5t95 17.5q139 0 223 -102t84 -273q0 -225 -128 -375.5t-304 -150.5q-52 0 -92.5 17t-62 41t-36 48.5t-18.5 41.5zM354 377q0 -107 48 -169.5t126 -62.5q103 0 176.5 96.5 t73.5 239.5q0 103 -47 168.5t-123 65.5q-104 0 -179 -95t-75 -243z" />
<glyph unicode="&#xff;" horiz-adv-x="954" d="M772 860h195l-115 -823q-26 -183 -140 -293.5t-302 -110.5q-53 0 -101 11.5t-77.5 25t-59 37t-39 33t-24.5 27.5l118 127q79 -101 201 -101q95 0 152 61t75 177l15 96q-102 -107 -242 -107q-156 0 -228.5 105.5t-47.5 282.5l63 452h203l-62 -434q-14 -107 19 -172.5 t114 -65.5q85 0 143 59.5t73 137.5zM365 1118q0 49 38.5 87t85.5 38q38 0 65.5 -30t27.5 -70q0 -49 -39 -87t-86 -38q-38 0 -65 30t-27 70zM692 1118q0 49 39 87t86 38q38 0 64 -30t26 -70q0 -49 -39 -87t-84 -38q-39 0 -65.5 29.5t-26.5 70.5z" />
<glyph unicode="&#x152;" horiz-adv-x="1906" d="M627 -29q-148 0 -259 73.5t-168 197.5t-57 278q0 148 51 283t138.5 234.5t211.5 158.5t263 59q121 0 216.5 -47.5t158.5 -134.5l22 156h805l-24 -180h-603l-47 -340h508l-24 -172h-508l-51 -357h602l-25 -180h-805l19 139q-183 -168 -424 -168zM653 168q117 0 215.5 68.5 t155.5 187.5t57 260q0 164 -82 270.5t-219 106.5q-117 0 -215 -69.5t-154.5 -189.5t-56.5 -261q0 -163 81 -268t218 -105z" />
<glyph unicode="&#x153;" horiz-adv-x="1515" d="M1384 215l52 -137q-4 -4 -12.5 -11t-37 -25t-61 -31.5t-85.5 -24.5t-110 -11q-110 0 -189.5 45.5t-121.5 126.5q-67 -79 -161 -123t-195 -44q-154 0 -252 104.5t-98 275.5q0 113 39.5 211.5t105 165.5t152.5 105.5t180 38.5q95 0 173 -45t124 -127q61 81 149 126.5 t191 45.5q169 0 249 -118.5t52 -309.5l-8 -54h-549q-10 -128 41.5 -194t154.5 -66q57 0 111.5 19t79.5 38zM485 139q103 0 178.5 96.5t75.5 245.5q0 108 -47.5 174t-124.5 66q-107 0 -181.5 -97.5t-74.5 -248.5q0 -108 47.5 -172t126.5 -64zM1200 725q-147 0 -205 -193h344 q4 94 -31.5 143.5t-107.5 49.5z" />
<glyph unicode="&#x178;" horiz-adv-x="1005" d="M651 748l303 481h226l-508 -750l-68 -479h-203l68 479l-299 750h225l172 -481l29 -95zM438 1442q0 49 39 87t86 38q38 0 65 -30.5t27 -70.5q0 -49 -39 -87t-86 -38q-38 0 -65 30.5t-27 70.5zM766 1442q0 49 39 87t86 38q38 0 64 -30.5t26 -70.5q0 -49 -39 -87t-84 -38 q-39 0 -65.5 30t-26.5 71z" />
<glyph unicode="&#x2c6;" horiz-adv-x="704" d="M641 1341l-70 127l-108 -127h-154l199 248h158l131 -248h-156z" />
<glyph unicode="&#x2dc;" horiz-adv-x="919" d="M782 1346q-39 0 -76.5 16t-61 35t-51.5 35t-52 16q-55 0 -82 -74l-13 -33l-139 15l21 61q60 185 211 185q39 0 75.5 -16t60 -35.5t52 -35.5t53.5 -16q33 0 51.5 20t30.5 56l10 31l142 -13l-19 -61q-25 -84 -79 -135t-134 -51z" />
<glyph unicode="&#x2000;" horiz-adv-x="832" />
<glyph unicode="&#x2001;" horiz-adv-x="1665" />
<glyph unicode="&#x2002;" horiz-adv-x="832" />
<glyph unicode="&#x2003;" horiz-adv-x="1665" />
<glyph unicode="&#x2004;" horiz-adv-x="555" />
<glyph unicode="&#x2005;" horiz-adv-x="416" />
<glyph unicode="&#x2006;" horiz-adv-x="277" />
<glyph unicode="&#x2007;" horiz-adv-x="277" />
<glyph unicode="&#x2008;" horiz-adv-x="208" />
<glyph unicode="&#x2009;" horiz-adv-x="333" />
<glyph unicode="&#x200a;" horiz-adv-x="92" />
<glyph unicode="&#x2010;" horiz-adv-x="722" d="M154 387l22 164h526l-22 -164h-526z" />
<glyph unicode="&#x2011;" horiz-adv-x="722" d="M154 387l22 164h526l-22 -164h-526z" />
<glyph unicode="&#x2012;" horiz-adv-x="722" d="M154 387l22 164h526l-22 -164h-526z" />
<glyph unicode="&#x2013;" horiz-adv-x="856" d="M180 506l23 166h631l-23 -166h-631z" />
<glyph unicode="&#x2014;" horiz-adv-x="1327" d="M180 506l23 166h1102l-23 -166h-1102z" />
<glyph unicode="&#x2018;" horiz-adv-x="415" d="M496 1229l14 -109q-61 -15 -100.5 -47.5t-51.5 -77.5q39 -9 60.5 -41.5t15.5 -76.5q-8 -53 -47 -88t-90 -35t-80 35.5t-22 87.5l2 14q18 128 97 221t202 117z" />
<glyph unicode="&#x2019;" horiz-adv-x="419" d="M213 754l-14 108q127 32 151 125q-39 9 -60.5 42t-15.5 77q7 52 47 87.5t91 35.5t80 -35.5t22 -87.5l-2 -14q-18 -128 -97 -221t-202 -117z" />
<glyph unicode="&#x201a;" horiz-adv-x="403" d="M16 -143q61 15 100.5 47.5t51.5 77.5q-39 9 -60.5 41.5t-15.5 76.5q8 53 47 88t90 35t80.5 -35.5t22.5 -87.5l-2 -14q-18 -128 -97 -221t-202 -117z" />
<glyph unicode="&#x201c;" horiz-adv-x="735" d="M815 1229l14 -109q-127 -32 -151 -125q39 -9 60.5 -41.5t15.5 -76.5q-7 -52 -47 -87.5t-91 -35.5t-80 35.5t-22 87.5l2 14q18 128 97 221t202 117zM510 1229l14 -109q-127 -32 -151 -125q39 -9 60.5 -41.5t15.5 -76.5q-7 -52 -47 -87.5t-91 -35.5t-80 35.5t-22 87.5l2 14 q18 128 97 221t202 117z" />
<glyph unicode="&#x201d;" horiz-adv-x="724" d="M213 754l-14 108q127 32 151 125q-39 9 -60.5 42t-15.5 77q7 52 47 87.5t91 35.5t80 -35.5t22 -87.5l-2 -14q-18 -128 -97 -221t-202 -117zM518 754l-14 108q127 32 151 125q-39 9 -60 42t-15 77q8 53 47 88t90 35t80 -35.5t22 -87.5l-2 -14q-18 -128 -97 -221t-202 -117 z" />
<glyph unicode="&#x201e;" horiz-adv-x="724" d="M383 -250l-14 109q125 31 153 125q-40 9 -61 42t-15 76q6 52 45.5 87.5t90.5 35.5q50 0 79.5 -37t22.5 -96l-2 -8q-18 -128 -97 -219t-202 -115zM63 -250l-14 109q126 32 154 125q-40 9 -61 42t-15 76q6 52 45 87.5t90 35.5t80.5 -37t22.5 -96l-3 -8q-18 -128 -97 -219 t-202 -115z" />
<glyph unicode="&#x2022;" horiz-adv-x="604" d="M391 631q61 0 102.5 -44.5t41.5 -109.5q0 -78 -59 -135t-134 -57q-64 0 -104.5 43t-40.5 108q0 78 58.5 136.5t135.5 58.5z" />
<glyph unicode="&#x2026;" horiz-adv-x="1406" d="M100 102q0 63 47.5 110.5t110.5 47.5q52 0 85.5 -36t33.5 -89q0 -63 -47.5 -108t-110.5 -45q-52 0 -85.5 33.5t-33.5 86.5zM582 102q0 63 47 110.5t110 47.5q52 0 85.5 -36t33.5 -89q0 -63 -47.5 -108t-110.5 -45q-52 0 -85 33.5t-33 86.5zM1063 102q0 63 47.5 110.5 t110.5 47.5q52 0 85 -36t33 -89q0 -63 -47 -108t-110 -45q-52 0 -85.5 33.5t-33.5 86.5z" />
<glyph unicode="&#x202f;" horiz-adv-x="333" />
<glyph unicode="&#x2039;" horiz-adv-x="534" d="M121 403l6 46l293 387h168l-4 -21l-281 -381l-2 -12l174 -385l-4 -21h-168z" />
<glyph unicode="&#x203a;" horiz-adv-x="534" d="M535 449l-7 -46l-292 -387h-170l2 21l284 385l2 12l-176 381l2 21h170z" />
<glyph unicode="&#x205f;" horiz-adv-x="416" />
<glyph unicode="&#x20ac;" horiz-adv-x="1079" d="M827 547l-20 -146h-328q30 -235 238 -235q37 0 74 11t63 27t46.5 32t31.5 27l10 11l88 -151q-5 -6 -14.5 -16t-43 -35.5t-70 -45t-95.5 -35.5t-121 -16q-191 0 -297.5 117t-122.5 309h-141l20 146h121q4 42 8 69q11 70 13 78h-121l20 146h144q71 187 209 301t327 114 q62 0 115.5 -15t86 -36.5t56.5 -43.5t34 -37l9 -15l-129 -156q-3 4 -8 11.5t-23 26.5t-38.5 33t-55 26t-71.5 12q-202 0 -299 -221h325l-20 -146h-350q-4 -20 -13 -78q-4 -27 -8 -69h350z" />
<glyph unicode="&#x2122;" horiz-adv-x="1347" d="M846 575h-131l92 654h88l166 -295l252 295h86l-92 -654h-129l55 392l-172 -203h-47l-113 201zM707 1229l-17 -117h-172l-76 -537h-131l76 537h-170l16 117h474z" />
<glyph unicode="&#x25fc;" horiz-adv-x="860" d="M0 860h860v-860h-860v860z" />
</font>
</defs>
</svg>
